<svg version="1.1" viewBox="0.0 0.0 960.0 720.0" fill="none" stroke="none" stroke-linecap="square" stroke-miterlimit="10" xmlns:xlink="http://www.w3.org/1999/xlink" xmlns="http://www.w3.org/2000/svg"><clipPath id="p.0"><path d="m0 0l960.0 0l0 720.0l-960.0 0l0 -720.0z" clip-rule="nonzero"/></clipPath><g clip-path="url(#p.0)"><path fill="#000000" fill-opacity="0.0" d="m0 0l960.0 0l0 720.0l-960.0 0z" fill-rule="evenodd"/><path fill="#212121" fill-opacity="0.195" d="m668.1833 230.74991c-2.3536377 0 -4.722412 1.8677063 -7.0911865 7.3796997c-1.5488281 3.8417053 -2.7939453 7.6833954 -3.7354126 11.737671c-2.3839722 10.371063 -4.251709 20.954712 -5.496826 31.53836c-0.40997314 3.0065613 -0.8199463 6.2256775 -1.2451172 9.65741c-0.10632324 1.0325317 -0.1973877 2.1713867 -0.30371094 3.325409l-23.353882 3.8417053c-0.7592163 -4.2213135 -4.084656 -6.286438 -7.425232 -6.286438c-3.5683594 0 -7.13678 2.3536377 -7.6226807 6.9089966l-0.21258545 1.9588013l-16.59674 2.809143c-0.60736084 -3.5987244 -3.4620361 -5.360138 -6.3167725 -5.360138c-2.991333 0 -5.982727 1.943634 -6.347168 5.7701416l-0.21258545 1.7614136l-15.670471 2.5965576l-11.722473 14.744202l92.261475 3.4165344c-1.5640259 16.095642 -2.1865845 32.176117 -1.8676758 48.362885l-17.963379 6.954529l-3.6290894 7.789673l22.731262 -0.4251709c0.83514404 5.6183167 2.0803223 8.928528 3.5228271 10.386261c-0.09106445 2.7939758 -0.1973877 8.503357 0.72888184 8.60965c0.015197754 0 0.015197754 0 0.030334473 0c1.0325928 0 1.9436646 -5.527191 2.3536377 -8.305969c1.7766113 -1.0325317 3.644287 -4.1453857 5.6030884 -9.338501l22.108765 4.889435l-1.8677368 -8.305969l-16.186707 -10.38623c3.4317017 -15.776794 6.0130615 -31.750946 7.789673 -47.83142l91.0163 15.047913l-8.412231 -16.824493l-14.941589 -5.7094116l0.1973877 -1.7614136c0.44036865 -4.357971 -3.0217285 -7.0000916 -6.468628 -7.0000916c-2.3839722 0 -4.7679443 1.260315 -5.876465 4.099823l-15.670471 -6.0282593l0.21258545 -2.065094c0.48590088 -5.2235107 -3.644287 -8.366699 -7.7592773 -8.366699c-2.8395386 0 -5.6638794 1.4880676 -6.9849243 4.8286743l-22.002441 -8.503357c4.4642334 -51.991974 0.7288208 -65.27847 -5.1779785 -65.90105c-0.13665771 -0.015182495 -0.25811768 -0.015182495 -0.3947754 -0.015182495z" fill-rule="evenodd"/><path fill="#ffffff" fill-opacity="0.0943" d="m398.12564 165.38031c-83.9707 140.73065 -160.03023 377.8681 -209.63823 554.6014l583.0269 0c-110.832214 -282.7975 -194.27148 -549.62085 -194.27148 -549.62085l-179.11722 -4.980545z" fill-rule="evenodd"/><path fill="#ffffff" fill-opacity="0.2453" d="m432.06317 173.68628c-83.348145 139.5918 -132.42468 371.83984 -159.31656 546.2954l369.881 0c-91.85144 -280.5198 -107.628235 -533.32776 -107.628235 -533.32776l-102.93622 -12.967621z" fill-rule="evenodd"/><path fill="#ffffff" fill-opacity="0.4025" d="m459.66873 174.61253c-52.720856 143.94975 -61.86197 370.91357 -59.477997 545.36914l186.60321 0c-78.671234 -276.7844 -77.7298 -533.32776 -77.7298 -533.32776l-49.395416 -12.041367z" fill-rule="evenodd"/><path fill="#ffffff" d="m394.84576 130.9417c-8.305939 0 -15.351593 6.27124 -16.126007 14.72905l-3.1280212 30.915787c-1.5488281 9.247406 5.0868225 17.963348 14.425354 18.889603c0.5618286 0.06074524 1.1236572 0.09111023 1.6702881 0.09111023c8.715942 0 16.004547 -6.878601 16.29306 -15.761581l3.1128235 -30.930984c0.83514404 -8.913345 -5.6030884 -16.915604 -14.531616 -17.841873c-0.57702637 -0.06072998 -1.1540527 -0.09111023 -1.7158813 -0.09111023z" fill-rule="evenodd"/><path fill="#ffffff" d="m329.1725 144.54709c-6.863434 0 -12.770233 5.2538605 -13.453522 12.3298645l-2.5965576 25.935257c-0.5162964 7.273407 4.98053 13.71167 12.253937 14.425339c0.4555359 0.045562744 0.9110718 0.075927734 1.3666077 0.075927734c6.802704 0 12.694305 -4.980545 13.575012 -11.798416l2.5965576 -25.95044c0.7136841 -7.47081 -4.6768494 -14.212753 -12.253937 -14.94162c-0.50109863 -0.045547485 -1.0021973 -0.075912476 -1.4880981 -0.075912476z" fill-rule="evenodd"/><path fill="#ffffff" d="m573.03674 148.88986c-8.305969 0 -15.36676 6.27124 -16.2323 14.622757l-3.112854 30.93097c-0.4251709 8.715942 6.0131226 16.186752 14.729065 17.021912c0.5921631 0.06072998 1.1691895 0.09111023 1.7462158 0.09111023c7.895996 0 14.744202 -5.861252 16.004517 -13.787598l3.112854 -30.93097c0.83514404 -8.928543 -5.6030884 -16.915619 -14.531616 -17.85707c-0.57702637 -0.06072998 -1.1540527 -0.09111023 -1.7158813 -0.09111023z" fill-rule="evenodd"/><path fill="#ffffff" d="m635.2631 175.28065c-6.9241333 0 -12.922058 5.1931305 -13.605347 12.314697l-2.5965576 25.935242c-0.8200073 7.4860077 4.676819 14.227951 12.253906 14.956818c0.4555664 0.045547485 0.89593506 0.06072998 1.3514404 0.06072998c6.9089966 0 12.906921 -5.193115 13.59021 -12.314682l2.5965576 -25.95044c0.72888184 -7.47081 -4.7679443 -14.212769 -12.23877 -14.94162c-0.4555664 -0.045562744 -0.9110718 -0.06074524 -1.3514404 -0.06074524z" fill-rule="evenodd"/><path fill="#ffffff" d="m466.60806 302.05667l-55.104797 21.27359l-7.6834106 16.824493l0 0l59.052826 -1.0477295l3.735382 -37.050354z" fill-rule="evenodd"/><path fill="#ffffff" d="m472.12006 302.58813l-3.735382 37.050354l57.595062 12.755035l-4.1605835 -17.94815l-49.699097 -31.857239z" fill-rule="evenodd"/><path fill="#ffffff" d="m476.37177 133.4168l-194.69662 32.798676l-24.796417 31.553543l212.2196 7.7745056l7.2734375 -72.126724z" fill-rule="evenodd"/><path fill="#ffffff" d="m496.08133 135.39078l-7.2582397 72.126724l209.53195 34.666397l-17.948181 -35.91153l-184.32553 -70.88159z" fill-rule="evenodd"/><path fill="#ffffff" d="m498.78418 0.11141424c-13.71167 0 -27.894073 32.191296 -41.089447 164.13005c-13.605377 134.80864 -8.412262 197.29317 5.6030884 198.62941c0.16705322 0.03036499 0.31887817 0.03036499 0.4859314 0.03036499c13.83313 0 31.11319 -60.25238 44.44522 -193.57294c13.590179 -134.91495 5.405731 -167.81992 -8.503357 -169.17134c-0.31887817 -0.030369148 -0.6225586 -0.045553714 -0.94143677 -0.045553714z" fill-rule="evenodd"/><path fill="#5bbceb" d="m476.06805 59.513466c-2.1106567 0 -2.429535 3.3406067 -0.106292725 3.6442986l4.2516785 0.4099846c2.1714172 0 2.490265 -3.2039452 0.30371094 -3.6291122l-4.2516785 -0.4099846c-0.060760498 -0.01518631 -0.12149048 -0.01518631 -0.19741821 -0.01518631z" fill-rule="evenodd"/><path fill="#5bbceb" d="m474.09406 69.17085c-2.2017517 0 -2.5358276 3.3406067 -0.21258545 3.5380096l4.2516785 0.40998077c0.12149048 0.03037262 0.2581482 0.03037262 0.36444092 0.03037262c2.1562195 0 2.4143372 -3.462082 -0.045562744 -3.5531921l-4.160553 -0.4251709c-0.060760498 0 -0.13665771 0 -0.19741821 0z" fill-rule="evenodd"/><path fill="#5bbceb" d="m472.31747 78.82825c-2.1865845 0 -2.4447327 3.1280212 -0.19741821 3.5228195l4.1454163 0.4251709c0.03036499 0 0.07589722 0 0.106292725 0c2.186554 0 2.4599 -3.2191315 0.30368042 -3.5380096l-4.2516785 -0.40998077c-0.03036499 0 -0.075927734 0 -0.106292725 0z" fill-rule="evenodd"/><path fill="#5bbceb" d="m471.3001 88.47045c-2.2169495 0 -2.5358276 3.3406067 -0.2277832 3.538002l4.266876 0.4099884c0.12145996 0.03036499 0.24295044 0.03036499 0.36444092 0.03036499c2.156189 0 2.3991394 -3.4468994 -0.060760498 -3.5531921l-4.1453857 -0.40998077c-0.075927734 -0.015182495 -0.13665771 -0.015182495 -0.1973877 -0.015182495z" fill-rule="evenodd"/><path fill="#5bbceb" d="m469.25018 98.112656c-2.034729 0 -2.3232422 3.3557892 -0.045562744 3.5531921l4.266876 0.40998077c0.045562744 0 0.106292725 0.015182495 0.1670227 0.015182495c0.86553955 0 1.5943909 -0.6984863 1.7006836 -1.5640106c0.09109497 -1.0477371 -0.6225586 -1.8828888 -1.5640259 -1.9739914l-4.2516785 -0.4251709c-0.09109497 -0.015182495 -0.18218994 -0.015182495 -0.27331543 -0.015182495z" fill-rule="evenodd"/><path fill="#5bbceb" d="m468.47577 107.785225c-2.1865845 0 -2.4447021 3.2191315 -0.30368042 3.6291199l4.2516785 0.40998077c0.075927734 0.015182495 0.13665771 0.015182495 0.1973877 0.015182495c2.2017822 0 2.4447327 -3.3406067 0.2277832 -3.6442947l-4.266876 -0.4099884c-0.03036499 0 -0.06072998 0 -0.106292725 0z" fill-rule="evenodd"/><path fill="#5bbceb" d="m457.69473 214.56316c-2.2017822 0 -2.5358276 3.3406067 -0.21258545 3.5379944l4.2516785 0.5162811c0.12145996 0.03036499 0.24295044 0.03036499 0.36444092 0.03036499c2.156189 0 2.4143372 -3.5531921 -0.045562744 -3.6594696l-4.1605835 -0.4099884c-0.06072998 -0.015182495 -0.13665771 -0.015182495 -0.1973877 -0.015182495z" fill-rule="evenodd"/><path fill="#5bbceb" d="m456.7533 224.32683c-2.0802917 0 -2.4599 3.1280212 -0.21258545 3.5380096l4.160553 0.4099884c0.060760498 0 0.13665771 0.015182495 0.19741821 0.015182495c2.2017517 0 2.429535 -3.3406067 0.21258545 -3.5380096l-4.2516785 -0.4251709c-0.030395508 0 -0.075927734 0 -0.106292725 0z" fill-rule="evenodd"/><path fill="#5bbceb" d="m466.41068 117.42743c-2.2017517 0 -2.5358276 3.3406067 -0.21258545 3.5380096l4.2516785 0.40998077c0.13665771 0.03037262 0.2581482 0.03037262 0.36444092 0.03037262c2.1713867 0 2.4143372 -3.462082 -0.045562744 -3.5531921l-4.1605835 -0.40998077c-0.06072998 -0.0151901245 -0.12145996 -0.0151901245 -0.1973877 -0.0151901245z" fill-rule="evenodd"/><path fill="#5bbceb" d="m465.3781 127.08482c-2.2017517 0 -2.429535 3.3254242 -0.106292725 3.6291046l4.1453857 0.4251709c0.13665771 0.015182495 0.2581482 0.03036499 0.36444092 0.03036499c2.2473145 0 2.4143372 -3.568367 0.045562744 -3.6594772l-4.2516785 -0.42516327c-0.060760498 0 -0.13665771 0 -0.19741821 0z" fill-rule="evenodd"/><path fill="#5bbceb" d="m464.54297 136.83331c-2.1865845 0 -2.4599 3.234314 -0.31887817 3.5380096l4.2516785 0.4099884c0.075927734 0.015182495 0.13665771 0.015182495 0.21258545 0.015182495c2.2017517 0 2.429535 -3.3406067 0.106292725 -3.5380096l-4.1453857 -0.4099884c-0.045562744 0 -0.075927734 -0.015182495 -0.106292725 -0.015182495z" fill-rule="evenodd"/><path fill="#5bbceb" d="m463.32822 146.58182c-2.0347595 0 -2.3232422 3.2494965 -0.030395508 3.5380096l4.2516785 0.42515564c2.1714172 0 2.4902954 -3.2191315 0.30371094 -3.5379944l-4.2516785 -0.4099884c-0.09112549 -0.015182495 -0.18222046 -0.015182495 -0.27331543 -0.015182495z" fill-rule="evenodd"/><path fill="#5bbceb" d="m462.47787 156.2392c-2.2169495 0 -2.429535 3.3406067 -0.12149048 3.5380096l4.1605835 0.4099884c0.09109497 0.015182495 0.18222046 0.03036499 0.27331543 0.03036499c2.1258545 0 2.3232422 -3.3557892 0.13665771 -3.5531921l-4.2516785 -0.40997314c-0.075927734 -0.015197754 -0.13665771 -0.015197754 -0.1973877 -0.015197754z" fill-rule="evenodd"/><path fill="#5bbceb" d="m461.2783 165.95734c-2.1562195 0 -2.2928772 3.4772644 0.045562744 3.5835571l4.2516785 0.40997314c0.06072998 0 0.13665771 0 0.1973877 0c2.1106567 0 2.429535 -3.325409 0.12149048 -3.522812l-4.1605835 -0.4251709c-0.15185547 -0.03036499 -0.30368042 -0.045547485 -0.4555359 -0.045547485z" fill-rule="evenodd"/><path fill="#5bbceb" d="m460.50388 175.6451c-2.2017517 0 -2.429535 3.3406067 -0.12149048 3.5379944l4.1605835 0.4251709c0.03036499 0 0.06072998 0 0.106292725 0c2.1865845 0 2.4447021 -3.1280212 0.30368042 -3.5380096l-4.2516785 -0.40997314c-0.075927734 -0.015182495 -0.13665771 -0.015182495 -0.1973877 -0.015182495z" fill-rule="evenodd"/><path fill="#5bbceb" d="m459.56244 185.30247c-2.2017822 0 -2.429535 3.3406067 -0.21258545 3.5380096l4.2516785 0.5162811c0.075927734 0 0.13665771 0.015182495 0.1973877 0.015182495c2.2017822 0 2.429535 -3.3406067 0.12149048 -3.6443024l-4.1605835 -0.4251709c-0.06072998 0 -0.13665771 0 -0.1973877 0z" fill-rule="evenodd"/><path fill="#5bbceb" d="m459.56244 195.17245c-2.0954895 0 -2.3536072 3.2191315 -0.21258545 3.522812l4.2516785 0.4099884c0.13665771 0.03036499 0.25811768 0.03036499 0.3644104 0.03036499c2.1714172 0 2.4143677 -3.4468994 -0.045532227 -3.5531921l-4.2516785 -0.40997314c-0.045562744 0 -0.075927734 0 -0.106292725 0z" fill-rule="evenodd"/><path fill="#5bbceb" d="m458.43878 204.90576c-2.1258545 0 -2.308075 3.3406067 -0.030395508 3.5531921l4.1605835 0.4099884c2.2776794 0 2.5965576 -3.2191315 0.40997314 -3.5380096l-4.2516785 -0.4099884c-0.09109497 -0.015182495 -0.1973877 -0.015182495 -0.28848267 -0.015182495z" fill-rule="evenodd"/><path fill="#5bbceb" d="m455.62964 233.96904c-2.2169495 0 -2.4447327 3.3406067 -0.2277832 3.5380096l4.266876 0.51626587c0.12145996 0.03036499 0.24295044 0.03036499 0.34924316 0.03036499c2.1713867 0 2.4143372 -3.5531769 -0.045562744 -3.6594696l-4.1453857 -0.4099884c-0.075927734 -0.015182495 -0.13665771 -0.015182495 -0.1973877 -0.015182495z" fill-rule="evenodd"/><path fill="#5bbceb" d="m454.59708 243.73271c-0.86550903 0 -1.6854858 0.6833191 -1.6854858 1.5640106c-0.106292725 1.0325623 0.51626587 1.8677063 1.5639954 1.973999l4.2516785 0.4099884c0.060760498 0 0.12149048 0.015182495 0.19741821 0.015182495c2.1106567 0 2.429535 -3.3406067 0.12145996 -3.5380096l-4.2668457 -0.4251709c-0.060760498 0 -0.12149048 0 -0.18222046 0z" fill-rule="evenodd"/><path fill="#5bbceb" d="m455.00705 253.58751c-0.9566345 0 -1.6854858 0.6984863 -1.7765808 1.5640106c-0.106292725 0.94143677 0.6225586 1.8677063 1.5488281 1.973999l4.2668457 0.40997314c0.045562744 0.015197754 0.106292725 0.015197754 0.16705322 0.015197754c0.8807068 0 1.7006531 -0.6984863 1.7917786 -1.5640259c0.106292725 -1.0477295 -0.6225891 -1.867691 -1.6551208 -1.9739838l-4.1453857 -0.4099884c-0.075927734 -0.015182495 -0.13665771 -0.015182495 -0.19741821 -0.015182495z" fill-rule="evenodd"/><path fill="#5bbceb" d="m454.1567 263.2449c-2.1713867 0 -2.490265 3.2191162 -0.30368042 3.5379944l4.2516785 0.40997314c0.09112549 0.015197754 0.18222046 0.015197754 0.27331543 0.015197754c2.034729 0 2.3232422 -3.3406067 0.03036499 -3.5379944l-4.2516785 -0.4251709z" fill-rule="evenodd"/><path fill="#5bbceb" d="m454.7793 273.20596c-2.1865845 0 -2.4599 3.234314 -0.30371094 3.538025l4.2516785 0.40997314c0.060760498 0 0.13668823 0.015197754 0.19741821 0.015197754c2.2017517 0 2.429535 -3.3406067 0.12145996 -3.538025l-4.160553 -0.4251709c-0.03036499 0 -0.060760498 0 -0.106292725 0z" fill-rule="evenodd"/><path fill="#5bbceb" d="m453.74673 282.86337c-2.095459 0 -2.4599 3.1128235 -0.21258545 3.5228271l4.1605835 0.42514038c0.06072998 0 0.12145996 0 0.1973877 0c0.94143677 0 1.6703186 -0.6832886 1.7766113 -1.5639954c0.09109497 -1.0325623 -0.6225891 -1.8677063 -1.5640259 -1.973999l-4.2516785 -0.40997314c-0.045562744 0 -0.075927734 0 -0.106292725 0z" fill-rule="evenodd"/><path fill="#5bbceb" d="m506.4676 62.64149c-2.0802917 0 -2.3536072 3.112835 -0.21258545 3.5228233l4.160553 0.42516327c0.060760498 0 0.12149048 0 0.19741821 0c2.2017822 0 2.4295044 -3.3406067 0.21258545 -3.5380058l-4.2516785 -0.40998077c-0.045562744 0 -0.075927734 0 -0.106292725 0z" fill-rule="evenodd"/><path fill="#5bbceb" d="m506.4676 72.389984c-2.2017822 0 -2.429535 3.3254242 -0.106292725 3.5380096l4.1453857 0.5162735c0.13665771 0.015182495 0.25811768 0.03037262 0.37960815 0.03037262c2.2473145 0 2.4143677 -3.5683746 0.045562744 -3.6594849l-4.2516785 -0.4251709c-0.075927734 0 -0.13668823 0 -0.21258545 0z" fill-rule="evenodd"/><path fill="#5bbceb" d="m506.28537 82.22959c-2.1258545 0 -2.308075 3.2494965 -0.03036499 3.5531921l4.160553 0.40998077c0.060760498 0.015182495 0.12149048 0.015182495 0.19741821 0.015182495c0.94143677 0 1.6702881 -0.6984863 1.7614136 -1.5640106c0.10626221 -1.0477371 -0.6225891 -1.8676987 -1.5488281 -1.9739914l-4.2516785 -0.4099884c-0.106292725 -0.015182495 -0.19741821 -0.03036499 -0.28851318 -0.03036499z" fill-rule="evenodd"/><path fill="#5bbceb" d="m505.52612 91.90216c-2.186554 0 -2.4447021 3.234314 -0.30368042 3.6291122l4.2516785 0.4251709c0.06072998 0 0.13665771 0 0.1973877 0c2.1106567 0 2.4295654 -3.3406067 0.12149048 -3.6291122l-4.1605835 -0.4251709c-0.03036499 0 -0.06072998 0 -0.106292725 0z" fill-rule="evenodd"/><path fill="#5bbceb" d="m505.23764 101.74177c-2.1106567 0 -2.308075 3.2494965 -0.015197754 3.5531921l4.1453857 0.40998077c2.2928772 0 2.5965576 -3.2191315 0.4251709 -3.5228195l-4.266876 -0.4099884c-0.09109497 -0.015182495 -0.1973877 -0.03036499 -0.28848267 -0.03036499z" fill-rule="evenodd"/><path fill="#5bbceb" d="m504.4936 111.414345c-2.1865845 0 -2.4599 3.1280212 -0.30371094 3.538002l4.2516785 0.40998077c0.060760498 0 0.13668823 0 0.19741821 0c2.2017517 0 2.429535 -3.3254166 0.106292725 -3.538002l-4.1453857 -0.40998077c-0.03036499 0 -0.075927734 0 -0.106292725 0z" fill-rule="evenodd"/><path fill="#5bbceb" d="m493.62143 218.19226c-2.1258545 0 -2.4447327 3.3406067 -0.12149048 3.5380096l4.2516785 0.4251709c0.12149048 0.015182495 0.24298096 0.03036499 0.36444092 0.03036499c2.1562195 0 2.39917 -3.462082 -0.06072998 -3.5683746l-4.2516785 -0.4099884c-0.060760498 0 -0.12149048 -0.015182495 -0.18222046 -0.015182495z" fill-rule="evenodd"/><path fill="#5bbceb" d="m492.7711 227.95595c-2.1865845 0 -2.4599 3.1280212 -0.21258545 3.5380096l4.1453857 0.40997314c0.075927734 0.015182495 0.13665771 0.015182495 0.21258545 0.015182495c2.2017822 0 2.429535 -3.3406067 0.21258545 -3.5379944l-4.2516785 -0.4251709c-0.045562744 0 -0.075927734 0 -0.106292725 0z" fill-rule="evenodd"/><path fill="#5bbceb" d="m504.59988 121.26913c-2.1865845 0 -2.4599 3.1280212 -0.31887817 3.5380096l4.2668457 0.40998077c0.060760498 0.015182495 0.12149048 0.015182495 0.18222046 0.015182495c2.1106567 0 2.4447327 -3.340599 0.12149048 -3.538002l-4.1453857 -0.4251709c-0.045562744 0 -0.075927734 0 -0.106292725 0z" fill-rule="evenodd"/><path fill="#5bbceb" d="m503.46103 130.91133c-2.2017517 0 -2.429535 3.3406067 -0.21258545 3.5380096l4.2516785 0.5314636c0.12149048 0.015182495 0.24295044 0.03036499 0.36444092 0.03036499c2.1713867 0 2.4143372 -3.5683746 0.06072998 -3.6746674l-4.266876 -0.4099884c-0.06072998 0 -0.12145996 -0.015182495 -0.1973877 -0.015182495z" fill-rule="evenodd"/><path fill="#5bbceb" d="m502.42847 140.67502c-2.1106567 0 -2.4295044 3.3406067 -0.106292725 3.5380096l4.251709 0.40997314c0.06072998 0.015182495 0.12145996 0.015182495 0.18218994 0.015182495c2.1258545 0 2.4447327 -3.3406067 0.12149048 -3.5379944l-4.2516785 -0.4099884c-0.06072998 -0.015182495 -0.12149048 -0.015182495 -0.19741821 -0.015182495z" fill-rule="evenodd"/><path fill="#5bbceb" d="m501.3352 150.30203c-2.1714172 0 -2.4143677 3.5683746 0.045532227 3.6594849l4.2516785 0.4251709c0.075927734 0 0.13665771 0 0.19741821 0c2.1106567 0 2.429535 -3.3406067 0.12145996 -3.6443024l-4.2516785 -0.4099884c-0.13665771 -0.015182495 -0.25811768 -0.03036499 -0.3644104 -0.03036499z" fill-rule="evenodd"/><path fill="#5bbceb" d="m500.5608 160.0809c-2.2169495 0 -2.5358276 3.3406067 -0.21258545 3.5380096l4.2516785 0.40997314c0.03036499 0 0.06072998 0 0.09109497 0c2.0954895 0 2.368805 -3.2191315 0.21258545 -3.522812l-4.1453857 -0.4099884c-0.06072998 -0.015182495 -0.13665771 -0.015182495 -0.1973877 -0.015182495z" fill-rule="evenodd"/><path fill="#5bbceb" d="m499.72562 169.7383c-2.186554 0 -2.5965576 3.2191162 -0.31887817 3.6291046l4.1605835 0.4251709c0.06072998 0 0.12149048 0 0.1973877 0c2.2017822 0 2.5358276 -3.3254242 0.21258545 -3.5380096l-4.2516785 -0.51626587z" fill-rule="evenodd"/><path fill="#5bbceb" d="m498.6779 179.50197c-2.1865845 0 -2.4599 3.2191315 -0.30368042 3.5228271l4.2516785 0.40997314c0.06072998 0.015197754 0.12145996 0.015197754 0.18222046 0.015197754c0.86550903 0 1.6854858 -0.6985016 1.7917786 -1.5640106c0.106292725 -1.0325623 -0.6225891 -1.8677063 -1.5640259 -1.973999l-4.2516785 -0.4099884c-0.03036499 0 -0.06072998 0 -0.106292725 0z" fill-rule="evenodd"/><path fill="#5bbceb" d="m497.55423 189.23528c-2.1106567 0 -2.2928772 3.2495117 -0.015167236 3.5531921l4.160553 0.4099884c0.12149048 0.015182495 0.24295044 0.03036499 0.34924316 0.03036499c2.1713867 0 2.429535 -3.5683746 0.060760498 -3.5683746l-4.251709 -0.40997314c-0.106292725 -0.015197754 -0.1973877 -0.015197754 -0.30368042 -0.015197754z" fill-rule="evenodd"/><path fill="#5bbceb" d="m495.68652 198.78638c-2.2017517 0 -2.429535 3.3406067 -0.12145996 3.5380096l4.160553 0.4251709c0.12149048 0.015182495 0.24295044 0.03036499 0.36444092 0.03036499c2.1562195 0 2.4143372 -3.462082 0.045562744 -3.5683746l-4.2516785 -0.4099884c-0.075927734 0 -0.13668823 -0.015182495 -0.19741821 -0.015182495z" fill-rule="evenodd"/><path fill="#5bbceb" d="m494.7451 208.55006c-0.94143677 0 -1.6702881 0.68330383 -1.7765808 1.5640106c-0.09112549 0.9262543 0.6225586 1.8677063 1.5639954 1.9739838l4.2516785 0.4099884c0.075927734 0 0.13665771 0.015182495 0.1973877 0.015182495c2.2017822 0 2.429535 -3.3406067 0.12149048 -3.5379944l-4.1605835 -0.4251709c-0.06072998 0 -0.12145996 0 -0.1973877 0z" fill-rule="evenodd"/><path fill="#5bbceb" d="m491.93594 237.61334c-2.1865845 0 -2.4599 3.2191162 -0.30368042 3.6291046l4.2516785 0.4251709c0.06072998 0 0.12145996 0 0.18218994 0c2.1258545 0 2.4447327 -3.3406067 0.12149048 -3.6443024l-4.1453857 -0.40997314c-0.03036499 0 -0.075927734 0 -0.106292725 0z" fill-rule="evenodd"/><path fill="#5bbceb" d="m490.90338 247.36183c-2.095459 0 -2.4599 3.1280212 -0.21258545 3.5380096l4.1453857 0.40997314c0.13668823 0.030380249 0.2581482 0.030380249 0.37963867 0.030380249c2.156189 0 2.3991394 -3.462082 0.045532227 -3.5531921l-4.2516785 -0.4099884c-0.045532227 -0.015182495 -0.075927734 -0.015182495 -0.106292725 -0.015182495z" fill-rule="evenodd"/><path fill="#5bbceb" d="m488.5346 256.91293c-0.8503418 0 -1.5791931 0.6832886 -1.6854858 1.5639954c-0.106292725 1.0325623 0.51626587 1.8677063 1.5639954 1.973999l4.2516785 0.41000366c0.06072998 0 0.12149048 0.015167236 0.18222046 0.015167236c0.8503418 0 1.5943909 -0.6984863 1.6854858 -1.5639954c0.106292725 -0.9414673 -0.6225586 -1.882904 -1.5639954 -1.973999l-4.251709 -0.4251709c-0.06072998 0 -0.12145996 0 -0.18218994 0z" fill-rule="evenodd"/><path fill="#5bbceb" d="m487.50204 266.66144c-2.1258545 0 -2.4143372 3.3406067 -0.13665771 3.5379944l4.266876 0.40997314c0.12145996 0.03036499 0.24295044 0.045562744 0.3644104 0.045562744c2.1562195 0 2.39917 -3.4620972 -0.06072998 -3.56839l-4.1453857 -0.40997314c-0.106292725 -0.015167236 -0.19741821 -0.015167236 -0.28851318 -0.015167236z" fill-rule="evenodd"/><path fill="#5bbceb" d="m485.0877 276.21252c-2.0954895 0 -2.4599 3.234314 -0.21258545 3.5379944l4.160553 0.41000366c0.030395508 0 0.060760498 0 0.106292725 0c2.1865845 0 2.4447327 -3.112854 0.30371094 -3.5228271l-0.106292725 0l-4.1453857 -0.41000366c-0.03036499 -0.015167236 -0.075927734 -0.015167236 -0.106292725 -0.015167236z" fill-rule="evenodd"/><path fill="#5bbceb" d="m483.94885 285.8699c-2.2017517 0 -2.429535 3.3254395 -0.106292725 3.538025l4.1453857 0.40997314c0.075927734 0 0.13665771 0.015197754 0.19741821 0.015197754c0.956604 0 1.6854858 -0.69851685 1.7765808 -1.5792236c0.106292725 -0.926239 -0.6225586 -1.8676758 -1.5488281 -1.9588013l-4.266876 -0.4251709c-0.06072998 0 -0.12145996 0 -0.1973877 0z" fill-rule="evenodd"/><path fill="#212121" fill-opacity="0.195" d="m499.68008 0.05067594c0.015167236 0 0.03036499 0 0.045532227 0.015184578c-0.015167236 -0.015184578 -0.03036499 -0.015184578 -0.045532227 -0.015184578zm-0.8199768 -0.030369148c-13.742035 0 -27.954803 32.085007 -41.165375 164.11487c-13.499084 134.91493 -8.412262 197.18687 5.6030884 198.6446c0.16705322 0.015167236 0.34924316 0.03036499 0.5162964 0.03036499c13.83313 0 31.097992 -60.37387 44.414856 -193.58813c13.590179 -134.80865 5.4968567 -167.71362 -8.503357 -169.06505l0 0c10.583649 1.0477356 16.080475 32.176113 3.2191467 160.86537c-12.861328 127.33783 -27.11966 185.1607 -37.68811 185.1607c-0.09112549 0 -0.19741821 0 -0.30371094 -0.015197754c-10.583649 -1.0325317 -13.286499 -60.297943 -0.40997314 -188.9872c12.755035 -126.53306 24.204224 -157.14516 34.651184 -157.14516c0.15185547 0 0.31887817 0 0.4859314 0.015184574l0 0c-0.27334595 -0.015184574 -0.5466614 -0.030369148 -0.8199768 -0.030369148z" fill-rule="evenodd"/><path fill="#5bbceb" d="m493.33292 33.988197c-3.234314 0 -6.483795 0.5466461 -9.596649 1.6703033l-1.5488281 5.9067993c3.4165344 -1.381794 7.0304565 -2.0651016 10.629211 -2.0651016c5.527191 0 11.039185 1.6247482 15.822327 4.767956l-0.41000366 -6.119381c-4.540161 -2.7484093 -9.702942 -4.160576 -14.896057 -4.160576z" fill-rule="evenodd"/><path fill="#ffffff" d="m466.15253 328.28043c-2.3536072 0 -4.327606 1.7917786 -4.616089 4.1909485l-1.2451477 26.041534c-0.21258545 2.5965576 -1.3514404 21.076202 1.2451477 21.288788c0.015167236 0 0.015167236 0 0.03036499 0c2.5813599 0 5.1475525 -17.978546 5.360138 -20.559937l3.947998 -25.844147c0.1973877 -2.5813599 -1.6703186 -4.874237 -4.1605835 -5.0716248c-0.18222046 -0.03036499 -0.37960815 -0.045562744 -0.5618286 -0.045562744z" fill-rule="evenodd"/></g></svg>