<svg version="1.1" viewBox="0.0 0.0 960.0 720.0" fill="none" stroke="none" stroke-linecap="square" stroke-miterlimit="10" xmlns:xlink="http://www.w3.org/1999/xlink" xmlns="http://www.w3.org/2000/svg"><clipPath id="p.0"><path d="m0 0l960.0 0l0 720.0l-960.0 0l0 -720.0z" clip-rule="nonzero"/></clipPath><g clip-path="url(#p.0)"><path fill="#000000" fill-opacity="0.0" d="m0 0l960.0 0l0 720.0l-960.0 0z" fill-rule="evenodd"/><path fill="#70c8f5" d="m523.0344 0.012860747c-20.199524 0 -41.06314 6.25355 -58.966003 13.710771c-37.63199 15.786064 -73.75592 35.26615 -107.69388 58.052864c-39.624268 26.57759 -77.44995 59.104347 -97.96768 102.1321c-14.845261 31.101715 -19.950485 66.188 -24.958862 101.45416c-8.328842 58.343414 -16.934387 118.582245 -25.816635 180.52283c-3.6940308 26.093353 -7.471054 53.321198 -1.2313385 79.6221c5.7693024 24.585266 19.480072 45.94696 37.258423 64.8598c9.075943 9.546387 18.815979 18.442444 29.123291 26.577576c15.606201 8.605591 30.825012 18.055054 45.960815 27.60144c46.51425 26.95111 87.646545 55.604004 139.65338 64.87366c0 -0.09686279 -0.096832275 -0.19372559 -0.096832275 -0.19372559l0 0c0.013824463 0 11.538635 0.7609863 19.369415 0.7609863c2.504181 0 4.634796 -0.08300781 5.8799744 -0.29058838c43.124603 -6.9038086 66.28488 -17.487793 113.38022 -33.190857c11.635437 -2.4487915 23.07721 -5.5756226 34.42218 -9.449463c11.248108 -3.7770386 22.219482 -8.411865 32.803467 -13.807617c15.606201 -7.277405 30.07788 -16.64386 43.124573 -27.891968c12.949829 -11.34491 23.921204 -25.055664 32.1532 -40.28833c6.807007 -13.51709 11.4418335 -28.085632 13.613953 -43.11078c6.806946 -44.355927 -3.9707642 -93.332855 -16.450134 -138.06232c-35.5567 -127.83807 -82.458374 -247.92838 -139.19684 -359.1364c-7.9414673 -15.509357 -16.82373 -31.76582 -32.15326 -42.4605c-12.728455 -8.86842 -27.296997 -12.285736 -42.211426 -12.285736z" fill-rule="evenodd"/><path fill="#ffffff" fill-opacity="0.5283" d="m521.0698 35.500374c-18.746826 0 -38.11624 5.921505 -54.63556 12.922157c-34.698914 14.762253 -67.88977 32.914154 -99.00534 54.095978c-36.303802 24.765167 -70.822845 54.84308 -89.44513 94.550354c-13.4340515 28.749725 -17.875183 60.99977 -22.316315 93.33284c-7.277359 53.528748 -14.748413 108.454834 -22.413162 164.91666c-3.3066406 23.82434 -6.530258 48.5065 -0.7609558 72.427734c5.395767 22.316284 17.972046 41.796387 34.145493 58.910645c8.315002 8.702393 17.114258 16.740723 26.563751 24.211731c14.181183 7.8446045 27.9888 16.546997 41.699554 25.152588c42.266815 24.585266 79.71893 50.67865 126.99411 59.28418l0 -0.19366455c0 0 11.040558 0.8024292 18.124237 0.8024292c2.033783 0 3.7355347 -0.055358887 4.7593384 -0.23516846c39.236877 -6.0460205 60.335693 -15.412537 103.25275 -29.400024c10.694702 -2.268982 21.181824 -5.008362 31.489136 -8.411865c10.307251 -3.4172974 20.33783 -7.567871 30.07788 -12.396423c14.181213 -6.5164185 27.518433 -15.03894 39.430603 -25.152527c12.009033 -10.404114 22.025757 -22.786743 29.69049 -36.59436c6.336609 -12.285706 10.680847 -25.622925 12.77002 -39.236877c6.4195557 -40.565033 -3.3204956 -85.48822 -14.5686035 -126.52368c-32.33307 -117.627625 -75.26398 -228.64197 -127.46448 -331.71487c-7.3742065 -14.47171 -15.606201 -29.49683 -29.690552 -39.43057c-11.676941 -8.176655 -25.028015 -11.317265 -38.697266 -11.317265z" fill-rule="evenodd"/><path fill="#86cdf0" d="m514.2628 37.907715c-18.456238 0 -37.507446 5.8108215 -53.77774 12.686958c-34.145477 14.47171 -66.769104 32.3469 -97.40042 53.155174c-35.653534 24.391617 -69.688354 54.082138 -87.9371 93.13916c-13.143524 28.265488 -17.584656 60.142 -21.845917 92.00467c-7.0974884 52.76779 -14.47171 106.94678 -22.025772 162.63379c-3.12677 23.450836 -6.336563 47.75943 -0.664093 71.40393c5.3819275 21.928955 17.77835 41.132324 33.758102 58.14972c8.121307 8.508728 16.8237 16.450134 26.093353 23.82434c14.001312 7.7615967 27.615234 16.270325 41.132324 24.779053c41.60269 24.294739 78.58441 50.11139 125.09866 58.523254l-0.09686279 -0.08300781l0 0c0.0138549805 0 11.220428 0.7609253 18.19342 0.7609253c1.8815918 0 3.4449768 -0.055358887 4.413452 -0.19372559c38.572754 -5.9629517 59.381042 -15.232605 101.64789 -28.94342c10.500977 -2.1721191 20.808228 -4.911499 30.921814 -8.315002c10.113647 -3.3066406 20.047363 -7.3742065 29.593689 -12.202698c14.001343 -6.4334106 27.047974 -14.748413 38.863342 -24.778992c11.7323 -10.210449 21.652222 -22.399353 29.123291 -36.0271c6.239685 -12.188904 10.500977 -25.235596 12.479431 -38.76648c6.336548 -39.90097 -3.3066406 -84.24307 -14.361023 -124.72513c-30.921875 -112.895935 -73.10565 -222.40225 -125.76276 -326.88635c-7.2911987 -14.278015 -15.329529 -29.22013 -29.220154 -38.96017c-11.55249 -8.065975 -24.723694 -11.178913 -38.22693 -11.178913z" fill-rule="evenodd"/><path fill="#fff1c4" d="m514.0415 49.22498c-20.1857 0 -41.92096 9.9890785 -59.892975 20.946629c-31.585968 19.383232 -61.27649 41.616547 -88.69803 66.5754c-31.212433 28.362335 -59.85147 61.082794 -74.14331 100.70706c-10.113617 28.085632 -12.576294 58.24655 -14.845276 87.9371c-3.7770386 48.132965 -7.4572144 96.26593 -11.151245 144.38504c-1.6048889 19.867493 -3.12677 40.19153 2.3658447 59.394928c5.008362 17.681458 15.412506 32.706604 28.459167 45.76709c6.6132812 6.6132812 13.710785 12.659302 21.181824 18.151917c11.151245 5.769287 22.025787 12.105896 32.90033 18.442444c33.28769 18.055054 62.79837 37.34143 99.95996 42.834045l0 -0.09686279c0 0 5.7969666 0.22137451 11.012878 0.22137451c3.0437622 0 5.880005 -0.06915283 7.2358704 -0.3182373c31.392242 -5.6724243 48.603363 -13.613892 83.86948 -25.913452c8.882263 -2.0753174 17.681519 -4.6348267 26.287048 -7.554077c8.702393 -3.12677 17.307983 -6.723938 25.526123 -10.9713745c12.396423 -5.86615 23.935059 -13.240356 34.519043 -21.94281c10.680847 -8.979065 19.9505 -19.673767 27.227844 -31.6828c6.1567383 -10.583984 10.597839 -22.12262 13.143555 -34.03479c7.9414062 -35.653534 1.798584 -75.18094 -6.239746 -111.67844c-23.547668 -108.26114 -58.523254 -213.69986 -104.110535 -314.68362c-6.5164185 -14.568558 -13.890625 -29.510674 -27.034119 -38.489773c-8.439575 -5.6724663 -17.83374 -7.9967957 -27.57373 -7.9967957z" fill-rule="evenodd"/><path fill="#fae6ac" d="m508.16147 79.814804c-18.304077 0 -37.977844 9.020607 -54.206635 19.009682c-28.652893 17.50164 -55.604034 37.72883 -80.466034 60.41871c-28.279327 25.733627 -54.37268 55.424164 -67.32251 91.3544c-9.172821 25.42926 -11.358795 52.753937 -13.434082 79.80194l-10.113586 130.96484c-1.4250488 18.068878 -2.8362427 36.497467 2.1721497 53.902283c4.537964 16.0766 13.987457 29.69049 25.81662 41.602722c5.949188 5.9630127 12.382599 11.441772 19.189545 16.450134c10.113617 5.2020874 20.047333 10.9713745 29.884247 16.740723c30.16092 16.353271 57.015198 33.85492 90.773315 38.86328l0 -0.09680176c0 0 5.1328735 0.19366455 9.823059 0.19366455c2.8085632 0 5.4510803 -0.06915283 6.723938 -0.29052734c28.459198 -5.1882324 44.0654 -12.382568 76.121735 -23.450806c8.135193 -1.8815918 16.0766 -4.2474365 23.824402 -6.9868164c7.9414673 -2.739441 15.703064 -6.0598755 23.174072 -9.836914c11.248108 -5.395752 21.749084 -12.009033 31.295471 -19.9505c9.73999 -8.135132 18.151855 -17.875183 24.778992 -28.749695c5.5756226 -9.643188 9.546326 -20.047363 11.91217 -30.921875c7.2773438 -32.33307 1.6048584 -68.1803 -5.6724854 -101.27432c-21.375488 -98.244385 -53.141357 -194.02608 -94.56421 -285.65717c-5.9491577 -13.143524 -12.673096 -26.757446 -24.585266 -34.795753c-7.692444 -5.1605606 -16.242615 -7.291191 -25.124908 -7.291191z" fill-rule="evenodd"/><path fill="#75a644" d="m478.0974 176.35744c-26.881989 0 -53.279694 11.8845215 -77.57446 30.077911c-24.018066 19.673782 -44.8125 43.774857 -59.187378 71.016525c-4.8285217 9.075958 -8.882233 18.622314 -12.1058655 28.362366c-7.747772 33.28769 -11.34494 70.72598 -8.135162 107.04361c0.9546509 12.009033 2.8362427 24.018066 5.5894775 35.833405c4.344269 19.77063 11.91217 38.68344 22.496155 55.97757c5.4926147 9.089783 11.73233 17.59851 18.81601 25.443115c28.362335 37.092407 68.526184 45.656433 109.43713 45.656433c12.285736 0 24.640625 -0.7747803 36.760345 -1.78479c48.11914 -8.7854 100.61023 -35.07245 104.95447 -87.466675c4.441162 -56.918365 -21.845886 -105.05133 -34.03479 -157.81912c-3.12677 -12.382568 -6.806946 -24.585297 -10.791504 -36.400635c-4.053772 -11.829163 -8.315002 -23.450806 -12.852966 -34.519043c-12.382629 -26.660599 -28.459229 -51.439606 -47.662598 -73.65907l-0.09686279 -0.37355042c-11.8706665 -5.091385 -23.796661 -7.3880463 -35.612 -7.3880463z" fill-rule="evenodd"/><path fill="#212121" fill-opacity="0.2767" d="m526.2857 276.02686l0 0c0.19372559 0.38739014 0.38739014 0.7609253 0.56726074 1.134491c0.29052734 0.664093 0.7609253 1.328186 1.1483154 1.8954468c1.4111938 1.8954163 2.9192505 3.597168 4.537964 5.298889c-0.7609253 -0.096832275 -1.5218506 -0.19369507 -2.268982 -0.29052734c-1.9922485 0 -3.984558 0.096832275 -5.9630127 0.38739014c0.09686279 -0.19369507 0.19372559 -0.38739014 0.37353516 -0.56726074c0.8577881 -1.7017212 1.4250488 -3.5003052 1.7017822 -5.298889l-0.09686279 0c0.09686279 -0.8577881 0.09686279 -1.7017517 0 -2.5595398zm-96.34894 -12.479431l0 0c1.2313232 0.7609253 2.462677 1.328186 3.7770386 1.8954468c2.3796692 1.0514832 4.9945374 1.6187134 7.62323 1.6187134c0.20751953 0 0.4012146 -0.013824463 0.60876465 -0.013824463c0.9407959 -0.09686279 1.798584 -0.29055786 2.73938 -0.664093c1.2313538 -0.47039795 2.3658447 -1.134491 3.3066406 -2.0753174c1.5218811 4.1506042 5.0221863 6.710144 5.395752 11.151245c0.19369507 0.9546509 0.29055786 1.8954468 0.47039795 2.8362427c0 0.29055786 0.19369507 0.56726074 0.29055786 0.8577881c0.17984009 0.664093 0.37353516 1.3143616 0.5672302 1.8954468c0.09686279 0.37353516 0.1798706 0.65023804 0.37356567 0.9407959c0.19369507 0.5672302 0.47039795 1.2313232 0.7609253 1.8954163c0.1798706 0.1798706 0.27670288 0.47039795 0.37356567 0.65026855c0.37353516 0.7609558 0.8577881 1.4250488 1.2313232 2.1859741c0.09686279 0.08300781 0.09686279 0.1798706 0.19369507 0.37356567c2.3520203 3.5003052 5.3819275 6.6132507 8.979126 8.979095c5.008362 3.597168 10.777679 5.9630127 16.8237 6.9038086c1.9369507 0.30438232 3.8738708 0.4565735 5.824646 0.4565735c2.9192505 0 5.8523254 -0.34588623 8.7438965 -1.0238342l0 0c-0.47039795 0.9407959 -0.9407959 1.798584 -1.4250183 2.7394104c-0.27670288 0.8577881 -0.65026855 1.7017212 -0.9407959 2.656372c-0.664093 1.9784241 -0.8439636 4.1505737 -0.664093 6.336548c-0.8439636 -0.664093 -1.798584 -1.134491 -2.9331055 -1.328186c-0.16601562 -0.027679443 -0.33203125 -0.041503906 -0.51190186 -0.041503906c-0.42889404 0 -0.885437 0.06918335 -1.2728271 0.1383667c-0.5810852 0.096832275 -1.148346 0.27670288 -1.7155762 0.47039795c-2.3520203 0.9407959 -4.3442993 2.3658142 -6.6132812 3.5003052c0.37356567 -1.992279 0.29055786 -3.9707031 -0.37353516 -5.7693176c0 -0.19369507 -0.19369507 -0.29052734 -0.19369507 -0.37353516c-0.37356567 -0.664093 -0.7609558 -1.134491 -1.2313538 -1.6187439c-0.27670288 -0.27670288 -0.664093 -0.5672302 -0.9407959 -0.8439331c-3.0299377 -1.798584 -6.336548 -1.7017517 -9.366486 -2.933075c-1.0376587 -0.37356567 -1.9784546 -0.9408264 -2.8362427 -1.6049194c-1.134491 -1.0376282 -2.462677 -1.8954163 -3.7770386 -2.656372l-0.7609253 -0.47039795c-1.328186 -0.664093 -2.6425476 -1.2313232 -4.0675964 -1.7017212l-1.0376282 -0.27670288c-1.4111938 -0.38739014 -2.73938 -0.66412354 -4.1644287 -0.8577881c-0.37353516 0 -0.664093 0 -1.0376587 -0.09686279c-1.2313232 -0.1798706 -2.5456848 -0.1798706 -3.777008 -0.1798706l-1.5218811 0c-1.134491 0 -2.4488525 0.1798706 -3.5833435 0.2767334l0.096832275 0c-2.1859741 0.38735962 -4.3580933 0.8577881 -6.530243 1.5218811c1.2313232 -2.9331055 1.798584 -6.156708 1.5080261 -9.269653c0 -1.2313538 -0.17984009 -2.462677 -0.37353516 -3.597168c-0.47039795 -2.462677 -1.0376587 -4.9115295 -1.8954468 -7.2773743c-0.74710083 -2.3658447 -1.7017212 -4.731659 -2.5456848 -7.000641l-3.597168 -8.60556zm-14.181183 52.006836l0 0c-1.134491 1.7017517 -2.1721191 3.5003357 -3.0299072 5.3957825c-0.56726074 -0.47039795 -1.1345215 -0.9546509 -1.7017517 -1.4250488l0.47039795 -0.37353516c1.134491 -1.1345215 2.3658447 -2.1721497 3.5003357 -3.1268005c0.29052734 -0.17984009 0.5672302 -0.27670288 0.7609253 -0.47039795zm85.944824 8.702393l0.4842224 0.37356567c1.798584 1.4250488 3.5833435 2.8362427 5.285095 4.454956c3.5003052 3.403473 6.239685 7.8446045 9.463318 11.718506c-1.8954468 0.9407959 -3.5003052 2.1721191 -5.008362 3.597168c-0.56726074 0.664093 -1.2313538 1.3143616 -1.7017517 1.8815918c-1.0514832 -3.3066406 -2.1859741 -6.5164185 -3.5003357 -9.740051c-1.7017212 -4.1505737 -3.403473 -8.21814 -5.0221863 -12.285736zm-93.31903 45.296753c-0.47039795 1.314331 -1.134491 2.73938 -1.7017212 3.9707336c-0.9546509 1.9784241 -1.9923096 3.8738708 -2.9331055 5.769287c-0.19369507 -0.19366455 -0.37353516 -0.38735962 -0.664093 -0.5672302c-3.0299072 -1.798584 -6.336548 -1.798584 -9.366486 -2.933075c-0.8439331 -0.38739014 -1.7017212 -0.8577881 -2.4488525 -1.4250488c3.0161133 -0.47039795 5.949188 -1.134491 8.785431 -1.9784546c1.134491 -0.38735962 2.3658142 -0.7609253 3.5003052 -1.2313232l4.8285217 -1.6048889zm85.294556 7.471039c-0.95462036 2.7394104 -1.4250488 5.5756226 -0.7609558 7.8446045c0.2767334 1.2313538 1.0376587 2.2690125 2.0753174 3.0299377c0.8577881 0.65026855 1.8954163 1.134491 2.933075 1.6048889c1.0376282 0.37356567 2.0752869 0.664093 3.0299377 1.0376587c1.0376282 0.37353516 1.9784241 0.7609253 3.0299072 1.2313232c0.9407959 0.47039795 1.7847595 1.1345215 2.6425476 1.8954468c1.0376587 1.134491 2.1721497 2.1721497 3.5003357 3.0160828l0.74710083 0.47039795c1.2313538 0.8577881 2.462677 1.5218811 3.790863 2.1859741c0.37353516 0.08303833 0.66412354 0.2767334 1.0376587 0.37356567c1.328186 0.56726074 2.642517 0.9407959 4.067566 1.328186c0.2767334 0.08300781 0.6640625 0.08300781 0.9407959 0.1798706c1.2313232 0.29052734 2.5595093 0.4842224 3.7908936 0.5672302l0.47039795 0c-5.2020874 0.56726074 -10.307312 1.7017517 -15.135834 3.403473l-13.420227 4.2612915c-1.5218811 0.47039795 -2.933075 1.0376282 -4.261261 1.6048889c-1.3143616 0.664093 -2.6425476 1.4250183 -3.7770386 2.268982c-0.5672302 0.38739014 -1.134491 0.8577881 -1.6048889 1.328186c-0.8577881 0.8439636 -1.4250488 1.9784546 -1.7017517 3.2097778c-0.19369507 0.664093 -0.19369507 1.2313538 0 1.8954468c0 0.56726074 0.1798706 1.134491 0.27670288 1.7017517c0.7609558 2.462677 2.0753174 4.537964 2.9331055 6.806946c-1.1206665 -0.22137451 -2.2136536 -0.3597107 -3.2374573 -0.3597107c-1.57724 0 -3.0022583 0.3182068 -4.1367493 1.1206665c-0.56726074 0.37353516 -0.9408264 0.8439331 -1.328186 1.314331c-0.37356567 0.48425293 -0.664093 0.9546509 -0.8439636 1.5218811c-1.6187439 3.0161133 -1.798584 6.2397156 -3.6940308 8.979126c-0.27670288 0.47039795 -0.664093 0.8577881 -1.0376282 1.328186c-1.134491 1.0376282 -2.0753174 2.268982 -2.9331055 3.5003052c-0.19369507 0.27670288 -0.37353516 0.47039795 -0.47039795 0.74713135c-0.7609253 1.2313232 -1.5080261 2.5595093 -1.992279 3.8876953c-0.17984009 0.27670288 -0.27670288 0.65026855 -0.47039795 1.0376587c-0.47039795 1.3143616 -0.8439331 2.6425476 -1.134491 4.067566c-0.096832275 0.27670288 -0.096832275 0.65026855 -0.1798706 0.9407959c-0.19366455 1.328186 -0.38735962 2.5456848 -0.4842224 3.8739014c0 0.47039795 -0.08300781 0.9407959 -0.08300781 1.4250183l0 3.5003357c0.08300781 2.268982 0.37356567 4.537964 0.9407959 6.7101135c-3.0575867 -1.6602478 -6.46109 -2.2966614 -10.002899 -2.2966614c-4.551819 0 -9.311157 1.0653076 -13.821472 2.3934937c-1.134491 0.47039795 -2.3658142 0.8439636 -3.5003052 1.134491l-8.896118 2.8362427c0.7609558 -1.134491 1.5218811 -2.268982 2.0891418 -3.5003357c1.134491 -2.1721191 1.8815918 -4.537964 2.1721497 -7.000641c0.17984009 -1.328186 0.096832275 -2.6425476 -0.29055786 -3.8738708c-0.37353516 -1.328186 -0.9407959 -2.4627075 -1.798584 -3.5003357c1.4250488 -0.47039795 2.7532349 -1.0376587 3.9707336 -1.7017517c2.3658447 -1.328186 4.6348267 -2.73938 7.5679016 -2.8362122c0.95462036 0 1.8954468 -0.09686279 2.8362427 -0.29055786l0.8577881 -0.1798706c0.664093 -0.096832275 1.314331 -0.19369507 1.9784241 -0.38735962l0.9546509 -0.2767334c0.65026855 -0.19369507 1.3143616 -0.37353516 1.8815918 -0.664093l0.7609558 -0.27670288c0.7609253 -0.38739014 1.5080261 -0.664093 2.268982 -1.0514832l0.37353516 -0.27670288c3.6940308 -2.0891113 7.0006714 -4.8285217 9.740051 -8.135132c3.8877258 -4.7316895 6.723938 -10.210449 8.135162 -16.173462c2.642517 -12.092041 -0.09686279 -24.765167 -7.5679016 -34.698914l0 0l0.19369507 0.09686279c-0.37356567 -0.47039795 -0.7609558 -0.9407959 -1.1345215 -1.4250488c-0.37353516 -0.47039795 -0.85775757 -1.0376282 -1.328186 -1.5080261c-0.096832275 -0.09686279 -0.17984009 -0.29055786 -0.37353516 -0.47039795l0 -0.38739014c0.47039795 0.38739014 0.9407959 0.664093 1.4250183 0.95462036c0.65026855 0.37356567 1.4112244 0.74710083 2.0753174 1.0376587c0.27670288 0.19369507 0.5672302 0.19369507 0.8439331 0.29052734c0.56726074 0.27670288 1.134491 0.37356567 1.7017517 0.56726074c0.19369507 0 0.4842224 0.08300781 0.7609253 0.08300781c0.44274902 0.110687256 0.913147 0.16601562 1.4112244 0.16601562c0.3458557 0 0.69174194 -0.027679443 1.0514832 -0.06918335c2.642517 -0.37353516 5.202057 -1.6048889 7.2773438 -3.5003052c0.37356567 -0.27670288 0.8577881 -0.664093 1.2313538 -1.0376587c1.5080261 -1.328186 3.0299072 -2.73938 4.4411316 -4.067566c0.664093 -0.47039795 1.2313232 -1.0376587 1.798584 -1.4111938c1.7017212 -1.328186 3.5003052 -2.4627075 5.395752 -3.4035034zm-12.1058655 117.25406l0 0c1.6048889 1.2175293 3.30661 2.3520203 5.1052246 3.4035034c-0.47042847 0.5672302 -0.9546509 1.0376282 -1.4250488 1.6048889c-1.134491 -1.4250488 -2.268982 -2.73938 -3.2097778 -4.261261c-0.19369507 -0.1798706 -0.29055786 -0.56726074 -0.47039795 -0.74713135zm53.321167 11.621643c0.29058838 0.19369507 0.56726074 0.29055786 0.8577881 0.38739014c2.9331055 1.5080566 5.6724854 3.4035034 8.508728 5.0083923c-0.2767334 0.19369507 -0.47039795 0.47039795 -0.66412354 0.664093c-2.5456543 3.6801758 -2.268982 8.121338 -5.298889 11.441772c-0.08300781 -1.798584 -0.2767334 -3.5003052 -0.65026855 -5.298889c-0.38739014 -2.4627075 -0.9546509 -4.91156 -1.5218506 -7.2773743c-0.47039795 -1.6187439 -0.84399414 -3.2236328 -1.2313843 -4.9253845zm-4.524109 -324.60352c-2.199829 0 -4.3719482 0.48423767 -6.350403 1.3973694c-0.74713135 0.2905426 -1.4111938 0.664093 -2.1721191 0.9546356c-2.0753174 0.9407959 -4.2474365 2.0752869 -6.4196167 2.8362274c-6.336548 2.2689972 -13.627747 2.0753021 -19.673767 4.731674c-2.0752869 0.84394836 -3.9707336 2.0752869 -5.5756226 3.680191c-6.806946 6.7101135 -6.6271057 17.97203 -5.86615 27.615234l1.0376282 14.08432c0.09686279 1.134491 0.29055786 2.3658295 0.47042847 3.6940155c-5.3819275 1.1345062 -10.584015 3.016098 -15.509369 5.5756226l-12.659302 6.142868l-0.8577881 0.47039795c5.5756226 -6.889969 14.278015 -11.248077 16.270294 -20.227188c0.56726074 -2.268982 0.56726074 -4.6348114 0.1798706 -7.000656c-0.1798706 -1.134491 -0.47039795 -2.268982 -0.8439636 -3.403473c-1.8954163 -5.67247 -5.672455 -11.151245 -9.366486 -15.979767l-8.411835 -11.248077c-2.94693 -3.8323822 -7.0559998 -7.9967957 -10.999054 -7.9967957c-0.23519897 0 -0.48425293 0.013824463 -0.73327637 0.05532837c-0.65026855 0.08302307 -1.2174988 0.27671814 -1.7847595 0.5672455c-1.4250183 0.8439636 -2.7532349 1.7847595 -3.984558 3.016098c-1.8815918 1.8954315 -3.5833435 3.9707336 -6.419586 4.731674c-0.95462036 0.27670288 -1.798584 0.664093 -2.656372 1.0376434c-0.27670288 0.096847534 -0.5672302 0.2905426 -0.8439331 0.38739014c-0.56726074 0.27670288 -1.134491 0.6502533 -1.7986145 0.9407959l-0.7609253 0.5672455c-0.56726074 0.27670288 -1.2313538 0.76094055 -1.7017517 1.134491l-0.664093 0.47039795c-0.5672302 0.56726074 -1.134491 1.0376587 -1.784729 1.6049042c-0.09686279 0.19369507 -0.19369507 0.19369507 -0.29055786 0.38739014c-2.8362427 2.73938 -5.1052246 5.949173 -6.7101135 9.449493c-0.664093 -0.37355042 -1.328186 -0.84394836 -1.992279 -1.134491c-1.8815918 -1.134491 -3.8738708 -2.1721344 -6.0460205 -2.933075c-0.37356567 -0.19369507 -0.7609558 -0.27671814 -1.134491 -0.4704132c-0.664093 -0.19369507 -1.328186 -0.47039795 -1.992279 -0.664093c-1.798584 -0.47039795 -3.6802063 -0.9407959 -5.5756226 -1.134491l-0.664093 0c-1.7017517 -0.27670288 -3.403473 -0.37355042 -5.1052246 -0.37355042l-0.19369507 0c-3.7770386 0.096847534 -7.554077 0.5672455 -11.151245 1.6048889c-7.2773438 1.8954468 -13.710754 5.866165 -18.719147 11.34494c-0.664093 0.76094055 -1.328186 1.5080414 -1.8954163 2.3658295c-0.37356567 0.664093 -0.8439636 1.328186 -1.1345215 2.0753021c-0.19366455 0.19369507 -0.27670288 0.48423767 -0.37353516 0.76094055c-0.19369507 0.5672455 -0.47039795 1.0376434 -0.56726074 1.6048889c-0.096832275 0.2905426 -0.19369507 0.5672455 -0.29052734 0.76094055c-0.09686279 0.84394836 -0.1798706 1.7017365 -0.1798706 2.462677c0.27670288 3.016098 1.4111938 5.7693176 3.3066406 8.038315c1.798584 2.5456848 4.067566 4.9115143 5.6724854 7.4572144c2.5456848 3.6940155 4.067566 8.135147 6.0460205 12.202728c1.8954163 4.067581 4.261261 7.844589 8.231995 10.307297c0.9407959 0.47039795 1.8954163 0.9407959 2.933075 1.328186c-3.403473 4.537964 -5.7693176 9.740021 -7.0006714 15.218811c-0.47039795 1.8954163 -0.7609253 3.790863 -0.8577881 5.672455l0 0.8577881c-0.08300781 1.6048889 -0.08300781 3.3066406 0 4.9115295l0 0.19369507c0.29055786 3.7770386 1.134491 7.4710693 2.3658447 11.054413c0.95462036 2.5595093 2.0891418 5.0221863 3.5003357 7.388031c-1.8816223 0.1798706 -3.7770386 0.65026855 -5.5756226 1.134491c-7.1805115 1.8815918 -13.710785 5.8523254 -18.719147 11.34494c-0.664093 0.74710083 -1.2313538 1.5080566 -1.798584 2.3658447c-0.47039795 0.65023804 -0.8577881 1.314331 -1.2313538 2.0752869c-0.096832275 0.29052734 -0.19369507 0.47039795 -0.29052734 0.7609253c-0.27670288 0.56726074 -0.47039795 1.134491 -0.65026855 1.7017517c-0.096832275 0.1798706 -0.096832275 0.47039795 -0.19369507 0.664093c-0.19369507 0.8439636 -0.29052734 1.7017517 -0.29052734 2.4488525c0.19369507 5.9630127 5.6862793 10.404114 9.089783 15.509338c1.2174988 1.8954468 2.3519897 3.8739014 3.2097778 5.9630127c1.8954468 4.2474365 3.597168 8.60556 6.336548 12.188904c-1.2313232 0 -2.3658142 0.19369507 -3.597168 0.29052734l0.19369507 0c-6.142853 0.8439636 -11.91217 3.1129456 -17.017395 6.6132812c-10.127441 7.2911987 -16.46399 18.539276 -17.59848 30.921875l0 1.6048889l0 1.992279c0 1.6048889 0.096832275 3.2097778 0.38739014 4.8285217c0.17984009 1.0376282 0.37353516 1.8815918 0.664093 2.8362122c0.47039795 1.7847595 1.314331 3.5833435 2.448822 5.1052246c0.56726074 0.65026855 1.2313538 1.3143616 1.8954468 1.8815918c1.798584 1.328186 3.8738708 2.0891418 6.0460205 2.2690125c1.8954468 0.29052734 3.8600464 0.3182068 5.824646 0.3182068c0.38739014 0 0.7747803 -0.0138549805 1.1759949 -0.0138549805c1.5634155 0 3.1268005 0.027679443 4.6348267 0.1798706c1.134491 0.08300781 2.268982 0.27670288 3.4035034 0.47039795c2.1721191 0.47039795 4.441101 1.0376587 6.6132507 1.7017517c3.5141602 0.9684448 7.014496 1.8539124 10.528656 1.8539124c2.006134 0 4.0122375 -0.29052734 6.032196 -1.0099792c1.134491 -0.37353516 2.1721191 -0.9407959 3.1129456 -1.5080261c3.9707031 -2.4627075 7.000641 -6.3365784 9.366486 -10.77771c0.5672302 -1.134491 1.134491 -2.268982 1.6048889 -3.403473c1.0376282 -2.268982 1.9784546 -4.6348267 2.8362427 -6.9038086c1.2313232 -3.12677 2.3658142 -6.156708 3.597168 -9.269653c2.1721191 4.3442993 5.8523254 8.0383 10.113586 11.248108c-1.328186 4.454956 -0.9407959 9.463318 0.19369507 14.374847c0.9407959 3.5971985 2.1721497 7.1943665 3.5833435 10.597839l5.1052246 13.143524c0.096832275 0.27670288 0.29052734 0.56726074 0.38739014 0.8439636c-6.4334106 -6.0460205 -10.127441 -15.121979 -18.912842 -17.77835c-1.7155762 -0.52575684 -3.4588318 -0.7747803 -5.215912 -0.7747803c-7.5263977 0 -15.2464905 4.413452 -21.928925 8.633209l-11.815338 7.554077c-4.9115295 3.12677 -10.500977 7.9414673 -8.411865 12.866821c1.798584 4.344269 5.8523254 6.4334106 6.9038086 10.9713745c0.27670288 0.9407959 0.47039795 1.8815918 0.8439636 2.8362427c0.096832275 0.17984009 0.19369507 0.47039795 0.29052734 0.74710083c0.27670288 0.664093 0.56726074 1.2313538 0.8439636 1.8954468c0.096832275 0.29052734 0.29052734 0.5672302 0.37356567 0.7609253c0.38739014 0.664093 0.664093 1.2313538 1.0514832 1.798584l0.47039795 0.74710083c0.47039795 0.664093 0.9407959 1.328186 1.5080261 1.8954468l0.19369507 0.37356567c2.5457153 2.933075 5.5756226 5.492584 8.979095 7.3742065c-0.19369507 0.29052734 -0.37353516 0.5672302 -0.5672302 0.7609253c-3.5003357 4.537964 -5.86615 9.836884 -7.083679 15.412506c0 0.19369507 0 0.47039795 -0.096832275 0.664093c-0.38739014 1.6048889 -0.56726074 3.3066406 -0.7609558 5.0083923l0 0.19369507c-0.27670288 3.7770386 0 7.567871 0.664093 11.248108c1.328186 7.3742065 4.7316895 14.181152 9.836914 19.576904c0.74710083 0.7609253 1.5080261 1.4111938 2.268982 2.0753174c0.5672302 0.47039795 1.2313232 0.95458984 1.9784241 1.328186c0.19369507 0.19366455 0.47039795 0.27667236 0.664093 0.47039795c0.56726074 0.19366455 1.1345215 0.47039795 1.6049194 0.6640625c0.29052734 0.09686279 0.47039795 0.19372559 0.7609253 0.2767334c0.7609558 0.29052734 1.6048889 0.38739014 2.3658447 0.4841919c0.74710083 0 1.5080261 0 2.1721191 -0.19366455c5.0083923 -0.7609253 9.269653 -5.008362 14.001312 -7.664734c7.844635 -4.3442993 18.055054 -4.7178345 23.533844 -12.382629c0.5672302 -0.9407959 1.134491 -1.798584 1.5218811 -2.73938c0.664093 0.56726074 1.4111938 1.1345215 2.1721191 1.7017822c1.5080566 1.1344604 3.0299377 2.1721191 4.7316895 3.112915c2.4488525 1.328186 5.1052246 2.4627075 7.8446045 3.3204956c1.798584 0.5671997 3.6801758 1.0375977 5.5756226 1.314331l0.7609253 0c1.6049194 0.19366455 3.3066406 0.29052734 5.0083923 0.38739014l0.096832275 0c3.8739014 0 7.6509094 -0.48425293 11.248108 -1.5219116c2.656372 -0.6640625 5.202057 -1.6048584 7.5679016 -2.8361816c0.096832275 1.8953857 0.37353516 3.7908325 0.7609253 5.5894165c1.2174988 7.3742065 4.7178345 14.181213 9.823059 19.56311c0.664093 0.7609253 1.4250488 1.4250488 2.1859741 2.0891113c0.65026855 0.47039795 1.3143616 0.9407959 1.9784546 1.3143921c0.19369507 0.19366455 0.47039795 0.29052734 0.7609253 0.38739014c0.47039795 0.37353516 1.0376587 0.5671997 1.6048889 0.7470703c0.19369507 0.09686279 0.47042847 0.19372559 0.664093 0.29052734c0.8439636 0.2767334 1.6049194 0.3735962 2.4627075 0.47039795c1.4111938 0 2.91922 -0.19366455 4.2474365 -0.6640625c1.4250183 -0.56726074 2.73938 -1.2313232 3.9707031 -1.9784546c0.664093 -0.48425293 1.328186 -0.8577881 1.992279 -1.328186c1.9784546 -1.328186 3.8739014 -2.73938 5.949188 -3.8739014c5.9630127 -3.3066406 13.240356 -4.3580933 18.912842 -8.038269l0 0c-0.09686279 1.2313232 -0.09686279 2.3658447 0 3.597168c0 -0.09686279 0 -0.09686279 0 -0.19372559c0.38739014 6.1428833 2.1721191 12.105896 5.2020874 17.487854c6.4334106 10.597778 17.114197 17.875183 29.413818 19.95044l-0.29058838 0c0.66412354 0.09686279 1.2313843 0.09686279 1.8954468 0.19372559c0.66412354 0.09686279 1.328186 0.19366455 1.9784546 0.19366455c0.8024292 0.09686279 1.6187134 0.1383667 2.4349976 0.1383667c0.80249023 0 1.6325684 -0.041503906 2.4903564 -0.1383667c1.8815918 -0.09680176 3.7770386 -0.47039795 5.5756226 -1.1344604c1.7017822 -0.66412354 3.3066406 -1.6187134 4.537964 -3.0299683c1.1345215 -1.328186 1.9923096 -2.8361816 2.3658447 -4.537964c0.2767334 -0.9407959 0.47039795 -1.8954468 0.66412354 -2.8362427c0.09680176 -0.9407959 0.27667236 -1.9922485 0.37353516 -3.0299072c0.19366455 -2.3658447 0.29052734 -4.7316895 0.66412354 -7.0006714c0.19366455 -1.1344604 0.47039795 -2.268982 0.7609253 -3.3066406c1.2313232 -4.3442383 3.2097778 -8.60553 4.2474365 -12.949829c0.95458984 -3.2235718 1.0376587 -6.627075 0.19366455 -9.933716c-1.0376587 -3.4035034 -2.9330444 -6.4334106 -5.4926147 -8.7854c-4.2474365 -4.2612915 -10.210449 -7.2911987 -15.689209 -9.836914l-8.979065 -4.2612305c0.37353516 -0.1798706 0.8439331 -0.2767334 1.1344604 -0.47039795c1.1345215 -0.47039795 2.1721191 -1.1345215 3.112976 -1.7986145c1.9922485 -1.314331 3.8738403 -2.933075 5.5755615 -4.731659c0.8577881 -0.8439636 1.7017822 -1.7847595 2.5595703 -2.73938c1.328186 -1.5080566 2.5595093 -3.0161133 3.6940308 -4.6348267l0.9407959 -1.134491l8.508667 -11.34494c1.798584 -2.268982 3.3066406 -4.9115295 4.3442993 -7.747772c0.38739014 -1.2313232 0.56726074 -2.5595093 0.48425293 -3.8738708c-0.09686279 -1.2313232 -0.66412354 -2.3658447 -1.5219116 -3.320465c-0.37353516 -0.37356567 -0.7470703 -0.8439636 -1.2313232 -1.134491c-0.65026855 -0.56726074 -1.314331 -1.0376587 -1.9784546 -1.4111938c-2.656372 -1.5218811 -5.395752 -2.5595398 -7.097473 -5.2989197c-0.3735962 -0.47039795 -0.66412354 -0.9407959 -1.0376587 -1.4111938c-0.3735962 -0.48425293 -0.66412354 -0.8577881 -1.0376587 -1.328186c-0.7609253 -0.8577881 -1.5080566 -1.6049194 -2.3658447 -2.3658447c-0.7609253 -0.56726074 -1.5080566 -1.2313538 -2.268982 -1.7017517c-1.9923096 -1.4250183 -4.067566 -2.5595093 -6.336548 -3.403473c-1.2313232 -0.47039795 -2.6425781 -0.9407959 -3.9707642 -1.328186c-2.3657837 -0.56726074 -4.7316284 -0.9407959 -7.180481 -1.0376587c0.37353516 -0.47039795 0.7470703 -0.8439331 1.0376587 -1.328186c0.47039795 -0.65023804 0.8439331 -1.314331 1.2313232 -2.0752869c0.1798706 -0.19369507 0.27667236 -0.47039795 0.37353516 -0.7609253c0.2767334 -0.47039795 0.47039795 -1.0376587 0.56726074 -1.6049194c0.09686279 -0.27670288 0.19366455 -0.5672302 0.2767334 -0.7609253c0.19366455 -0.8439636 0.29052734 -1.6048889 0.29052734 -2.4488525c-0.09686279 -3.403473 -1.9923096 -6.4334106 -4.1644287 -9.269623c-0.66412354 -0.8577881 -1.314331 -1.7017517 -1.9784546 -2.5595398c-0.9546509 -1.134491 -1.8954468 -2.4488525 -2.7532349 -3.6801758c-4.911499 -7.5679016 -6.0460205 -17.77835 -13.987488 -22.68988c-2.5595093 -1.5218811 -5.395752 -2.3658447 -8.315002 -2.656372c6.1428833 -0.1798706 12.092041 -1.8954468 17.390991 -4.7316895c10.777649 -6.2397156 18.345581 -16.726837 20.711426 -28.929565c0 0.096832275 0 0.19369507 0 0.29052734c0.09686279 -0.664093 0.09686279 -1.328186 0.19366455 -1.8954163c0.08300781 -0.664093 0.1798706 -1.328186 0.2767334 -1.9923096c0.09686279 -1.6048889 0.09686279 -3.30661 0 -4.911499c-0.09686279 -0.9408264 -0.19372559 -1.8954468 -0.37353516 -2.8362427c-0.38739014 -2.8362427 -1.6049194 -5.395752 -3.597229 -7.3742065c-1.0375977 -1.0376587 -2.3657837 -1.798584 -3.6939697 -2.268982c-1.4112549 -0.56726074 -2.9192505 -0.8577881 -4.3442993 -1.0376587c-0.7609253 -0.19369507 -1.6049194 -0.29052734 -2.3658447 -0.38739014c-2.3658447 -0.1798706 -4.7316895 -0.37356567 -7.0006714 -0.8439636c-0.9407959 -0.19369507 -1.9784546 -0.47039795 -2.9192505 -0.7609253l0.1798706 0c1.1345215 -0.7609558 2.3658447 -1.5080566 3.5003662 -2.268982c0.9407959 -0.664093 1.8953857 -1.2313538 2.8361816 -1.8954468l10.597839 -7.554077c0.56726074 -0.38735962 1.1345215 -0.8577881 1.7017822 -1.2313232c3.7769775 -3.0299377 7.3742065 -7.2911987 5.5756226 -11.538635c-1.4250488 -3.3066406 -3.9707642 -5.395752 -5.5756226 -8.135132l-0.19372559 -0.2767334c0.8439331 -0.096832275 1.7017212 -0.096832275 2.5595093 -0.29052734c1.2175293 -0.19369507 2.4488525 -0.47039795 3.6802368 -0.7609558c1.2313232 -0.37353516 2.3657837 -0.74710083 3.5003052 -1.134491c2.3658447 -0.74710083 4.7316895 -1.7017212 7.0006714 -2.642517l13.046631 -5.2989197c5.29895 -2.268982 11.635498 -6.0460205 10.501038 -11.151245c-0.09686279 -0.56726074 -0.29058838 -1.134491 -0.48425293 -1.7017517c-1.4111938 -3.6940002 -4.2474365 -6.2397156 -4.441162 -10.404114c-0.09680176 -3.4035034 -0.8439331 -6.710144 -2.268982 -9.836914c-0.9407959 -1.8954163 -1.9784546 -3.6801758 -3.3066406 -5.2989197c-3.7908325 -5.008362 -8.702393 -8.882248 -14.47168 -11.52478c-0.8439331 -0.38739014 -1.7017212 -0.76094055 -2.5457153 -1.0514832c-1.798584 -0.6502533 -3.6940308 -1.2174988 -5.4926147 -1.6048889c-1.8815918 -0.47039795 -3.7770386 -0.664093 -5.6724243 -0.8439636l-0.7609863 0c-0.8024292 -0.05532837 -1.6187134 -0.06916809 -2.4626465 -0.06916809c-0.8439331 0 -1.6879272 0.013839722 -2.5457153 0.06916809l-0.1798706 0c-3.7908325 0.27671814 -7.4710083 1.1345062 -11.068176 2.3658447c-7.097534 2.3519897 -13.337219 6.806946 -17.972046 12.659271c-0.56726074 0.7609558 -1.1345215 1.6187439 -1.6049194 2.4627075c-0.47039795 0.664093 -0.7609253 1.4250183 -1.1344604 2.1721191c-0.09686279 0.29055786 -0.19372559 0.47039795 -0.2767334 0.7609558c-0.19372559 0.5672302 -0.29052734 1.134491 -0.48425293 1.7017212c0 0.29055786 -0.08300781 0.47039795 -0.08300781 0.7609558c-0.19366455 0.8439636 -0.19366455 1.6048889 -0.09686279 2.4488525c0 0.096832275 0 0.19369507 0 0.38739014c-1.8953857 -4.5379944 -6.806946 -7.9414673 -10.210388 -11.829193c-3.2236328 -3.6801758 -5.4926453 -8.315002 -8.232025 -12.285721l0 0c1.7294006 0.38739014 3.5280151 0.59490967 5.2850647 0.59490967c0.3597412 0 0.70562744 -0.013824463 1.0515137 -0.027664185c5.395752 -0.2905426 10.583984 -1.8954315 15.135803 -4.731674c4.053711 -2.462677 7.554077 -5.5756226 10.487122 -9.269638c1.2313843 -1.5080414 2.268982 -3.016098 3.3066406 -4.7178345c0.9546509 -1.6187286 1.798584 -3.4034882 2.4627075 -5.1052246c0.09680176 -0.2905426 0.19366455 -0.5672455 0.29052734 -0.76094055c0.56726074 -1.6048889 1.1344604 -3.12677 1.5080566 -4.731659l0 -0.096847534c0.8439331 -3.7770386 1.2313232 -7.554077 1.1344604 -11.34494c0 -7.471054 -2.268982 -14.748413 -6.4334106 -20.891281c-0.5671997 -0.8577881 -1.1344604 -1.7017517 -1.8953857 -2.3658447c-0.47045898 -0.664093 -1.0376587 -1.2313385 -1.7017822 -1.7017365l-0.56726074 -0.5672455c-0.47039795 -0.38739014 -0.9407959 -0.664093 -1.5079956 -0.9546356c-0.19372559 -0.17985535 -0.47039795 -0.27670288 -0.66412354 -0.37355042c-0.7470703 -0.37355042 -1.5080566 -0.664093 -2.3658447 -0.84394836c-0.7470703 -0.12452698 -1.5080566 -0.1798706 -2.255127 -0.1798706z" fill-rule="evenodd"/><path fill="#75a644" d="m410.9686 406.21692c-8.979126 0 -18.774506 1.0514832 -24.433136 7.4987183c-6.2397156 7.083679 -4.344269 17.114258 -6.9038086 25.719788c-1.7017517 5.8523254 -5.5756226 11.815338 -3.9707336 17.487823c0.9407959 3.5003357 3.9707336 6.2397156 7.2773743 8.231995c5.7278137 3.5141602 12.686951 5.257416 19.77063 5.257416c8.121307 0 16.394806 -2.282837 23.160278 -6.779297c12.673096 -8.5086975 20.240997 -24.488464 15.703033 -37.535156c-1.5218811 -4.441101 0.9407959 -8.411835 0.09686279 -13.046661c-0.7609558 -5.202057 -8.0383 -6.4334106 -13.807617 -6.530243l-14.195007 -0.2767334c-0.8854675 -0.027648926 -1.7847595 -0.027648926 -2.697876 -0.027648926z" fill-rule="evenodd"/><path fill="#759646" d="m411.92322 406.23074c-9.283478 0 -19.53543 0.83010864 -25.387756 7.484894c-6.2397156 7.083679 -4.344269 17.017395 -6.9038086 25.719788c-1.7017517 5.8523254 -5.5756226 11.815338 -3.9707336 17.487823c0.8439636 2.5456848 2.5457153 4.9115295 4.8285217 6.530243c-0.7609253 -3.320465 1.4111938 -6.6271057 2.3519897 -9.933716c1.4250488 -5.1052246 0.38739014 -10.971405 3.9707336 -15.135834c3.361969 -3.790863 9.158966 -4.3580933 14.457886 -4.3580933c0.51190186 0 1.0238037 0 1.5218811 0.013824463l8.231995 0.19369507c3.403473 0 7.664734 0.74710083 8.135162 3.7770386c0.47039795 2.73938 -1.0376587 5.008362 -0.09686279 7.664734c2.6425476 7.65094 -1.7017517 17.017426 -9.172791 21.928955c-1.798584 1.134491 -3.6801758 2.0891113 -5.6724854 2.73938c7.6647644 -0.1798706 15.218842 -2.5456848 21.652252 -6.8069763c12.673096 -8.411835 20.240997 -24.391602 15.703033 -37.535126c-1.5218811 -4.4411316 0.8439636 -8.315002 0.1798706 -12.949829c-0.8439636 -5.202057 -8.121307 -6.4334106 -13.890625 -6.530243l-14.098175 -0.2767334c-0.60873413 -0.013824463 -1.2174988 -0.013824463 -1.8400879 -0.013824463z" fill-rule="evenodd"/><path fill="#75a644" d="m483.90823 493.79428c-3.5003357 0 -6.820801 1.9092712 -9.629364 4.261261c-11.054413 9.366486 -16.159637 26.480774 -12.285736 41.229187c3.9568787 14.693054 16.64383 26.854248 30.479126 26.854248c0.055358887 0 0.09686279 0 0.15219116 0c4.6348267 0 7.5679016 3.597229 12.299561 4.3442993c0.30438232 0.055358887 0.60876465 0.08300781 0.913147 0.08300781c4.7039795 0 7.8999634 -6.0736694 9.670837 -11.13739l4.7316895 -13.337219c3.2097778 -9.075928 6.336548 -19.9505 1.6049194 -28.182495c-4.7178345 -8.135132 -14.748444 -9.546326 -22.12265 -14.748413c-5.008362 -3.403473 -9.366486 -9.075928 -15.315674 -9.366486c-0.16601562 0 -0.33203125 0 -0.49804688 0z" fill-rule="evenodd"/><path fill="#759646" d="m483.70068 493.86346c-3.4311523 0 -6.6686096 1.8954163 -9.421814 4.2889404c-2.268982 1.8954163 -4.2474365 4.067566 -5.949188 6.4334106c2.0752869 -1.8954468 4.8146973 -2.933075 7.6509094 -3.0299377c4.7316895 0.27670288 8.135162 4.731659 12.105896 7.4710693c5.86615 4.0675354 13.807617 5.202057 17.59848 11.718475c3.7770386 6.4334106 1.3143616 15.135803 -1.328186 22.316345l-3.790863 10.597778c-1.4112244 3.998413 -3.9292297 8.854614 -7.692444 8.854614c-0.23519897 0 -0.47039795 -0.027648926 -0.7194214 -0.06915283c-3.6801758 -0.65026855 -5.949188 -3.4865112 -9.740051 -3.4865112c-4.2474365 0 -8.315002 -1.328186 -11.815338 -3.6940308l0 0c5.8938293 6.5440674 13.544769 10.874512 21.679901 10.874512c0.08300781 0 0.16601562 0 0.26287842 0c4.7178345 0 7.6509094 3.597229 12.285736 4.3442993c0.3182068 0.055358887 0.6225891 0.08300781 0.92697144 0.08300781c4.690155 0 7.8861084 -5.9906616 9.753845 -11.13739l4.7316895 -13.240356c3.2097778 -9.172791 6.336548 -19.9505 1.6049194 -28.182495c-4.7178345 -8.231995 -14.845276 -9.643188 -22.219482 -14.748413c-5.0083923 -3.5971985 -9.352661 -9.075958 -15.218842 -9.366486c-0.23519897 -0.0138549805 -0.47039795 -0.027679443 -0.7055969 -0.027679443z" fill-rule="evenodd"/><path fill="#75a644" d="m447.46606 507.10382c-8.99292 0 -18.857483 1.0653381 -24.529968 7.4987183c-6.2397156 7.0006714 -4.344269 17.017395 -6.9038086 25.719788c-1.7017212 5.866211 -5.5756226 11.732361 -3.9707031 17.404846c1.0376282 3.583313 3.9707031 6.336548 7.291168 8.315002c5.755493 3.5141602 12.686981 5.2573853 19.756805 5.2573853c8.135162 0 16.422485 -2.3104858 23.25711 -6.8623047c12.673126 -8.411865 20.144196 -24.391602 15.606201 -37.535156c-1.5080261 -4.454956 0.9408264 -8.328796 0.19369507 -12.963623c-0.95462036 -5.2989197 -8.135132 -6.516449 -13.904449 -6.6132812l-14.08432 -0.19369507c-0.899292 -0.013824463 -1.798584 -0.027679443 -2.711731 -0.027679443z" fill-rule="evenodd"/><path fill="#759646" d="m447.28622 507.10382c-8.923767 0 -18.636139 1.0238342 -24.350128 7.4987183c-6.2397156 7.097534 -4.344269 17.017395 -6.9038086 25.719788c-1.7017212 5.866211 -5.5756226 11.732361 -3.9707031 17.487854c0.8577881 2.5595093 2.5595093 4.925354 4.828491 6.5302124c-0.7609253 -3.3066406 1.4112244 -6.61322 2.3658447 -9.933716c1.5080566 -5.1052246 0.37356567 -10.95752 4.067566 -15.121948c3.2651367 -3.7908936 9.062134 -4.3581543 14.3471985 -4.3581543c0.52575684 0 1.0238037 0 1.5357056 0.0138549805l8.315033 0.1798706c3.30661 0 7.5679016 0.7609253 8.0383 3.7908325c0.47039795 2.739441 -0.9407959 5.008423 -0.09686279 7.65094c2.7532349 7.664734 -1.7017212 17.017395 -9.172791 21.942749c-1.7017517 1.2313843 -3.6801758 2.0753174 -5.672455 2.73938c7.7615967 -0.19366455 15.2326355 -2.5595093 21.749054 -6.806946c12.673126 -8.411865 20.144196 -24.391602 15.606201 -37.535156c-1.5080261 -4.454956 0.9408264 -8.328796 0.19369507 -12.963623c-0.8577881 -5.2020874 -8.135132 -6.4334106 -13.904449 -6.516449l-14.08432 -0.29052734c-0.9546509 -0.013824463 -1.9231262 -0.027679443 -2.891571 -0.027679443z" fill-rule="evenodd"/><path fill="#75a644" d="m426.28424 450.08862c-0.7055969 0 -1.4111938 0.06915283 -2.1167908 0.221344c-3.6801758 0.74710083 -6.5164185 3.4865112 -8.799255 6.7101135c-8.411835 11.718506 -8.882233 29.690521 -1.314331 42.93091c6.3642273 11.151245 18.37326 19.009705 29.967224 19.009705c2.1721497 0 4.3304443 -0.2767334 6.4334106 -0.8577881c0.83010864 -0.23522949 1.6325684 -0.3182373 2.4349976 -0.3182373c3.140625 0 6.1013794 1.4111938 9.40802 1.4111938c0.37353516 0 0.73324585 -0.0138549805 1.1068115 -0.055358887c5.2989197 -0.47039795 7.000641 -7.650879 7.471039 -13.337189c0.38739014 -4.7178345 0.7609558 -9.352661 1.2313538 -14.08432c0.8577881 -9.643188 1.0376587 -20.891296 -5.5756226 -27.615234c-6.7101135 -6.7101135 -16.837555 -5.5756226 -25.24939 -8.688568c-5.0637207 -1.8262634 -9.97525 -5.3265686 -14.997467 -5.3265686z" fill-rule="evenodd"/><path fill="#759646" d="m426.1874 450.08862c-0.7055969 0 -1.4111938 0.06915283 -2.1168213 0.221344c-2.642517 0.65026855 -5.105194 2.1721497 -6.806946 4.3442993c0.33203125 -0.055358887 0.6779175 -0.08303833 1.0099792 -0.08303833c2.8777466 0 5.7693176 2.006134 8.730072 3.1129456c4.925354 1.7847595 10.874512 1.134491 14.748413 5.0083923c3.8876953 3.9707031 3.6940002 10.583984 3.2236023 16.25644l-0.664093 8.232025c-0.29052734 3.403473 -1.328186 7.5679016 -4.3580933 7.8446045c-0.22137451 0.027648926 -0.44274902 0.041503906 -0.664093 0.041503906c-1.9231262 0 -3.5971985 -0.8024597 -5.451111 -0.8024597c-0.4980774 0 -1.0099792 0.055358887 -1.5357361 0.19369507c-1.1898193 0.3182068 -2.421173 0.47039795 -3.6524963 0.47039795c-6.7931213 0 -13.862976 -4.5933228 -17.62616 -11.151245c-1.0376587 -1.798584 -1.798584 -3.7770386 -2.3658447 -5.86615l0 0c-0.27670288 7.664734 1.6048889 15.315674 5.3957825 22.136444c6.3780518 11.1651 18.359406 18.96817 29.967224 18.96817c2.1306458 0 4.261261 -0.26287842 6.336548 -0.8162842c0.87164307 -0.23516846 1.7155762 -0.33203125 2.5318604 -0.33203125c3.1959534 0 6.156708 1.4111938 9.574036 1.4111938c0.30438232 0 0.6225891 -0.013793945 0.9407959 -0.041503906c5.202057 -0.47039795 7.000641 -7.664734 7.471039 -13.4340515c0.38739014 -4.621002 0.7609558 -9.352661 1.1345215 -13.987488c0.95462036 -9.740021 1.134491 -20.988129 -5.5756226 -27.712067c-6.6132812 -6.7101135 -16.740723 -5.5756226 -25.24942 -8.688568c-4.966858 -1.8262634 -9.947571 -5.3265686 -14.997437 -5.3265686z" fill-rule="evenodd"/><path fill="#75a644" d="m476.78305 366.7725c-0.7055969 0 -1.4111938 0.06918335 -2.1167908 0.22137451c-3.5971985 0.7609558 -6.5302734 3.5003357 -8.799255 6.7101135c-8.411865 11.73233 -8.882263 29.704376 -1.328186 42.93091c6.46109 11.151245 18.414764 19.02353 29.98108 19.02353c2.1721191 0 4.3304443 -0.2767334 6.4334106 -0.8577881c0.8439331 -0.23519897 1.6602173 -0.3182373 2.462677 -0.3182373c3.168274 0 6.0875244 1.4112244 9.449493 1.4112244c0.37353516 0 0.74713135 -0.0138549805 1.1345215 -0.055358887c5.2020264 -0.38739014 6.9038086 -7.664734 7.4710083 -13.337219c0.3735962 -4.731659 0.7609863 -9.366486 1.1345215 -14.08432c0.8439331 -9.643188 1.0376587 -20.90512 -5.5756226 -27.615234c-6.6271057 -6.7101135 -16.740692 -5.5756226 -25.24942 -8.702393c-4.9806824 -1.8262634 -9.961395 -5.326599 -14.997437 -5.326599z" fill-rule="evenodd"/><path fill="#759646" d="m476.78305 366.7725c-0.7055969 0 -1.4111938 0.06918335 -2.1167908 0.22137451c-2.7394104 0.664093 -5.1052246 2.1721497 -6.9038086 4.358124c0.3458557 -0.06918335 0.69174194 -0.09686279 1.0376282 -0.09686279c2.94693 0 5.8246765 2.0199585 8.702393 3.1129456c5.0083923 1.798584 10.874542 1.134491 14.845276 5.022217c3.8738708 3.9707336 3.6801758 10.583984 3.2097778 16.25647l-0.664093 8.231995c-0.27670288 3.403473 -1.314331 7.5540466 -4.344269 7.8446045c-0.22137451 0.027679443 -0.4565735 0.027679443 -0.664093 0.027679443c-1.9369507 0 -3.6663513 -0.8024597 -5.4926147 -0.8024597c-0.4842224 0 -0.9961548 0.05532837 -1.5080566 0.20751953c-1.1898193 0.3182373 -2.407318 0.47039795 -3.6524963 0.47039795c-6.779297 0 -13.862976 -4.593292 -17.612335 -11.151215c-1.0514832 -1.7986145 -1.798584 -3.7908936 -2.3658447 -5.8661804l0 0c-0.29052734 7.6647644 1.6049194 15.315674 5.285095 22.12262c6.4749146 11.178925 18.470123 18.982025 30.064087 18.982025c2.1444702 0 4.2750854 -0.26287842 6.350403 -0.83010864c0.8577881 -0.23519897 1.7017212 -0.3182068 2.5318298 -0.3182068c3.1959534 0 6.156708 1.3973389 9.560211 1.3973389c0.31817627 0 0.6364136 -0.013824463 0.9546509 -0.027648926c5.2020264 -0.48425293 7.0006104 -7.6647644 7.4710083 -13.434082c0.3735962 -4.6348267 0.7609863 -9.366486 1.1345215 -13.987457c0.8439331 -9.740051 1.1344604 -21.001984 -5.5756226 -27.712097c-6.6271057 -6.7101135 -16.740692 -5.5756226 -25.24942 -8.702393c-4.9806824 -1.8262634 -9.961395 -5.326599 -14.997437 -5.326599z" fill-rule="evenodd"/><path fill="#75a644" d="m436.218 342.6991c-3.8738708 0 -8.052155 3.804718 -11.012878 7.3742065l-9.075958 10.77771c-6.2397156 7.3742065 -13.046692 16.450134 -11.441803 25.719788c1.5219116 9.366486 10.501007 14.181183 15.606232 21.652222c3.403473 5.0083923 5.5756226 11.815338 10.9713745 14.181183c1.3973694 0.6225891 2.8777466 0.885437 4.3996277 0.885437c2.1997986 0 4.4411316 -0.5395508 6.571747 -1.2590027c13.710785 -4.731659 24.585297 -19.106537 25.996521 -34.325348c1.5080261 -15.135803 -6.1428833 -31.11557 -19.189545 -35.833405c-4.358124 -1.6187134 -5.8661804 -6.059845 -10.030579 -8.42569c-0.8993225 -0.51190186 -1.8401184 -0.74710083 -2.7947388 -0.74710083z" fill-rule="evenodd"/><path fill="#759646" d="m436.31482 342.79596c-3.8738708 0 -8.0659485 3.8046875 -11.109711 7.3742065l-9.075958 10.777679c-6.2397156 7.2773743 -12.949829 16.353302 -11.441803 25.719818c1.6049194 9.352631 10.501007 14.181152 15.606232 21.652222c3.5003052 5.008362 5.5756226 11.815338 10.9713745 14.181152c1.5357056 0.55340576 3.1405945 0.8439636 4.745514 0.8439636c1.134491 0 2.2828064 -0.15219116 3.3757935 -0.47039795c-2.9192505 -1.5080566 -4.1505737 -5.285095 -6.142853 -8.121307c-3.0161133 -4.358124 -8.315033 -7.1943665 -9.172821 -12.673126c-0.8439331 -5.3957825 3.0299377 -10.77771 6.7239685 -15.038971l5.2850647 -6.336548c1.7570801 -2.0614624 4.2474365 -4.3027954 6.5302734 -4.3027954c0.55340576 0 1.0929871 0.1383667 1.6048889 0.42889404c2.3658447 1.4250488 3.2097778 3.9707336 5.86615 4.9115295c7.5679016 2.7532349 12.105896 12.105896 11.248108 21.001984c-0.27670288 2.0752869 -0.7609558 4.1505737 -1.5080566 6.142853c4.6348267 -6.142853 7.5679016 -13.4340515 8.411865 -21.08496c1.5080261 -15.232666 -6.1428833 -31.11557 -19.189545 -35.930267c-4.358124 -1.6187134 -5.8661804 -5.962982 -9.933746 -8.328827c-0.899292 -0.52575684 -1.8400879 -0.74710083 -2.7947388 -0.74710083z" fill-rule="evenodd"/><path fill="#75a644" d="m592.6398 414.89163c-7.277405 0 -14.513245 1.2313538 -19.35559 6.0045166c-6.710144 6.6132812 -5.47876 16.740692 -8.60553 25.24939c-2.0753174 5.6724854 -6.336609 11.34494 -5.2020874 17.114258c0.8577881 3.597168 3.597168 6.5164185 6.723938 8.7854c6.25354 4.4134827 14.236511 6.6409607 22.343994 6.6409607c7.180542 0 14.444031 -1.7570801 20.669922 -5.312744c13.240356 -7.567932 21.749084 -22.980438 18.16571 -36.400665c-1.2313232 -4.537964 1.5080566 -8.231995 1.0376587 -12.963654c-0.37353516 -5.285095 -7.664734 -6.9868164 -13.434021 -7.4572144l-13.987488 -1.2313538c-2.697876 -0.24902344 -5.5341187 -0.42889404 -8.356506 -0.42889404z" fill-rule="evenodd"/><path fill="#759646" d="m592.5014 414.8778c-7.222046 0 -14.319519 1.2313232 -19.120361 6.018341c-6.710144 6.6132812 -5.47876 16.740692 -8.605591 25.24939c-2.1721191 5.6724854 -6.4334106 11.34494 -5.2020264 17.114258c0.6640625 2.73938 2.1721191 5.1052246 4.3580933 6.8069763c-0.48425293 -3.2098083 1.8815918 -6.4334106 3.0161133 -9.740051c1.8954468 -4.9115295 1.1344604 -10.874542 5.1052246 -14.748413c2.7670288 -2.7670593 6.9314575 -3.4588318 11.151245 -3.4588318c1.7017212 0 3.4034424 0.110687256 5.022217 0.23519897l8.231995 0.664093c3.4034424 0.29055786 7.650879 1.328186 7.8446045 4.4411316c0.29052734 2.7532349 -1.328186 4.925354 -0.56726074 7.5679016c2.0752563 7.8584595 -2.9331055 16.837555 -10.680847 21.278687c-1.798584 1.0376282 -3.7908936 1.8954163 -5.86615 2.3658142c0.5256958 0.0138549805 1.0514526 0.027679443 1.5633545 0.027679443c7.139038 0 14.222717 -1.798584 20.559265 -5.3265686c13.240356 -7.567932 21.845886 -22.980438 18.16571 -36.400665c-1.1483154 -4.537964 1.5080566 -8.231995 1.0376587 -12.963654c-0.47039795 -5.285095 -7.664734 -6.9868164 -13.337219 -7.4572144l-14.084351 -1.2313538c-2.7946777 -0.24902344 -5.7001343 -0.4427185 -8.591675 -0.4427185z" fill-rule="evenodd"/><path fill="#75a644" d="m562.5618 487.99728c-5.2573853 0 -10.334961 1.3005371 -14.610046 4.0952454c-3.9707642 2.6564026 -8.42572 1.2313538 -12.7699585 3.0299377c-4.8285522 2.0752869 -4.2612915 9.463348 -2.9331055 15.038971c1.0376587 4.6348267 2.1721191 9.172791 3.2097778 13.807617c2.1859741 9.352661 5.4926147 20.227173 13.90448 24.585327c2.8223877 1.4388428 5.741638 1.8953857 8.7300415 1.8953857c5.451111 0 11.109741 -1.5495605 16.671509 -1.5495605c0.38739014 0 0.7747803 0.0138549805 1.1760254 0.027709961c3.8185425 0.12451172 7.8722534 1.0791626 11.621643 1.0791626c2.255127 0 4.413452 -0.34588623 6.336548 -1.4526978c3.2236328 -1.798645 5.008362 -5.395813 6.239746 -9.075989c4.2612305 -13.807617 -0.74713135 -31.018707 -12.009033 -41.32599c-7.139038 -6.4334106 -16.630005 -10.155121 -25.567627 -10.155121z" fill-rule="evenodd"/><path fill="#759646" d="m562.5618 487.99728c-5.2573853 0 -10.334961 1.3005371 -14.610046 4.0952454c-3.9707642 2.6564026 -8.328857 1.2313538 -12.673157 3.0299377c-4.828491 2.0752869 -4.2612305 9.463348 -2.9330444 15.038971c1.0376587 4.6348267 2.0752563 9.172791 3.2097778 13.807617c2.0891113 9.352661 5.298889 20.13031 13.807617 24.585327c2.8500366 1.4388428 5.783142 1.8953857 8.771545 1.8953857c5.464966 0 11.095947 -1.5495605 16.713074 -1.5495605c0.38739014 0 0.7885742 0.0138549805 1.1759644 0.027709961c3.7770386 0.12451172 7.8031006 1.0791626 11.538635 1.0791626c2.255127 0 4.413452 -0.34588623 6.336548 -1.4526978c2.3658447 -1.5219116 4.1644287 -3.6940308 5.2020874 -6.239746l0 0c-1.0791626 0.5395508 -2.268982 0.7194214 -3.5003052 0.7194214c-2.1859741 0 -4.52417 -0.56726074 -6.710144 -0.6364136c-0.29052734 -0.0138549805 -0.56726074 -0.0138549805 -0.8577881 -0.0138549805c-3.2236328 0 -6.4610596 0.88549805 -9.58783 0.88549805c-1.7570801 0 -3.4865112 -0.2767334 -5.1605835 -1.1483154c-5.008362 -2.5595703 -6.806946 -8.896118 -8.121338 -14.374878l-1.8953857 -8.03833c-0.7609863 -3.3066406 -1.0376587 -7.567871 1.798584 -8.7854c2.4488525 -1.1483154 5.1052246 -0.29052734 7.3742065 -1.798584c2.5180054 -1.6463928 5.5064087 -2.421173 8.591675 -2.421173c5.2435913 0 10.791565 2.1997986 14.955994 6.004486c1.5079956 1.4250488 2.9191895 3.0299683 4.053711 4.8285522c-2.1721191 -7.3742065 -6.239685 -14.08432 -11.91217 -19.38324c-7.139038 -6.4334106 -16.630005 -10.155121 -25.567627 -10.155121z" fill-rule="evenodd"/><path fill="#75a644" d="m548.02094 388.90897c-3.7908325 0 -7.4018555 0.83010864 -10.473328 3.0575867c-7.097473 5.285095 -7.7615967 15.592377 -12.009033 23.353973c-2.9330444 5.285095 -7.664734 10.016754 -7.664734 15.979767c0.09686279 3.7770386 2.0891113 7.1805115 4.537964 10.016754c6.8623047 7.8031006 16.588562 12.009033 26.577637 12.009033c3.9153442 0 7.8861084 -0.65026855 11.718445 -1.9784546c13.143555 -4.925354 23.547668 -18.539276 22.606873 -32.526764c-0.38739014 -4.731659 2.73938 -7.9552917 3.112915 -12.673126c0.47045898 -5.395752 -5.6724243 -8.5086975 -10.680786 -10.127441l-12.382629 -4.0537415c-4.88385 -1.5772095 -10.279602 -3.0575867 -15.343323 -3.0575867z" fill-rule="evenodd"/><path fill="#759646" d="m547.9656 388.86746c-3.7631836 0 -7.3603516 0.8439636 -10.417969 3.0990906c-7.194336 5.285095 -7.7615967 15.592377 -12.009033 23.353973c-2.9330444 5.285095 -7.7615967 10.016754 -7.664734 16.0766c0.09686279 3.6802063 2.0891113 7.083679 4.537964 10.016754c1.798584 2.0752869 3.9707642 3.9707336 6.239746 5.5756226c-1.8815918 -2.0752869 -3.0161133 -4.7178345 -3.2097778 -7.471039c0 -4.7178345 3.7770386 -8.60556 6.0460205 -12.756165c3.4034424 -6.1566772 3.8876953 -14.374847 9.560181 -18.539276c2.4211426 -1.7709045 5.27124 -2.4349976 8.259644 -2.4349976c4.026062 0 8.315002 1.1898193 12.161255 2.4349976l9.836853 3.2097778c4.067566 1.3282166 8.979126 3.7908936 8.60553 8.03833c-0.38739014 3.790863 -2.8361816 6.25354 -2.5595093 10.030579c0.19372559 4.2474365 -0.6640625 8.411835 -2.642517 12.202728c5.6724243 -6.3365784 9.172791 -14.568573 8.60553 -22.883575c-0.38739014 -4.731659 2.73938 -7.9552917 3.112915 -12.673126c0.47045898 -5.395752 -5.6724243 -8.5086975 -10.680786 -10.127441l-12.382629 -4.0537415c-4.897644 -1.5772095 -10.307251 -3.0990906 -15.398682 -3.0990906z" fill-rule="evenodd"/><path fill="#75a644" d="m468.7309 401.1117c-9.020599 0 -15.495514 7.401886 -23.575317 10.888367c-5.5756226 2.282837 -12.576263 3.0299377 -16.062775 7.858429c-2.0891113 3.0161133 -2.2828064 7.0006714 -1.798584 10.874542c1.8815918 14.278015 13.710785 27.795105 28.265503 32.33307c3.8600464 1.2036743 7.899933 1.798584 11.898346 1.798584c11.054382 0 21.73523 -4.5517883 27.15866 -13.240356c2.462677 -3.9707336 7.083679 -4.537964 10.210449 -8.0383c3.5003357 -3.9707336 -0.09686279 -10.404144 -3.6940308 -14.942108l-8.688568 -11.054413c-5.962982 -7.664734 -13.4340515 -16.0766 -22.883545 -16.46399c-0.27670288 -0.013824463 -0.55340576 -0.013824463 -0.83013916 -0.013824463z" fill-rule="evenodd"/><path fill="#759646" d="m468.80008 401.0287c-9.103607 0 -15.509338 7.471039 -23.6445 10.888367c-5.672455 2.3658447 -12.659302 3.0160828 -16.062775 7.8446045c-2.0891113 3.1129456 -2.2828064 7.0975037 -1.798584 10.9713745c0.37356567 2.8362427 1.134491 5.7693176 2.268982 8.411865c-0.29052734 -2.8362427 -0.096832275 -5.7693176 1.5080566 -8.0383c2.73938 -3.7770386 8.315002 -4.3442993 12.7699585 -6.2397156c6.46109 -2.6840515 11.580139 -8.619385 18.871338 -8.619385c0.16601562 0 0.34588623 0.013824463 0.51190186 0.013824463c7.4710693 0.29055786 13.420227 7.0006714 18.151917 13.046692l6.9038086 8.799225c2.8362122 3.5003357 5.672455 8.702393 2.933075 11.815338c-2.5595398 2.7394104 -6.1428833 3.2236328 -8.135162 6.4334106c-2.268982 3.5003357 -5.5756226 6.2397156 -9.449493 7.9414673c8.688568 -1.4111938 16.546997 -5.7693176 20.891296 -12.769989c2.462677 -3.9707031 7.0975037 -4.537964 10.210419 -8.0383c3.5971985 -3.8738708 -0.096832275 -10.390289 -3.597168 -14.928253l-8.688568 -11.068237c-5.962982 -7.6647644 -13.4340515 -16.0766 -22.980408 -16.450165c-0.221344 -0.013824463 -0.4427185 -0.013824463 -0.664093 -0.013824463z" fill-rule="evenodd"/><path fill="#75a644" d="m528.7484 443.25397c-6.308899 0 -12.631653 1.3558655 -18.24878 4.122925c-13.710754 6.8069763 -23.25711 21.652222 -20.420868 35.16931c0.9407959 4.6348267 -1.992279 8.231995 -1.798584 12.949829c0.096832275 5.202057 7.1805115 7.388031 12.852966 8.231995l14.001312 2.0752869c3.7216797 0.55340576 7.706238 1.0238037 11.593994 1.0238037c6.1013184 0 12.009033 -1.1483154 16.394775 -4.8976746c7.097534 -6.2397156 6.4334106 -16.353333 10.113647 -24.68216c2.4626465 -5.5756226 7.0006104 -10.95755 6.239685 -16.726868c-0.56726074 -3.6940308 -3.2097778 -6.8069763 -6.239685 -9.172791c-6.6132812 -5.3404236 -15.509399 -8.093658 -24.488464 -8.093658z" fill-rule="evenodd"/><path fill="#759646" d="m545.7658 446.80963c2.1859741 1.8816223 4.067566 4.1506042 4.454956 6.8069763c0.65026855 4.6348267 -2.9331055 8.882263 -4.925354 13.323395c-2.9331055 6.627075 -2.3658447 14.665405 -8.03833 19.576904c-3.4726562 3.0161133 -8.148987 3.9292297 -13.005188 3.9292297c-3.085266 0 -6.239685 -0.3597107 -9.214294 -0.8024292l-11.054382 -1.6048889c-4.5517883 -0.7609558 -10.127411 -2.3658447 -10.224274 -6.6271057c-0.17984009 -3.6802063 2.1859741 -6.5164185 1.4250488 -10.210449c-0.7609558 -4.1644287 -0.29055786 -8.411865 1.328186 -12.299591l0 0c-5.3957825 7.0006714 -8.0383 15.606232 -6.4334106 23.644531c0.9407959 4.6348267 -1.992279 8.231995 -1.798584 12.866821c0.096832275 5.2850647 7.1805115 7.471039 12.949829 8.315002l13.904449 2.0752869c3.7631836 0.56726074 7.8031006 1.0514832 11.746155 1.0514832c6.0460205 0 11.898376 -1.148346 16.242615 -4.925354c7.097534 -6.3365784 6.4334106 -16.450165 10.113647 -24.68216c2.4626465 -5.5756226 7.097473 -10.95755 6.239685 -16.8237c-0.56726074 -3.5971985 -3.2097778 -6.710144 -6.1428833 -9.075958c-2.3658447 -1.798584 -4.814636 -3.403473 -7.567871 -4.5379944z" fill-rule="evenodd"/><path fill="#75a644" d="m534.84973 337.81525c-12.493225 0 -24.65445 5.8523254 -29.649017 16.131958c-1.9784241 4.261261 -6.5164185 5.2989197 -9.352631 9.075928c-3.0299377 4.2612915 1.2313232 10.307312 5.202057 14.47171l9.823059 10.113617c6.488739 6.7516174 14.457855 14.125824 23.506134 14.125824c0.3320923 0 0.66412354 -0.0138549805 0.9961548 -0.027679443c9.352661 -0.664093 15.121948 -9.089783 23.063416 -13.337219c5.395752 -2.933075 12.299561 -4.358124 15.232666 -9.463318c1.784729 -3.2098083 1.5080566 -7.2773743 0.65026855 -10.95755c-3.4035034 -14.098175 -16.546997 -26.287048 -31.47528 -29.316986c-2.6425781 -0.55340576 -5.326599 -0.8162842 -7.996826 -0.8162842z" fill-rule="evenodd"/><path fill="#759646" d="m524.77765 339.10193l0 0c-8.508667 2.3658447 -15.882904 7.4710693 -19.576935 14.845276c-1.9784241 4.261261 -6.5164185 5.2989197 -9.352631 9.075928c-3.0299377 4.2612915 1.2313232 10.307312 5.202057 14.47171l9.823059 10.113617c6.447235 6.7101135 14.277985 14.042816 23.340118 14.042816c0.38739014 0 0.7747803 -0.0138549805 1.1621704 -0.041503906c9.449524 -0.56726074 15.121948 -8.99295 23.063416 -13.240387c5.395752 -2.933075 12.299561 -4.358124 15.232666 -9.463318c1.784729 -3.3066406 1.6049194 -7.2773743 0.65026855 -11.054413c-0.65026855 -2.8362427 -1.78479 -5.589447 -3.112976 -8.135132l0 0c0.56726074 2.73938 0.66412354 5.672455 -0.6640625 8.135132c-2.3658447 4.067566 -7.8446045 5.2020874 -12.105896 7.4710693c-6.239685 3.403473 -10.874512 10.113586 -18.345581 10.583984c-0.2767334 0.013824463 -0.5395508 0.027679443 -0.8162842 0.027679443c-7.138977 0 -13.461731 -5.8108215 -18.566956 -11.178925l-7.8446045 -8.0383c-3.12677 -3.320465 -6.530243 -8.0383 -4.067566 -11.441772c2.1721191 -3.0299377 5.769287 -3.8877258 7.3742065 -7.1943665c1.9922485 -3.7770386 4.925354 -6.9038086 8.60553 -8.979095z" fill-rule="evenodd"/><path fill="#75a644" d="m374.92764 356.7696c-9.020599 0 -15.495514 7.401886 -23.478455 10.888367c-5.6724854 2.268982 -12.673126 3.0299377 -16.07663 7.8446045c-2.1721191 3.0299377 -2.3519897 7.0006714 -1.8815918 10.874542c1.9784546 14.278015 13.807617 27.80893 28.362335 32.346893c3.8323975 1.2036743 7.8584595 1.7847595 11.843018 1.7847595c11.054382 0 21.762909 -4.537964 27.117157 -13.226532c2.462677 -3.9707336 7.0975037 -4.537964 10.210449 -8.0383c3.5003357 -3.9707336 -0.09686279 -10.404144 -3.6801758 -14.942108l-8.60556 -11.068237c-5.9630127 -7.6509094 -13.530914 -16.0766 -22.980408 -16.450165c-0.27670288 -0.013824463 -0.55340576 -0.013824463 -0.83013916 -0.013824463z" fill-rule="evenodd"/><path fill="#759646" d="m374.99683 356.67276c-9.103607 0 -15.509338 7.471039 -23.727509 10.888367c-5.589447 2.3658142 -12.576263 3.0299072 -16.0766 7.8446045c-1.992279 3.12677 -2.1721497 7.0975037 -1.7017517 10.9713745c0.37356567 2.8362427 1.134491 5.7693176 2.268982 8.42569c-0.29052734 -2.8362427 -0.096832275 -5.7693176 1.5080566 -8.0383c2.6425476 -3.790863 8.231995 -4.358124 12.7699585 -6.2397156c6.46109 -2.6840515 11.580139 -8.619385 18.78833 -8.619385c0.16601562 0 0.33206177 0 0.4980774 0.013824463c7.471039 0.2767334 13.517059 6.986847 18.248749 13.046692c2.268982 2.933075 4.537964 5.86615 6.9038086 8.7854c2.73938 3.597168 5.672455 8.702393 2.8362122 11.829163c-2.462677 2.7394104 -6.142853 3.2098083 -8.135132 6.419586c-2.268982 3.5003357 -5.5756226 6.25354 -9.449493 7.9552917c8.7854 -1.4250488 16.546997 -5.672455 20.988129 -12.7699585c2.462677 -3.9707336 7.0975037 -4.5379944 10.210419 -8.03833c3.5003357 -3.8738708 -0.096832275 -10.3072815 -3.6801758 -14.942108l-8.702393 -11.068207c-5.86615 -7.65094 -13.4340515 -16.062775 -22.883575 -16.450165c-0.221344 0 -0.4427185 -0.013824463 -0.664093 -0.013824463z" fill-rule="evenodd"/><path fill="#75a644" d="m448.64206 198.68759c-1.314331 0 -2.6010132 0.19369507 -3.8600464 0.6502533c-3.5003052 1.2313538 -5.86615 4.4549713 -7.664734 7.9414673c-6.5164185 12.866806 -4.4411316 30.645157 5.022217 42.65419c7.069824 8.979095 18.096558 14.734589 28.514526 14.734589c3.5141602 0 6.959137 -0.664093 10.15509 -2.0614624c1.4665527 -0.65026855 2.905426 -0.83010864 4.3719482 -0.83010864c1.8400879 0 3.6940308 0.29052734 5.589447 0.29052734c0.9823303 0 1.9784546 -0.08300781 2.9884338 -0.3182068c5.1052246 -1.2313538 5.7693176 -8.60556 5.4926147 -14.374863c-0.38739014 -4.7178345 -0.664093 -9.352661 -0.9546509 -14.084335c-0.5672302 -9.643188 -1.9784241 -20.891281 -9.546326 -26.577576c-7.5679016 -5.67247 -17.39096 -2.9192505 -26.190216 -4.814682c-4.6209717 -0.9546356 -9.4079895 -3.209793 -13.918304 -3.209793z" fill-rule="evenodd"/><path fill="#759646" d="m448.5729 198.78444c-1.2866821 0 -2.5595398 0.19369507 -3.7908936 0.6502533c-2.5456848 1.0376587 -4.731659 2.8362427 -6.142853 5.2989197c0.664093 -0.22135925 1.3420105 -0.30436707 2.033783 -0.30436707c2.6286926 0 5.3819275 1.3143463 8.079803 1.909256c5.1052246 1.0376587 10.874542 -0.5672455 15.315674 2.7393951c4.454956 3.403473 5.2989197 9.933731 5.672455 15.606201c0.09686279 2.7393951 0.29055786 5.478775 0.48425293 8.231995c0.17984009 3.4034882 -0.19369507 7.6509247 -3.2236328 8.411865c-0.6225891 0.1521759 -1.2313232 0.20751953 -1.8400879 0.20751953c-1.1068115 0 -2.1721497 -0.17985535 -3.2512817 -0.17985535c-0.8162842 0 -1.6325684 0.110687256 -2.476532 0.44273376c-1.8677673 0.84394836 -3.8877258 1.2313385 -5.9491577 1.2313385c-6.087555 0 -12.5486145 -3.3758087 -16.64386 -8.605545c-1.328186 -1.6049042 -2.3658447 -3.5003357 -3.2097778 -5.478775l0 0c0.8439331 7.6509094 3.777008 15.025116 8.5086975 21.084976c7.069824 8.979111 18.096558 14.734573 28.514526 14.734573c3.5141602 0 6.959137 -0.664093 10.15509 -2.0614624c1.4250488 -0.6364136 2.8223877 -0.8162842 4.2474365 -0.8162842c1.8400879 0 3.7078552 0.30438232 5.6171265 0.30438232c1.0099792 0 2.047638 -0.08300781 3.085266 -0.34588623c5.1052246 -1.2313232 5.7693176 -8.605545 5.4926147 -14.374847c-0.29055786 -4.731674 -0.664093 -9.449509 -0.9546509 -14.084335c-0.5672302 -9.740036 -1.9784241 -20.90512 -9.546326 -26.577576c-7.5679016 -5.67247 -17.39096 -2.9330902 -26.287048 -4.814682c-4.5656433 -0.8854675 -9.352661 -3.209793 -13.890625 -3.209793z" fill-rule="evenodd"/><path fill="#75a644" d="m383.07663 289.7376c-4.607147 0 -9.228119 0.73327637 -13.558563 2.2690125c-14.374878 5.105194 -25.539948 18.815979 -24.308594 32.623596c0.38739014 4.6348267 -2.9331055 7.858429 -3.4035034 12.576263c-0.47039795 5.2020874 6.2397156 8.231995 11.815338 9.740051l13.627777 3.597168c5.160553 1.4112244 10.833008 2.7255554 16.20111 2.7255554c4.3719482 0 8.550201 -0.87161255 12.064362 -3.2927856c7.8584595 -5.395752 8.42569 -15.509369 12.963684 -23.353973c3.112915 -5.202057 8.315002 -10.030579 8.121307 -15.882904c-0.08300781 -3.6940308 -2.3658447 -7.0975037 -5.0083923 -9.836884c-7.1251526 -7.208191 -17.819824 -11.1651 -28.514526 -11.1651z" fill-rule="evenodd"/><path fill="#759646" d="m404.68735 295.50693l0 0c1.8954468 2.0891418 3.5003357 4.6348267 3.5971985 7.3742065c0.096832275 4.7316895 -4.0675964 8.508728 -6.4334106 12.673126c-3.6802063 6.1428833 -4.1644287 14.181183 -10.3072815 18.442444c-2.8085632 1.9092712 -6.129059 2.6010437 -9.601715 2.6010437c-4.2474365 0 -8.7438965 -1.0376587 -12.811462 -2.1306458l-10.777679 -2.8362427c-4.4411316 -1.2313232 -9.836914 -3.597168 -9.449524 -7.7477417c0.27670288 -3.6940308 2.933075 -6.2397156 2.6425476 -10.030579c-0.27670288 -4.1644287 0.664093 -8.315002 2.73938 -12.009033l0 0c-6.142853 6.336548 -9.823059 14.5685425 -9.172791 22.786713c0.48425293 4.731659 -2.9192505 7.858429 -3.3066406 12.576263c-0.47039795 5.2020874 6.3365784 8.231995 11.912201 9.740051l13.627747 3.597168c5.077545 1.3973694 10.708527 2.6840515 16.04895 2.6840515c4.3857727 0 8.577881 -0.8577881 12.11969 -3.2512817c7.8584595 -5.2989197 8.328857 -15.509369 12.963684 -23.353973c3.112915 -5.202057 8.315002 -10.030579 8.121307 -15.882904c-0.08300781 -3.6940308 -2.3658447 -7.0975037 -5.0083923 -9.836884c-2.0752869 -2.0891418 -4.441101 -3.8739014 -6.9038086 -5.3957825z" fill-rule="evenodd"/><path fill="#75a644" d="m350.96494 243.0297c-1.3143616 0 -2.6010437 0.19369507 -3.8600464 0.664093c-3.403473 1.2313385 -5.86615 4.4411316 -7.5679016 7.8446045c-6.6132507 12.949829 -4.537964 30.72818 4.925354 42.737213c7.0698547 8.979095 18.096558 14.734589 28.514526 14.734589c3.5141907 0 6.9591675 -0.65026855 10.155121 -2.0614624c1.4942017 -0.65026855 2.9468994 -0.83013916 4.413452 -0.83013916c1.8400879 0 3.6940308 0.29055786 5.603302 0.29055786c0.99612427 0 1.992279 -0.08300781 3.0299072 -0.30438232c5.1052246 -1.328186 5.7693176 -8.60556 5.3957825 -14.374847c-0.29055786 -4.7316895 -0.56726074 -9.366516 -0.8577881 -14.098175c-0.664093 -9.643188 -2.0753174 -20.891296 -9.643219 -26.563751c-7.5679016 -5.67247 -17.404785 -2.933075 -26.190186 -4.8285217c-4.6209717 -0.9407959 -9.4079895 -3.2097778 -13.918304 -3.2097778z" fill-rule="evenodd"/><path fill="#759646" d="m350.96494 243.0297c-1.3143616 0 -2.6010437 0.19369507 -3.8600464 0.664093c-2.5595093 1.0376434 -4.6348267 2.933075 -6.142853 5.2989197c0.6364136 -0.19369507 1.2866821 -0.27671814 1.9507751 -0.27671814c2.656372 0 5.437256 1.2728577 8.162811 1.881607c5.202057 1.0376434 10.9713745 -0.5672455 15.315674 2.8362274c4.4411316 3.3066254 5.298889 9.836899 5.672455 15.509354c0.19369507 2.7394104 0.29055786 5.4787903 0.47039795 8.21817c0.19369507 3.403473 -0.17984009 7.7615967 -3.1129456 8.42569c-0.664093 0.15219116 -1.3005066 0.20751953 -1.9092712 0.20751953c-1.0653076 0 -2.0891113 -0.15219116 -3.112915 -0.15219116c-0.87164307 0 -1.7432556 0.110687256 -2.6425476 0.5119324c-1.8539429 0.8024292 -3.8600464 1.1759949 -5.921509 1.1759949c-6.0875244 0 -12.576263 -3.320465 -16.671509 -8.564056c-1.328186 -1.7017212 -2.3658447 -3.5833435 -3.2236328 -5.5756226l0 0c0.8577881 7.7615967 3.790863 15.038971 8.522522 21.181824c7.0559998 8.909943 18.096558 14.637756 28.500702 14.637756c3.5141602 0 6.972992 -0.65026855 10.168945 -2.0614624c1.4526978 -0.6225891 2.8638916 -0.8024597 4.2889404 -0.8024597c1.8539124 0 3.7078552 0.30438232 5.630951 0.30438232c1.0238037 0 2.0614624 -0.08300781 3.12677 -0.34588623c5.1052246 -1.134491 5.7693176 -8.60556 5.3957825 -14.374847c-0.29055786 -4.6348267 -0.56726074 -9.366516 -0.8577881 -14.098175c-0.664093 -9.643188 -1.9784546 -20.794434 -9.643219 -26.563751c-7.5679016 -5.67247 -17.404785 -2.933075 -26.190186 -4.8285217c-4.6209717 -0.9407959 -9.4079895 -3.2097778 -13.918304 -3.2097778z" fill-rule="evenodd"/><path fill="#75a644" d="m428.52557 233.91223c-8.315033 0 -16.782227 2.3796692 -23.644531 7.125183c-12.479431 8.605545 -19.853638 24.68216 -15.135803 37.645813c1.6187439 4.4411316 -0.8439331 8.411865 -0.096832275 13.046692c0.8577881 5.202057 8.135132 6.43338 13.904449 6.43338l14.181183 0c0.51190186 0 1.0238037 0 1.5357056 0c9.366486 0 19.784485 -0.95462036 25.60913 -7.7615967c6.142853 -7.1805115 4.1644287 -17.114227 6.6132507 -25.81662c1.6187439 -5.8523254 5.3957825 -11.815353 3.7908936 -17.487823c-1.0376587 -3.5003204 -4.0675964 -6.2397156 -7.3742065 -8.231995c-5.6724854 -3.3066254 -12.479431 -4.9530334 -19.38324 -4.9530334z" fill-rule="evenodd"/><path fill="#759646" d="m426.5333 234.05058c-7.747772 0.27671814 -15.218842 2.7393951 -21.652252 7.083679c-12.576263 8.605545 -19.853638 24.682144 -15.2326355 37.728836c1.6187134 4.3580933 -0.74710083 8.328827 0 12.963654c0.95462036 5.202057 8.231995 6.336548 14.001312 6.336548l14.08432 0.08303833c9.740051 0 21.001953 -0.65026855 27.144836 -7.844635c6.142853 -7.0836487 4.1644287 -17.114227 6.6132507 -25.81662c1.6187439 -5.8523254 5.3957825 -11.815353 3.7908936 -17.487823c-0.9546509 -2.6425323 -2.656372 -4.925354 -4.9253845 -6.530243l0 0c0.7609558 3.3066254 -1.314331 6.6270905 -2.268982 10.030579c-1.4111938 5.1052246 -0.17984009 10.874542 -3.8738708 15.121979c-3.597168 4.164398 -10.210449 4.537964 -15.882904 4.537964l-8.231995 0c-3.4035034 0 -7.65094 -0.74710083 -8.135162 -3.7770386c-0.47039795 -2.6425476 0.9546509 -5.008362 0 -7.5679016c-2.73938 -7.6509094 1.5218811 -17.114243 8.896088 -22.12262c1.7017517 -1.134491 3.6801758 -2.0753021 5.6724854 -2.7393951z" fill-rule="evenodd"/><path fill="#75a644" d="m515.591 277.74243c-8.287323 0 -16.754517 2.3796692 -23.616821 7.083679c-12.576263 8.60553 -19.964294 24.682129 -15.2326355 37.72882c1.6048889 4.344269 -0.7609558 8.411835 -0.09686279 12.949829c0.9546509 5.202057 8.231995 6.4334106 14.001312 6.4334106l14.08432 0c0.5119324 0 1.0238342 0.013824463 1.5357361 0.013824463c9.38031 0 19.867493 -0.95462036 25.705933 -7.7615967c6.1428833 -7.0975037 4.150635 -17.114258 6.5164185 -25.81665c1.7017822 -5.86615 5.4926147 -11.829163 3.7908936 -17.501617c-0.9546509 -3.5003357 -4.067566 -6.2397156 -7.3880615 -8.121338c-5.6171265 -3.361969 -12.396423 -5.008362 -19.300232 -5.008362z" fill-rule="evenodd"/><path fill="#759646" d="m513.6264 277.82544c-7.7615967 0.29052734 -15.2326355 2.73938 -21.652222 7.0975037c-12.576263 8.60556 -19.964294 24.68216 -15.2326355 37.72882c1.6048889 4.3442993 -0.8439636 8.315002 0 12.949829c0.9407959 5.2020874 8.231995 6.3365784 14.001312 6.3365784l14.08432 0.096832275c9.643219 0 20.891266 -0.5672302 27.144806 -7.8446045c6.1428833 -7.0975037 4.150635 -17.114258 6.5164185 -25.81665c1.7017822 -5.86615 5.4926147 -11.829163 3.8739014 -17.501617c-0.9407959 -2.6425476 -2.642517 -4.9115295 -4.911499 -6.419586l0 0c0.7609253 3.2097778 -1.328186 6.6132507 -2.268982 9.919891c-1.4250488 5.1052246 -0.29058838 10.874542 -3.8739014 15.135803c-3.597168 4.1506042 -10.210449 4.5379944 -15.882935 4.5379944l-8.231964 0c-3.4035034 0 -7.6647644 -0.664093 -8.232025 -3.7908936c-0.47039795 -2.642517 0.9546509 -5.008362 0 -7.5540466c-2.73938 -7.6647644 1.6049194 -17.03125 8.99295 -22.136475c1.7017517 -1.134491 3.5833435 -2.0752869 5.672455 -2.73938z" fill-rule="evenodd"/><path fill="#75a644" d="m521.2081 222.20758c-1.36969 0 -2.725525 0.15219116 -4.08136 0.4980774c-9.172821 2.268982 -13.33725 11.621643 -20.33789 17.294098c-4.7316895 3.7908783 -11.34494 6.530258 -13.240387 12.105881c-1.2313232 3.5003357 -0.27670288 7.374222 1.328186 10.874527c5.8661804 13.240387 20.891296 22.883575 36.220795 23.174133c0.23522949 0 0.47039795 0 0.70562744 0c15.080444 0 29.884216 -8.81308 33.61975 -21.94278c1.2174683 -4.537964 5.47876 -6.4334106 7.4572144 -10.597824c2.2827759 -4.814682 -3.0161133 -9.919907 -7.7478027 -13.323395l-11.441772 -8.231995c-6.682434 -4.7454987 -14.610046 -9.850723 -22.48236 -9.850723z" fill-rule="evenodd"/><path fill="#759646" d="m521.24963 222.20758c-1.3834839 0 -2.7531738 0.15219116 -4.122864 0.4980774c-9.172821 2.268982 -13.240387 11.621643 -20.33789 17.294098c-4.7316895 3.873886 -11.248108 6.530258 -13.143524 12.105881c-0.8439636 2.6425476 -0.7609558 5.4925995 0.19369507 8.038315c1.2313232 -3.0299377 4.9115295 -4.537979 7.5679016 -6.8069763c4.1505737 -3.3066254 6.5164185 -8.702393 11.91217 -10.030579c0.8024597 -0.19369507 1.6048889 -0.27670288 2.4073486 -0.27670288c4.6209717 0 9.241974 2.9469147 13.185028 5.7693176l6.723938 4.731659c2.73938 1.9784546 5.852356 5.0083923 4.537964 7.747772c-1.2313232 2.5595093 -3.6939697 3.597168 -4.454956 6.2397156c-2.1306152 7.706238 -10.833008 12.866821 -19.56308 12.866821c-0.16601562 0 -0.3182068 0 -0.47039795 0c-2.0891418 0 -4.261261 -0.38739014 -6.25354 -0.9546509l0 0c6.43338 4.1644287 14.001312 6.5302734 21.749054 6.7239685c0.24902344 0 0.48425293 0 0.7194214 0c14.983643 0 29.787415 -8.81308 33.52295 -21.94278c1.2174683 -4.537964 5.47876 -6.4334106 7.554016 -10.680847c2.268982 -4.731659 -3.0160522 -9.836884 -7.7477417 -13.240372l-11.441772 -8.231995c-6.682434 -4.7454987 -14.610046 -9.850723 -22.53772 -9.850723z" fill-rule="evenodd"/><path fill="#75a644" d="m479.8268 248.21793c-1.57724 0 -3.1959534 0.22135925 -4.787018 0.5810852c-14.181152 2.933075 -26.660583 15.786072 -30.064087 30.72818c-3.30661 14.845245 2.2690125 31.585938 14.554749 37.922516c4.164398 2.1721497 5.105194 6.7101135 8.799225 9.546356c1.0653076 0.8024292 2.2551575 1.1483154 3.4865112 1.1483154c3.7216797 0 7.9829407 -3.0575867 11.16507 -5.9630127l10.3072815 -9.560181c7.1943665 -6.5164185 14.942108 -14.651581 14.568573 -24.114899c-0.29055786 -9.449493 -8.60556 -15.412506 -12.769989 -23.450806c-2.73938 -5.3819275 -3.9707336 -12.285751 -9.075958 -15.315674c-1.8677368 -1.0929871 -3.984558 -1.5218811 -6.1843567 -1.5218811z" fill-rule="evenodd"/><path fill="#759646" d="m479.813 248.16258c-1.57724 0 -3.182129 0.22135925 -4.7731934 0.5395813c-2.933075 0.664093 -5.672455 1.6048889 -8.315002 3.0299225c0.9961548 -0.27670288 2.0061035 -0.41505432 3.0022583 -0.41505432c1.7570801 0 3.5003357 0.41505432 5.119049 1.2590027c4.0675964 2.3658447 5.022217 7.941452 7.2911987 12.202744c3.2097778 6.336548 9.836884 11.068207 10.113586 18.622284c0.29055786 7.4710693 -5.962982 13.904449 -11.635468 19.106537c-2.73938 2.5595093 -5.47876 5.1052246 -8.21817 7.5679016c-2.5595093 2.3381653 -5.962982 4.787018 -8.854584 4.787018c-0.9684448 0 -1.8815918 -0.2767334 -2.684021 -0.913147c-3.0299377 -2.268982 -3.7770386 -5.86615 -7.0975037 -7.5679016c-3.6802063 -1.9784546 -6.7101135 -5.008362 -8.688568 -8.7854l0 0c2.0752869 8.60556 6.9868164 16.062775 14.361023 19.853638c4.1644287 2.1721497 5.1052246 6.7101135 8.896088 9.546356c1.0376587 0.8024292 2.2136536 1.1483154 3.4449768 1.1483154c3.6802063 0 7.927643 -3.0575867 11.109741 -5.9630127l10.404144 -9.560181c7.0975037 -6.5164185 14.942108 -14.651581 14.568573 -24.114899c-0.38739014 -9.449493 -8.702423 -15.412506 -12.769989 -23.450806c-2.8362427 -5.3819275 -4.067566 -12.382599 -9.172791 -15.315674c-1.8124084 -1.1483307 -3.9153748 -1.5772247 -6.101349 -1.5772247z" fill-rule="evenodd"/><path fill="#75a644" d="m435.13882 314.50278c-2.3104858 0 -4.5933228 0.30438232 -6.806946 0.9546509c-0.92697144 0.27670288 -1.8262634 0.37353516 -2.697876 0.37353516c-3.0576172 0 -5.921509 -1.2728271 -9.1866455 -1.2728271c-0.38739014 0 -0.7747803 0.013824463 -1.1621704 0.05532837c-5.202057 0.56726074 -6.806946 7.8446045 -7.194336 13.613922c-0.27670288 4.6348267 -0.664093 9.366486 -0.9407959 14.001312c-0.664093 9.726227 -0.664093 20.988129 6.0460205 27.60141c6.806946 6.6271057 16.934387 5.202057 25.443085 8.135132c5.0498657 1.7432556 10.016754 5.1467285 15.052795 5.1467285c0.7194214 0 1.4388733 -0.06915283 2.1582947 -0.23519897c3.5833435 -0.8439331 6.419586 -3.6801758 8.60556 -6.9038086c8.121307 -11.91217 8.411865 -29.870361 0.5672302 -43.013885c-6.5440674 -10.860718 -18.442413 -18.456299 -29.884216 -18.456299z" fill-rule="evenodd"/><path fill="#759646" d="m435.06964 314.50278c-2.2828064 0 -4.537964 0.30438232 -6.7377625 0.9546509c-0.92697144 0.27670288 -1.8262634 0.37353516 -2.697876 0.37353516c-3.0576172 0 -5.921509 -1.2728271 -9.1866455 -1.2728271c-0.38739014 0 -0.7747803 0.013824463 -1.1621704 0.05532837c-5.202057 0.56726074 -6.806946 7.8446045 -7.194336 13.613922c-0.27670288 4.7316895 -0.664093 9.366486 -0.9407959 14.001312c-0.664093 9.726227 -0.7609558 20.988129 6.0460205 27.60141c6.806946 6.6271057 16.934387 5.202057 25.443085 8.135132c4.9945374 1.7155762 9.933746 5.0775757 14.914429 5.0775757c0.7609558 0 1.5218811 -0.08303833 2.2966614 -0.24905396c3.5833435 -0.7609253 6.419586 -3.597168 8.60556 -6.820801c1.7017212 -2.448822 2.933075 -5.1052246 3.9707336 -7.8446045l0 0c-1.7017517 2.3658447 -3.8877258 4.358124 -6.5302734 4.9253845c-0.6225891 0.15216064 -1.2590027 0.221344 -1.8815918 0.221344c-3.9153748 0 -7.816925 -2.7117004 -11.73233 -4.0122375c-6.806946 -2.3658142 -14.845245 -1.314331 -20.144165 -6.5164185c-5.3819275 -5.202057 -5.3819275 -14.195007 -4.9115295 -21.845917l0.74710083 -11.16507c0.38739014 -4.6348267 1.6187134 -10.3072815 5.7693176 -10.777679c0.3182068 -0.027679443 0.6225891 -0.041503906 0.92697144 -0.041503906c2.5595093 0 4.8146667 0.99612427 7.2496643 0.99612427c0.69177246 0 1.3973694 -0.08300781 2.1306458 -0.29052734c1.8539429 -0.5119324 3.7355347 -0.7747803 5.6171265 -0.7747803c2.2551575 0 4.510315 0.37353516 6.682434 1.1483154c-5.3265686 -3.4172974 -11.358765 -5.4926147 -17.280273 -5.4926147z" fill-rule="evenodd"/><path fill="#75a644" d="m516.42114 151.17722c-1.5357056 0 -3.099121 0.20753479 -4.5933228 0.51190186c-14.181152 3.016098 -26.757446 15.882919 -30.077911 30.72818c-3.403473 14.942108 2.1859741 31.6828 14.568573 38.019363c4.1644287 2.1721497 5.1052246 6.7101135 8.799225 9.546356c1.0376587 0.80244446 2.199829 1.1483307 3.4311523 1.1483307c3.6802063 0 7.941437 -3.0714417 11.123566 -5.9768524l10.404175 -9.546341c7.083618 -6.530258 14.942078 -14.748413 14.5546875 -24.114914c-0.37353516 -9.449493 -8.60553 -15.412506 -12.7561035 -23.450806c-2.73938 -5.3819275 -4.067566 -12.285736 -9.075989 -15.315674c-1.9092407 -1.1206512 -4.122925 -1.5495453 -6.3780518 -1.5495453z" fill-rule="evenodd"/><path fill="#759646" d="m516.54565 151.14955c-1.5633545 0 -3.182129 0.22135925 -4.7178345 0.53956604c-2.933075 0.664093 -5.672455 1.6049042 -8.328827 2.9330902c1.0376282 -0.1798706 2.0891113 -0.2905426 3.12677 -0.2905426c1.7847595 0 3.5141602 0.3320465 5.008362 1.2313385c3.9707336 2.3658295 5.0083923 7.8446045 7.2773743 12.202728c3.2236328 6.336563 9.836914 11.054382 10.127441 18.525452c0.27667236 7.5679016 -5.9630127 14.001297 -11.635498 19.20337l-8.231995 7.554077c-2.5456848 2.3519897 -5.9491577 4.7870026 -8.854584 4.7870026c-0.96847534 0 -1.8677673 -0.26286316 -2.6701965 -0.899292c-3.0299377 -2.268982 -3.790863 -5.9630127 -7.0975037 -7.5679016c-3.7770386 -1.992279 -6.8069763 -5.008377 -8.702393 -8.79924l0 0c2.0891113 8.605545 7.000641 16.0766 14.278015 19.867462c4.1644287 2.1721497 5.1052246 6.7101135 8.896088 9.546356c1.0376282 0.80244446 2.1997986 1.1483307 3.4311523 1.1483307c3.6801758 0 7.9414673 -3.0714417 11.123596 -5.9768524l10.404114 -9.546341c7.097473 -6.530258 14.942078 -14.651581 14.5685425 -24.114914c-0.38739014 -9.546341 -8.60553 -15.412506 -12.7699585 -23.450806c-2.8362427 -5.3819275 -4.067566 -12.382584 -9.172791 -15.315674c-1.7570801 -1.1621552 -3.8739014 -1.5772095 -6.0598755 -1.5772095z" fill-rule="evenodd"/></g></svg>