<svg version="1.1" viewBox="0.0 0.0 960.0 720.0" fill="none" stroke="none" stroke-linecap="square" stroke-miterlimit="10" xmlns:xlink="http://www.w3.org/1999/xlink" xmlns="http://www.w3.org/2000/svg"><clipPath id="p.0"><path d="m0 0l960.0 0l0 720.0l-960.0 0l0 -720.0z" clip-rule="nonzero"/></clipPath><g clip-path="url(#p.0)"><path fill="#000000" fill-opacity="0.0" d="m0 0l960.0 0l0 720.0l-960.0 0z" fill-rule="evenodd"/><path fill="#70c8f5" d="m470.80692 0.019660462c-64.03253 0 -128.20346 32.027332 -176.71713 69.392555c-139.037 137.55937 -173.35638 347.6745 -41.49562 503.46173c83.14937 97.97992 204.829 147.12805 324.98633 147.12805c48.35553 0 96.4541 -7.967285 141.70587 -23.901855c36.889343 -27.954773 62.292847 -68.6413 80.124695 -111.324646c28.922363 -68.6413 39.854736 -148.37357 12.019653 -217.41025c-14.451294 -35.941803 -38.49066 -67.02017 -62.27307 -97.703125c-40.54669 -52.29155 -81.07361 -104.72148 -121.6203 -157.15141c-39.439575 -51.204193 -86.58923 -106.73801 -150.91827 -112.41199c-1.9374084 -0.059309874 -3.8747864 -0.07907984 -5.8121643 -0.07907984z" fill-rule="evenodd"/><path fill="#ffffff" fill-opacity="0.5283" d="m473.1199 70.637955c-177.96259 22.695908 -309.28958 222.66905 -236.73651 385.35602c14.332687 40.133026 36.217224 77.16214 64.190704 109.308075c55.116608 58.91449 119.168884 91.47565 186.99713 102.84332c13.640747 2.293335 27.419922 3.776062 41.199097 4.3098755c8.935669 2.1746826 17.930664 3.2027588 26.905884 3.2027588c51.400024 0 102.266235 -33.47058 139.43237 -76.03528c56.342285 -74.98749 106.338684 -187.53784 37.818542 -268.19928c-9.449707 -13.661041 -19.848328 -26.768524 -30.246948 -39.73761l-26.62915 -33.233307l-26.609375 -33.23329c-47.97992 -44.46263 -72.9682 -119.45008 -139.57074 -145.40805c-11.485931 -5.397194 -24.059143 -8.501076 -36.751007 -9.173256z" fill-rule="evenodd"/><path fill="#86cdf0" d="m466.47745 77.97261c-51.320923 0 -102.72092 25.79979 -141.58722 55.771057c-111.87407 110.65245 -117.27106 301.84772 -11.209137 426.9718c63.716217 70.26245 140.97437 100.53021 222.32477 100.53021c42.85968 0 86.86597 -8.402222 130.59552 -23.783203c29.574768 -22.438904 49.976624 -55.118652 64.44769 -89.43933c23.11023 -55.276794 31.887756 -119.193085 9.588074 -174.7269c-11.624329 -28.903656 -30.938843 -53.91266 -49.9964 -78.5065c-32.698303 -42.149536 -65.25824 -84.29909 -97.81818 -126.468414c-31.749329 -41.200592 -69.58765 -85.80162 -121.32373 -90.24986c-1.6803894 -0.059310913 -3.3410034 -0.098846436 -5.021393 -0.098846436z" fill-rule="evenodd"/><path fill="#fff1c4" d="m473.29785 132.85402c-41.831696 0 -83.72269 20.956146 -115.313934 45.332504c-29.574768 28.785065 -52.28961 63.916275 -66.60254 102.56656c-6.761078 18.643066 -11.209137 37.819916 -13.383759 57.411957c-25.146454 140.70279 118.61539 265.72803 254.21252 265.72803c7.907715 0 15.775818 -0.41516113 23.584717 -1.2850952c13.660522 -0.41516113 27.162903 -1.8978882 40.54663 -4.4679565c13.364014 -2.4317017 26.609436 -5.9508057 39.439636 -10.537415c24.059143 -18.24768 40.68506 -44.858032 52.28961 -72.69415c18.919128 -44.858032 26.075623 -96.87277 7.8483887 -142.0076c-9.469482 -23.50647 -25.126709 -43.790466 -40.665283 -63.777893c-26.490784 -34.32065 -52.981567 -68.5029 -79.31415 -102.82355c-25.957031 -33.37169 -56.757507 -69.72864 -98.76709 -73.36632c-1.304779 -0.059310913 -2.5897827 -0.079071045 -3.8747559 -0.079071045z" fill-rule="evenodd"/><path fill="#fae6ac" d="m479.7624 187.20163c-32.223846 0 -64.44769 16.17183 -88.94177 35.032364c-11.485931 11.347961 -21.746155 23.921646 -30.523682 37.424545c-8.520538 13.107483 -15.538635 27.16391 -20.955383 41.75415c-50.391785 116.879974 55.808533 248.09317 183.22119 248.2316c4.48761 0.25701904 8.97522 0.39538574 13.46283 0.39538574c9.489258 0 18.978516 -0.612854 28.428162 -1.8978882c13.9175415 -1.8781738 27.696716 -5.1204224 40.942078 -9.865234c18.504028 -14.036682 31.334229 -34.577667 40.38855 -56.067596c14.451294 -34.716064 20.00647 -74.84906 5.9505615 -109.72327c-7.294861 -18.109283 -19.314575 -33.76709 -31.354004 -49.167908c-20.401855 -26.49173 -40.942078 -52.98349 -61.343933 -79.455444c-19.986694 -25.819565 -43.769104 -53.774292 -76.19061 -56.62117c-1.0279846 -0.039535522 -2.0559998 -0.039535522 -3.0839844 -0.039535522z" fill-rule="evenodd"/><path fill="#75a644" d="m482.84637 235.2031c-24.454529 1.6211243 -47.97992 10.537384 -67.43283 25.404388c-17.693481 13.779663 -31.472626 32.027344 -39.854767 52.963715c-11.624329 29.872406 -11.624329 54.861633 -5.397003 86.0784c17.594604 52.805573 73.52176 89.004364 131.86075 89.004364c3.9143066 0 7.8286133 -0.1581726 11.762695 -0.4942627c15.4002075 -1.3641052 30.40509 -5.9507446 43.90747 -13.522644c81.211975 -49.99823 31.215576 -149.97491 -24.177795 -202.12805c-12.711609 -17.160324 -27.97345 -35.684784 -50.668518 -37.30591z" fill-rule="evenodd"/><path fill="#212121" fill-opacity="0.195" d="m447.02454 377.09207c1.6210632 1.7595215 3.3805237 3.3806763 5.2783813 5.0018005c-0.41516113 -0.1383667 -0.67214966 -0.27676392 -1.0873108 -0.41516113c-2.016449 -0.6721802 -3.9143066 -1.6211243 -5.8121643 -2.5700989c0.55355835 -0.6721802 1.0873108 -1.3443604 1.6210938 -2.0165405zm94.1806 -21.213165c0.27679443 1.3443604 0.6721802 2.6887207 1.225708 3.9144592c1.0675049 2.0165405 2.293213 3.776062 3.775879 5.5355835c0.6721802 0.8105774 1.6210938 1.6211548 2.4316406 2.4317017c-5.673767 0.5338135 -11.347534 2.036316 -16.487549 4.5866394c-6.484314 3.1236572 -12.019653 7.8486633 -16.349121 13.661041l0 -0.13839722c-0.9489136 1.0873413 -1.7594604 2.293335 -2.4316406 3.5190735c-0.25701904 0.39538574 -0.53375244 0.9291687 -0.9489136 1.482727c-0.67214966 1.3443604 -1.3442993 2.708496 -1.8780823 4.0528564c-0.1383667 0.27676392 -0.41516113 0.6721802 -0.55352783 1.0873413c-0.53378296 1.4827576 -1.0675354 3.1038818 -1.3442993 4.725006c-0.13839722 0.39541626 -0.27679443 0.8105774 -0.27679443 1.2059937c-0.39538574 1.6211243 -0.53375244 3.3806458 -0.67214966 5.140167l0 0.9489746c0 1.8979187 0.27676392 3.6376648 0.55355835 5.3971863c0.39538574 1.8979187 0.25698853 3.7958374 -0.27679443 5.6739807c-0.9489136 2.8468628 -1.482666 5.6739807 -1.8978271 8.659241c-0.53378296 -0.27676392 -1.2059326 -0.55355835 -1.8978577 -0.6721802c-0.9291382 -0.27676392 -1.739685 -0.41516113 -2.550232 -0.41516113c-0.23721313 -0.01977539 -0.4744568 -0.01977539 -0.69192505 -0.01977539c-4.0724487 0 -7.8681335 2.2142334 -11.07077 5.021576c-1.3442993 1.0873413 -2.43161 2.1549072 -3.6572876 3.3806458c0.41513062 -3.6574402 0.69192505 -7.295105 0.9489136 -10.814148c0.27676392 -2.8468933 0.55352783 -5.812378 0.55352783 -8.777863c0.13839722 -7.2951355 -0.81051636 -14.728638 -4.4678345 -20.402618c-0.53378296 -0.8105469 -1.2059326 -1.6211243 -1.8978577 -2.2933044c2.7084045 0 5.2783813 -0.27676392 7.8483887 -0.69195557l-0.1383667 0c1.482666 -0.25698853 2.8467712 -0.53378296 4.1910706 -0.8105469c0.53375244 -0.25701904 1.0873108 -0.39541626 1.7594604 -0.5338135c1.3442993 -0.41516113 2.6885986 -0.9489441 4.1910706 -1.482727c0.25698853 -0.27679443 0.67214966 -0.41516113 0.9291687 -0.55355835c1.5024414 -0.6721802 2.985138 -1.4827576 4.3294373 -2.4317017l1.0873108 -0.6721802c1.4826965 -1.0675964 2.7084045 -2.1549377 3.9143066 -3.3806763c0.27676392 -0.25698853 0.53378296 -0.53378296 0.67214966 -0.8105774c1.3640747 -1.3443298 2.43161 -2.6886902 3.3805237 -4.1714478c0.41516113 -0.69195557 0.8105469 -1.2257385 1.225708 -1.6211243c0.9291382 -0.9489746 1.8781128 -1.759552 2.965393 -2.451477l1.482666 -0.9291992c1.0873413 -0.69195557 2.293274 -1.2257385 3.3805542 -1.8979187c1.0873413 -0.8105774 2.036255 -1.6211243 2.965393 -2.5700989c0.9489136 -1.0873413 1.6210938 -2.4317017 1.6210938 -3.9144287c0.1383667 -1.6211548 -0.118652344 -3.1039124 -0.6721802 -4.5866394c-0.256958 -0.69195557 -0.53375244 -1.3641357 -0.8105469 -2.036316l0 0l0.8105469 0.13839722c0.6721802 0.13839722 1.482727 0.27676392 2.1746216 0.39538574l1.739685 0.55355835c1.3640747 0.25701904 2.5700073 0.39541626 3.934082 0.5338135l1.8781128 0c2.0361938 -0.27679443 3.9143066 -1.3443604 5.001587 -2.9655151zm-95.74237 -106.1449c-4.5271606 0 -9.429932 4.586624 -13.027924 8.718536l-10.537018 12.5737c-1.8780518 2.1549377 -3.7759094 4.448242 -5.53537 6.741577c-3.518921 4.467987 -6.088928 9.588409 -7.5716248 15.143768c-0.67214966 2.6887207 -0.81051636 5.5355835 -0.25698853 8.24408c1.6210632 9.865204 10.398621 15.539185 16.467773 22.972687l-5.930786 -0.13839722c-0.83029175 -0.019744873 -1.660614 -0.019744873 -2.4909058 -0.019744873c-10.734711 0 -22.51715 1.0280151 -29.39685 8.797607c-7.2948303 8.24408 -5.0016174 19.987427 -7.9867554 30.129425c-2.0164795 6.761322 -6.602936 13.641266 -4.7248535 20.402588c0.27676392 0.8105774 0.67214966 1.759552 1.0873108 2.5700989c0.27676392 0.27679443 0.39538574 0.53378296 0.53375244 0.8105774c0.41516113 0.53378296 0.8105469 1.0873413 1.225708 1.6211243l0.67214966 0.8105774c0.67214966 0.6721802 1.3442993 1.2059631 2.1548462 1.8979187c0.8105469 0.6721802 1.8978271 1.3443604 2.8467712 2.0165405c6.9587708 3.9935303 14.84668 6.1286926 22.793915 6.1286926c0.69192505 0 1.3838501 -0.01977539 2.0559998 -0.03955078c2.1746216 -0.13839722 4.4678345 -0.41516113 6.6226807 -0.6721802l0 0c-0.81051636 2.9654846 -1.2059021 6.2077637 -1.3442993 9.3116455c-0.1383667 4.4680176 0.27676392 8.91626 1.3442993 13.384277c0.41516113 1.8781433 0.9489441 3.776062 1.7594604 5.5355835c0 0.27676392 0.13839722 0.53378296 0.13839722 0.8105774c3.242157 8.382446 8.777527 15.539185 16.072388 20.679352c-0.9489136 0.8105774 -1.8780823 1.6211548 -2.6886292 2.5700989c-4.4678345 4.982025 -5.416748 11.347961 -6.0888977 17.83252c-0.27679443 4.052826 -0.9489441 8.244049 -1.8978577 12.158508c-0.25698853 0.9489746 -0.53378296 1.7595215 -0.9291687 2.5700989c-0.9489136 2.5700989 -2.0362244 5.1204224 -2.8467712 7.6905212c-0.9489136 2.4317017 -1.482666 5.1401978 -1.3442993 7.710266c0 0.8105774 0.13839722 1.6211548 0.39538574 2.5700989c0.27676392 0.8105774 0.67214966 1.7595215 1.0873108 2.5700989c0.27676392 0.25701904 0.39538574 0.53378296 0.53378296 0.8105774c0.41513062 0.53378296 0.81051636 1.0675659 1.2256775 1.6211243l0.67214966 0.8105774c0.67214966 0.53378296 1.3442993 1.2059631 2.0164795 1.7397461c0.9489136 0.8105774 1.8978271 1.502533 2.985138 2.036316c6.8006287 4.013275 14.372223 6.1682434 22.200836 6.1682434c0.8896179 0 1.7792358 -0.03955078 2.6490784 -0.07910156c4.467865 -0.1383667 8.797302 -0.8105469 13.106995 -2.1746826l0.13839722 0c1.8978577 -0.5338135 3.77594 -1.3443604 5.673767 -2.1549072l0.67214966 -0.27679443c2.0362244 -0.9489746 3.934082 -2.0165405 5.8121643 -3.3806763c1.7594604 -1.2059631 3.657318 -2.5700989 5.2783813 -4.052826c1.8780823 -1.759552 3.6375427 -3.6376953 5.258606 -5.812378c0.67214966 0.8105774 1.3640747 1.5025024 2.1746216 2.3130798c0.39538574 0.39538574 0.8105469 0.6721802 1.3442993 1.0675659c1.0873108 0.9489746 2.2932434 1.8979187 3.518921 2.708496c0.25701904 0.27679443 0.6721802 0.53378296 0.9489441 0.6721802c1.3442993 0.9489441 2.8269958 1.6211243 4.448059 2.4317017l1.0873108 0.41516113c1.6210938 0.6721802 3.242157 1.2059937 4.8632507 1.6211548l1.0872803 0.118621826c1.7397156 0.41516113 3.499176 0.55355835 5.397003 0.55355835c0.67214966 0 1.2059326 0.1383667 1.8978271 0.1383667c4.44812 0.8105774 7.6902466 4.191223 12.4151 5.001831c0.33605957 0.01977539 0.6524048 0.03955078 0.96868896 0.03955078c1.1466064 0 2.2734985 -0.21746826 3.222412 -0.8501587c2.708374 -1.7595215 4.86322 -4.32959 6.227295 -7.31485c0.8105469 -1.6211548 1.482666 -3.242279 2.0164795 -4.863434l5.5353394 -15.539185c0.9489136 -2.6887207 1.8978882 -5.5355835 2.708374 -8.362671c1.225708 -4.0528564 1.8978882 -8.382477 2.036255 -12.712097c0 -0.13839722 0 -0.25701904 0 -0.25701904c0 -2.7084656 -0.41516113 -5.4169617 -1.0872803 -7.8486633c-0.5338135 -1.3443604 -1.0873413 -2.5700989 -1.7594604 -3.776062c-1.3443604 -2.2933044 -3.1038208 -4.3296204 -5.1400146 -5.812378c-5.930786 -4.725006 -13.779175 -6.761322 -20.125061 -11.090942l0 0l1.0872803 0.27679443l16.349182 2.4317017c4.230591 0.73147583 8.520508 1.0873413 12.790649 1.0873413c2.1350708 0 4.2701416 -0.098846436 6.385498 -0.27676392c0 0.53378296 0.1383667 1.225708 0.2767334 1.6211243c0.13842773 0.9489441 0.39538574 1.7595215 0.5338135 2.5700989l3.7956543 16.072968c0.25701904 1.3641357 0.6721802 2.8468628 0.9291382 4.191223c0.41516113 1.3641357 0.8105469 2.8468933 1.225708 4.1912537c0.8105469 2.8468628 1.8978271 5.5355835 3.1037598 8.244049c1.225708 2.5700989 2.708374 4.863434 4.586487 7.018341c1.7594604 2.1747131 3.934082 3.7958374 6.3656616 5.1401978c3.3015137 1.660675 6.780884 2.2537842 10.280029 2.2537842c1.6605835 0 3.321228 -0.13839722 4.9818115 -0.35586548c2.5700073 -0.27679443 5.2783813 -0.6721802 7.967041 -0.9489746c2.5700073 -0.41516113 5.1400146 -0.53378296 7.8483887 -0.53378296c2.6885986 0.118621826 5.3969727 0.53378296 8.105347 0.9291992c1.482727 0.23724365 2.965393 0.3360901 4.4283447 0.3360901c1.2059326 0 2.3920288 -0.07910156 3.5386963 -0.19769287c1.7594604 -0.13839722 3.3804932 -0.6721802 4.86322 -1.4827576c0.8105469 -0.53378296 1.6210327 -1.0873413 2.293213 -1.7595215c0.1383667 -0.13839722 0.41516113 -0.39541626 0.55352783 -0.53378296c0.5338135 -0.5338135 0.9291382 -1.2257385 1.3442993 -1.759552l0.5338135 -0.8105469c0.41516113 -0.8105774 0.9489136 -1.6211548 1.3640747 -2.4317017c0.39538574 -1.0873718 0.8105469 -2.293335 1.2059326 -3.3806763c2.4315796 -8.24408 2.4315796 -17.021942 0 -25.265991c-1.2059326 -4.329651 -3.1038208 -8.501099 -5.3970337 -12.296936c-1.0872803 -1.7595215 -2.3129883 -3.3806458 -3.518921 -5.0018005c-0.1383667 -0.25698853 -0.27679443 -0.39538574 -0.27679443 -0.53378296c-1.482666 -1.6211243 -2.965332 -3.242279 -4.7247925 -4.8634033c-2.708435 -2.293335 -5.673767 -4.4680176 -8.915955 -6.227539c-2.5700073 -1.3443604 -5.2783813 -2.5503235 -8.105347 -3.499298c-2.1548462 -0.6721802 -4.191101 -1.2257385 -6.3459473 -1.6211243c-2.036255 -0.27676392 -4.191101 -0.55355835 -6.227295 -0.55355835c-5.673767 0 -11.2091675 1.3641357 -16.072388 4.191223c1.7594604 -5.5355835 2.5700073 -11.347961 4.86322 -16.745148c0.41516113 -0.8105774 0.8105469 -1.6211243 1.225708 -2.4317017c0.9291382 -1.8979187 2.0164185 -3.7958374 3.1037598 -5.5355835c1.8780518 -3.7958374 3.4991455 -7.5718994 2.965393 -11.624756c-0.13842773 -1.0873413 -0.39538574 -2.0362854 -0.9489136 -3.1038818c-0.9489746 -2.1746826 -2.4316406 -4.191223 -4.3096924 -5.8123474c2.293213 -0.41519165 4.586426 -0.9489746 6.741272 -1.7595215c6.3657227 -2.4317322 12.03949 -6.346161 16.487549 -11.347961l0 0.1383667c0.9489136 -1.0873413 1.7594604 -2.1746826 2.5700073 -3.2422485c0.2767334 -0.41519165 0.67211914 -0.9489746 0.9489136 -1.3641357c0.8105469 -1.2059631 1.6210938 -2.5700989 2.293213 -3.776062c0.13842773 -0.41516113 0.41516113 -0.6721802 0.5338135 -0.9489746c0.69189453 -1.6211243 1.3640747 -3.1038818 1.8978271 -4.725006c0.1383667 -0.41516113 0.2767334 -0.8105774 0.41516113 -1.2257385c0.39538574 -1.6211243 0.8105469 -3.242279 1.0675049 -5.0018005c0 -0.39538574 0 -0.6721802 0.13842773 -1.0675659c0.1383667 -1.7595215 0.2767334 -3.6574402 0.1383667 -5.416992c-0.41516113 -5.67395 3.2421265 -9.3116455 3.6375122 -14.847229c0.13842773 -2.98526 -1.2059326 -5.9507446 -3.775879 -7.5718994c-2.708435 -1.8979187 -5.5354004 -3.3806458 -8.777588 -4.3296204l-14.451294 -4.586609c-5.673767 -1.8583984 -11.940613 -3.6376953 -17.871399 -3.6376953c-4.4085083 0 -8.639099 0.9884949 -12.276672 3.6376953c-5.258606 3.776062 -7.4332275 9.983826 -9.588074 16.211365c-0.9489136 2.5700989 -1.7594604 5.140167 -2.8269653 7.571869c-0.55358887 1.2059937 -1.0873413 2.293335 -1.6210938 3.499298c-0.41516113 0.8105774 -0.9489136 1.4827576 -1.3640747 2.2933044c-1.0675659 1.6211548 -2.293274 3.3806763 -3.3805542 5.0018005l1.3640747 -15.539185c0.1383667 -2.8270874 0.39538574 -5.8123474 0.39538574 -8.639465c0.1383667 -8.91626 -1.2059326 -17.832489 -7.0180664 -23.644867c-7.710022 -7.967285 -19.591309 -6.484558 -29.456146 -10.141998c-2.5700073 -0.9489441 -5.1400146 -2.2933044 -7.5716248 -3.3806458c-0.8105469 -0.39541626 -1.6210938 -0.8105774 -2.43161 -1.2059937c-1.6210938 -0.67214966 -3.3805542 -1.2257385 -5.1400146 -1.482727c-0.81051636 -0.21746826 -1.6408386 -0.3163147 -2.4909058 -0.3163147c-0.85009766 0 -1.6803894 0.098846436 -2.4909363 0.3163147c-0.9489136 0.13839722 -1.8978577 0.53378296 -2.708374 0.9489441l-0.8105469 0.39541626c-0.67214966 0.41516113 -1.2256775 0.6721802 -1.7594604 1.2257385c-0.27676392 0.118621826 -0.53378296 0.25698853 -0.8105469 0.53378296c-0.67214966 0.53378296 -1.3442993 1.2059631 -1.8978271 1.8979187c-0.53378296 0.53378296 -0.9489441 1.0675659 -1.3443298 1.6211243c-3.2421265 -11.22934 -10.536987 -20.679382 -20.678589 -24.336823c-5.0016174 -1.8781433 -6.8796997 -7.018326 -11.624329 -9.865204c-1.0082092 -0.5930939 -2.09552 -0.86987305 -3.1828308 -0.86987305z" fill-rule="evenodd"/><path fill="#75a644" d="m407.11044 315.58774c-10.754456 0 -22.615997 1.0280457 -29.39682 8.659241c-7.294861 8.382477 -5.0016174 20.007202 -7.9670105 30.129425c-2.016449 7.038086 -6.6226807 13.799438 -4.7248535 20.540985c1.0873108 4.052826 4.5864563 7.295105 8.500793 9.608185c6.6819763 4.092407 14.826904 6.1286926 23.110199 6.1286926c9.509003 0 19.215698 -2.6887207 27.162933 -8.026611c14.728088 -9.865204 23.505615 -28.50827 18.24701 -43.909058c-1.7594604 -5.1401978 1.0675354 -9.726837 0.25698853 -15.143799c-1.0675354 -6.0693665 -9.4496765 -7.5718994 -16.210754 -7.6905212l-16.487549 -0.27676392c-0.8105469 -0.01977539 -1.660614 -0.01977539 -2.4909363 -0.01977539z" fill-rule="evenodd"/><path fill="#759646" d="m406.893 315.58774c-10.537018 0 -22.39856 1.0280457 -29.179382 8.659241c-7.294861 8.382477 -5.1202393 20.007202 -8.105408 30.129425c-2.016449 6.899719 -6.4842834 13.799438 -4.5864563 20.422363c0.9489441 3.1038818 2.965393 5.7926025 5.5354004 7.6905212c-0.8105469 -3.776062 1.7594604 -7.6905212 2.8467712 -11.624756c1.6210632 -5.930969 0.39538574 -12.692291 4.724823 -17.555725c3.7957153 -4.4086914 10.477692 -5.1599426 16.625946 -5.1599426c0.6325989 0 1.2652283 0 1.8780518 0.01977539l9.726471 0.1383667c3.9143066 0 8.915924 0.9489746 9.469452 4.5866394c0.53378296 3.1038818 -1.2256775 5.812378 -0.1383667 8.797638c3.1037598 9.034882 -2.0362244 19.987427 -10.6753845 25.799805c-2.1548462 1.3443604 -4.4678345 2.4317017 -6.761078 3.1038818c8.915924 -0.27679443 17.69345 -2.9655151 25.265076 -7.9673157c14.866455 -9.865204 23.643982 -28.50827 18.385376 -43.909058c-1.7594604 -5.1401978 1.0675354 -9.726837 0.13839722 -15.143799c-0.9489441 -6.0693665 -9.469482 -7.5718994 -16.23056 -7.6905212l-16.467743 -0.27676392c-0.8105469 -0.01977539 -1.6210938 -0.01977539 -2.4513855 -0.01977539z" fill-rule="evenodd"/><path fill="#75a644" d="m491.46576 417.99612c-4.0724487 0 -8.006531 2.2142334 -11.189392 5.021576c-12.968597 10.814148 -18.919159 30.959747 -14.332672 48.238678c4.5864563 17.081268 19.452911 31.355164 35.584595 31.355164c0.079071045 0 0.1581726 0 0.21746826 0c5.4167786 0 8.935699 4.191223 14.332672 5.0018005c0.39538574 0.079071045 0.7709961 0.098846436 1.1663818 0.098846436c5.4365845 0 9.113647 -6.9985657 11.268494 -12.929535c1.7594604 -5.278595 3.6375122 -10.418793 5.5354004 -15.539185c3.775879 -10.675781 7.4332275 -23.387878 1.8978271 -32.97632c-5.555176 -9.588409 -17.298096 -11.209564 -25.957 -17.298706c-5.930786 -4.052826 -10.932404 -10.537384 -17.831848 -10.93277c-0.23724365 -0.01977539 -0.4546814 -0.03955078 -0.69192505 -0.03955078z" fill-rule="evenodd"/><path fill="#759646" d="m491.46576 417.99612c-4.052704 0 -7.868164 2.2142334 -11.189392 5.021576c-2.5699768 2.1746826 -4.86322 4.7447815 -6.8994446 7.5718994c2.43161 -2.293335 5.53537 -3.499298 8.915924 -3.6376953c5.416748 0.39541626 9.469452 5.535614 14.055908 8.777863c6.899475 4.7250366 16.349182 6.069397 20.678589 13.641296c4.3096924 7.710266 1.482727 17.713867 -1.482666 26.214966l-4.4678345 12.2969055c-1.6408691 4.8238525 -4.6062317 10.339691 -8.97525 10.339691c-0.2965393 0 -0.5930786 -0.01977539 -0.8896179 -0.059326172c-4.3294373 -0.69195557 -7.0180664 -4.0726013 -11.347534 -4.0726013c-5.0016174 0 -9.72644 -1.4827576 -13.779144 -4.309845l0 0c6.761078 7.828888 15.9339905 12.830688 25.660461 12.830688c5.4167786 0 8.935699 4.0528564 14.332672 5.0018005c0.39538574 0.059326172 0.7709961 0.098846436 1.1466064 0.098846436c5.45636 0 9.133423 -6.9985657 11.288269 -13.067932c1.8780518 -5.1401978 3.6375122 -10.2803955 5.5354004 -15.400787c3.775879 -10.814178 7.4332275 -23.387878 1.8978271 -32.97632c-5.555176 -9.726807 -17.298096 -11.209564 -25.957 -17.298706c-5.8121643 -4.052826 -10.932404 -10.537384 -17.831848 -10.93277c-0.23724365 -0.01977539 -0.4546814 -0.03955078 -0.69192505 -0.03955078z" fill-rule="evenodd"/><path fill="#75a644" d="m449.6736 433.55508c-10.714935 0 -22.497375 1.0280457 -29.258453 8.797638c-7.294861 8.24408 -5.1400146 19.987427 -8.105408 30.129395c-2.0362244 6.899719 -6.4842834 13.779663 -4.724823 20.402618c1.0675354 4.191223 4.724823 7.295105 8.500763 9.588409c6.7413025 4.151703 14.88623 6.207794 23.169525 6.207794c9.489227 0 19.156403 -2.6887207 27.103607 -7.9673157c14.866486 -9.983826 23.644012 -28.646667 18.227234 -43.909058c-1.739685 -5.2588196 1.0873108 -9.865234 0.27676392 -15.262421c-0.9489136 -6.089142 -9.4496765 -7.5718994 -16.210754 -7.7102966l-16.487549 -0.25698853c-0.81051636 -0.01977539 -1.6408386 -0.01977539 -2.4909058 -0.01977539z" fill-rule="evenodd"/><path fill="#759646" d="m448.36884 433.51553c-10.220673 0 -21.42984 1.324585 -28.092072 8.6987915c-7.2948303 8.382477 -5.0016174 20.007202 -7.9670105 30.129425c-2.0362244 6.761322 -6.6226807 13.779663 -4.724823 20.402588c0.9489136 3.1038818 2.9653625 5.812378 5.53537 7.7102966c-0.8105469 -3.7958374 1.7594604 -7.7102966 2.8269958 -11.624756c1.7594604 -5.9507446 0.41516113 -12.830688 4.744629 -17.5755c3.9143066 -4.4086914 10.616058 -5.140167 16.764313 -5.140167c0.6325989 0 1.2652283 0 1.8780518 0.01977539l9.588074 0.1383667c3.9143372 0 8.915924 0.9291992 9.469482 4.448242c0.53375244 3.242279 -1.0873108 5.950775 -0.13839722 8.91626c3.1037598 9.054657 -2.0362244 20.007202 -10.6753845 25.81958c-2.1746216 1.3443298 -4.329468 2.4317017 -6.761078 3.1038818c9.054321 -0.27679443 17.831848 -2.9852905 25.403473 -7.9673157c14.728058 -9.865204 23.643982 -28.528046 18.246979 -43.928833c-1.7594604 -5.1204224 1.0675659 -9.726837 0.25701904 -15.124023c-1.0675354 -6.089142 -9.588074 -7.5718994 -16.349152 -7.7102966l-16.487549 -0.25698853c-1.1466064 -0.03955078 -2.3327637 -0.059326172 -3.518921 -0.059326172z" fill-rule="evenodd"/><path fill="#75a644" d="m424.03293 366.8117c-0.85009766 0 -1.6803894 0.098846436 -2.5304565 0.27676392c-4.191101 0.8105774 -7.5716248 4.1912537 -10.141632 7.8289185c-9.726471 13.779663 -10.398621 34.73581 -1.4826965 50.274994c7.3937073 12.969086 21.410095 22.221436 35.031067 22.221436c2.530487 0 5.0609436 -0.3360901 7.5321045 -1.0082703c0.98843384 -0.27676392 1.9571533 -0.39538574 2.8862915 -0.39538574c3.7561646 0 7.176239 1.7792969 11.149841 1.7792969c0.3163147 0 0.6326294 -0.01977539 0.9489441 -0.03955078c6.227295 -0.53378296 8.243744 -8.91626 8.797302 -15.677582c0.39538574 -5.5355835 0.9489136 -10.93277 1.3442993 -16.468353c0.9489136 -11.22934 1.2256775 -24.47522 -6.484314 -32.30414c-7.8286133 -7.967285 -19.591309 -6.4845276 -29.594543 -10.141968c-5.7923584 -2.2340088 -11.584747 -6.346161 -17.456207 -6.346161z" fill-rule="evenodd"/><path fill="#759646" d="m423.9736 366.73264c-0.7709961 0 -1.5617676 0.059295654 -2.3327637 0.21746826c-3.1235352 0.8105469 -5.950531 2.5700684 -7.9867554 5.140167c0.33605957 -0.059295654 0.67214966 -0.079071045 1.0082092 -0.079071045c3.4596252 0 6.899475 2.3526306 10.339325 3.5981445c5.812134 2.1549072 12.711609 1.3443604 17.298065 5.930969c4.4678345 4.606415 4.329468 12.296936 3.7956848 18.91986l-0.81051636 9.58844c-0.41516113 3.934204 -1.5024719 8.916229 -5.1400146 9.193024c-0.23721313 0.01977539 -0.4546814 0.039520264 -0.67214966 0.039520264c-2.2339172 0 -4.2306213 -0.9291687 -6.3854675 -0.9291687c-0.5733032 0 -1.126831 0.059295654 -1.7199097 0.21746826c-1.4234009 0.37561035 -2.886322 0.55355835 -4.349243 0.55355835c-7.9867554 0 -16.190979 -5.3378906 -20.658844 -12.988861c-1.2059326 -2.1549377 -2.1548462 -4.448242 -2.6885986 -6.879944l0 0c-0.27679443 9.034851 1.739685 17.970886 6.2075195 25.799774c7.4925537 13.067963 21.410095 22.221436 34.97177 22.221436c2.550232 0 5.100464 -0.3163147 7.5914 -1.0082703c0.9489136 -0.23721313 1.8780518 -0.33605957 2.787445 -0.33605957c3.8154602 0 7.3541565 1.7199707 11.466156 1.7199707c0.3360901 0 0.67214966 0 1.0082397 -0.03955078c6.0888977 -0.6721802 8.105377 -9.054626 8.658905 -15.796173c0.53378296 -5.416992 0.9291687 -10.952576 1.3443298 -16.349762c0.9489136 -11.22934 1.2059021 -24.336823 -6.484314 -32.304108c-7.8483887 -7.8289185 -19.591309 -6.346161 -29.594543 -10.122223c-5.9703064 -2.1549377 -11.74292 -6.30661 -17.65393 -6.30661z" fill-rule="evenodd"/><path fill="#75a644" d="m483.222 269.38535c-0.85006714 0 -1.7001343 0.098846436 -2.550232 0.27679443c-4.1910706 0.8105469 -7.5518494 4.191223 -10.121826 7.8486633c-9.726471 13.779663 -10.418396 34.716034 -1.6210938 50.25522c7.5122986 12.988861 21.548462 22.221436 35.070618 22.221436c2.5304565 0 5.041168 -0.3163147 7.492523 -1.0082703c1.0082703 -0.27676392 1.9967346 -0.39538574 2.9456482 -0.39538574c3.8154297 0 7.25531 1.7792969 11.228882 1.7792969c0.3163452 0 0.6326294 0 0.9489746 -0.03955078c6.088867 -0.53378296 8.105347 -8.916229 8.639099 -15.657806c0.55358887 -5.555359 1.0873413 -10.952545 1.5025024 -16.488129c0.9291382 -11.209564 1.2059326 -24.455444 -6.6226807 -32.304108c-7.710022 -7.9673157 -19.59134 -6.484558 -29.456177 -10.122223c-5.792389 -2.2537842 -11.584778 -6.3659363 -17.456238 -6.3659363z" fill-rule="evenodd"/><path fill="#759646" d="m483.06384 269.30627c-0.7907715 0 -1.581543 0.059295654 -2.3920898 0.21746826c-3.1037598 0.8105469 -5.9307556 2.5700989 -7.96698 5.140167c0.41513062 -0.079071045 0.81051636 -0.098846436 1.2059021 -0.098846436c3.4794006 0 6.761078 2.3921814 10.141632 3.61792c5.812134 2.1549072 12.830231 1.3443604 17.298065 5.930969c4.5864563 4.606415 4.4678345 12.296936 3.9143066 18.91986l-0.8105469 9.608215c-0.39538574 3.9144287 -1.6210632 8.916229 -5.139984 9.173248c-0.21746826 0.01977539 -0.4547119 0.03955078 -0.69192505 0.03955078c-2.3129883 0 -4.329468 -0.9291992 -6.484314 -0.9291992c-0.5733032 0 -1.1466064 0.059295654 -1.739685 0.21746826c-1.4036255 0.37564087 -2.8269958 0.55355835 -4.289917 0.55355835c-7.9274597 0 -16.23056 -5.3378906 -20.559998 -12.988861c-1.225708 -2.1549377 -2.1746216 -4.448242 -2.7084045 -6.879944l0 0c-0.39538574 9.054626 1.7594604 17.970886 6.20755 25.799805c7.3936768 13.067932 21.39029 22.221436 34.97177 22.221436c2.5700073 0 5.1202393 -0.3163452 7.5913696 -1.0082703c0.96868896 -0.23724365 1.8781128 -0.3360901 2.7874756 -0.3360901c3.77594 0 7.25531 1.7199707 11.327759 1.7199707c0.33605957 0 0.6721802 0 1.0280151 -0.01977539c6.2075195 -0.69192505 8.243774 -9.054626 8.777527 -15.8159485c0.41516113 -5.397217 0.9489136 -10.952576 1.3442993 -16.349762c0.9489136 -11.209564 1.225708 -24.317047 -6.6029053 -32.304108c-7.710022 -7.8289185 -19.591309 -6.346161 -29.456146 -10.122223c-5.990082 -2.1549377 -11.74295 -6.30661 -17.752777 -6.30661z" fill-rule="evenodd"/><path fill="#75a644" d="m435.83514 241.21315c-4.5271606 0 -9.410156 4.487793 -12.988373 8.718552l-10.537018 12.5737c-7.2948303 8.639465 -15.261841 19.17685 -13.383759 30.129425c1.7594604 10.952545 12.296448 16.626526 18.24701 25.265991c4.0526733 5.950775 6.484314 13.779663 12.830231 16.626556c1.581543 0.69192505 3.2816772 0.9884949 5.0213623 0.9884949c2.609558 0 5.317932 -0.6524353 7.8286133 -1.5420532c16.072388 -5.535614 28.64563 -22.280762 30.385315 -40.11325c1.7594604 -17.713898 -7.1564636 -36.356964 -22.418304 -41.892548c-5.139984 -1.8979187 -6.8994446 -7.0381165 -11.762695 -9.865219c-1.0279846 -0.61286926 -2.1152954 -0.88964844 -3.2223816 -0.88964844z" fill-rule="evenodd"/><path fill="#759646" d="m435.89447 241.35155c-4.586487 0 -9.449707 4.4680023 -12.909332 8.580154l-10.6753845 12.5737c-7.2948303 8.639465 -15.143219 19.17685 -13.383759 30.129425c1.8978577 10.952545 12.296448 16.626526 18.24701 25.404388c4.0526733 5.812378 6.484314 13.779663 12.830231 16.48816c1.8187561 0.71170044 3.677063 1.0477905 5.53537 1.0477905c1.3245544 0 2.629303 -0.17791748 3.934082 -0.51400757c-3.3805237 -1.7595215 -4.86322 -6.2077637 -7.176239 -9.58844c-3.4991455 -5.0018005 -9.588074 -8.382446 -10.655609 -14.728607c-1.0873108 -6.346161 3.4991455 -12.5737 7.8286133 -17.694122l6.20755 -7.3148804c2.0757751 -2.4910278 4.922516 -5.0808716 7.571594 -5.0808716c0.6524048 0 1.2850037 0.15814209 1.8978577 0.49423218c2.8269958 1.7595215 3.7759094 4.5866394 6.7413025 5.812378c8.935699 3.242279 14.194305 14.056427 13.106995 24.455444c-0.11859131 2.4317017 -0.81051636 4.8634033 -1.6210632 7.156708c5.5551453 -7.156708 8.935699 -15.677582 9.864838 -24.593811c1.6210938 -17.83252 -7.1564636 -36.33719 -22.418304 -42.01117c-5.139984 -1.8979187 -6.8994446 -7.0381165 -11.624298 -9.726822c-1.0675354 -0.61286926 -2.1746216 -0.88964844 -3.3014526 -0.88964844z" fill-rule="evenodd"/><path fill="#75a644" d="m583.47174 411.17548c-6.1679688 0 -12.11853 1.5223083 -17.139893 4.823883c-4.586487 2.9654846 -9.726501 1.3443604 -14.84668 3.519043c-5.555176 2.4317017 -4.8632812 11.0711975 -3.3805542 17.694122l3.77594 15.954346c2.5699463 11.0711975 6.345886 23.644867 16.210754 28.76529c3.3014526 1.7002258 6.701782 2.2537842 10.200928 2.2537842c6.4052124 0 13.087219 -1.8583679 19.74945 -1.8583679c0.41516113 0 0.8500366 0 1.2651978 0.01977539c4.3690186 0.15814209 9.054321 1.2850342 13.443115 1.2850342c2.6688232 0 5.19928 -0.41516113 7.4924927 -1.7002258c3.6573486 -2.1549072 5.9505615 -6.2077637 7.1762695 -10.537384c5.1202393 -16.211365 -0.69195557 -36.33719 -13.9175415 -48.377075c-8.421692 -7.473053 -19.551758 -11.842224 -30.02948 -11.842224z" fill-rule="evenodd"/><path fill="#759646" d="m583.5706 411.0964c-6.1482544 0 -12.079041 1.5222778 -17.100403 4.764557c-4.586487 3.1038818 -9.864868 1.3641357 -14.866455 3.6574402c-5.673767 2.293335 -5.1202393 10.9328 -3.3607788 17.555725l3.77594 16.092743c2.4315796 11.0711975 6.2075195 23.644867 16.072388 28.76529c3.3014526 1.7002258 6.7214966 2.2537842 10.220703 2.2537842c6.444763 0 13.16626 -1.8583679 19.729675 -1.8583679c0.43493652 0 0.8500366 0 1.2651978 0.01977539c4.3690186 0.15814209 9.054321 1.2850342 13.443115 1.2850342c2.6688232 0 5.19928 -0.41516113 7.4924927 -1.7002258c2.708435 -1.7397461 4.8632812 -4.309845 5.9505615 -7.295105l0 0c-1.225708 0.6524048 -2.609558 0.85009766 -4.0526733 0.85009766c-2.5304565 0 -5.258606 -0.6326294 -7.8286133 -0.71170044c-0.27679443 0 -0.55352783 -0.01977539 -0.83032227 -0.01977539c-3.835205 0 -7.670471 1.0873413 -11.387085 1.0873413c-2.0559692 0 -4.0526733 -0.3360901 -6.029602 -1.3443604c-5.673767 -2.9654846 -7.96698 -10.398987 -9.449707 -16.883545l-2.1746216 -9.450043c-0.9489136 -3.795807 -1.3442993 -8.797607 2.036255 -10.280365c2.965393 -1.2059631 5.930786 -0.25701904 8.63916 -2.0165405c2.9456177 -1.9769897 6.444763 -2.8864136 10.082275 -2.8864136c6.069153 0 12.533691 2.5503235 17.357422 6.93927c1.8780518 1.7595215 3.4991455 3.6376648 4.7247925 5.8123474c-2.4315796 -8.797638 -7.156433 -16.626526 -13.779114 -22.715668c-8.342651 -7.552124 -19.452942 -11.921295 -29.930603 -11.921295z" fill-rule="evenodd"/><path fill="#75a644" d="m566.52954 295.22467c-4.4283447 0 -8.63916 0.96875 -12.217407 3.61792c-8.382141 6.089142 -9.054321 18.109283 -14.055908 27.302307c-3.3805542 6.089142 -8.915955 11.624725 -8.915955 18.643066c0.27679443 4.4680176 2.1746216 8.659241 5.2783813 11.90152c8.046082 9.015106 19.452942 13.937805 31.097046 13.937805c4.5666504 0 9.172913 -0.7710266 13.620972 -2.3328247c15.4002075 -5.6739807 27.558289 -21.608582 26.490784 -38.09671c-0.41516113 -5.535614 3.2421265 -9.193054 3.6375122 -14.867035c0.55352783 -6.2077637 -6.6226807 -9.865204 -12.553467 -11.881744l-14.471069 -4.6063843c-5.6539917 -1.8583679 -11.980164 -3.61792 -17.910889 -3.61792z" fill-rule="evenodd"/><path fill="#759646" d="m566.4702 295.36307c-4.388794 0 -8.579834 0.9687195 -12.158081 3.61792c-8.382141 6.2275085 -9.192688 18.109283 -14.055908 27.302307c-3.3805542 6.0693665 -9.054321 11.624725 -8.915955 18.643066c0.27679443 4.4680176 2.1746216 8.5208435 5.2783813 11.763123c2.1548462 2.4317017 4.586487 4.5866394 7.294861 6.484558c-2.1548462 -2.4317322 -3.518921 -5.416992 -3.7956543 -8.797638c0 -5.5355835 4.4678345 -9.845459 7.037842 -14.728638c4.0526733 -7.295105 4.586426 -16.883545 11.209106 -21.746948c2.8270264 -2.0758362 6.187805 -2.8468628 9.706726 -2.8468628c4.705078 0 9.72644 1.3838806 14.21405 2.8468628l11.485962 3.776062c4.7247925 1.502533 10.536987 4.4680176 10.003235 9.331421c-0.41516113 4.4680176 -3.2421875 7.433502 -2.9851685 11.90152c0.2767334 4.8634033 -0.6721802 9.726807 -2.965393 14.175049c6.7610474 -7.295105 10.398621 -16.883545 10.003235 -26.748749c-0.41516113 -5.6739807 3.2421265 -9.331421 3.6375122 -14.867004c0.55352783 -6.2077637 -6.6226807 -9.865204 -12.553467 -11.881744l-14.471069 -4.6063843c-5.733032 -1.8583984 -12.039429 -3.61792 -17.970215 -3.61792z" fill-rule="evenodd"/><path fill="#75a644" d="m474.0293 309.51837c-10.576538 0 -18.148163 8.738312 -27.67691 12.712067c-6.622711 2.827118 -14.866455 3.6376648 -18.780762 9.193024c-2.5700073 3.6376953 -2.8270264 8.224304 -2.1548462 12.692322c2.1548462 16.764923 16.072357 32.699524 33.09369 37.97809c4.4282837 1.3641357 9.074066 2.0560913 13.680298 2.0560913c12.968597 0 25.58139 -5.3774414 31.867981 -15.440338c2.965393 -4.7250366 8.243805 -5.397217 12.019684 -9.450043c4.0527344 -4.606415 -0.1383667 -12.178314 -4.3294373 -17.437103l-10.121857 -12.969086c-7.037842 -8.91626 -15.815369 -18.91986 -26.886139 -19.335022c-0.25701904 0 -0.49423218 0 -0.71170044 0z" fill-rule="evenodd"/><path fill="#759646" d="m474.00952 309.37997c-10.813751 0 -18.266754 8.738312 -27.795532 12.712067c-6.6029053 2.8468933 -14.84668 3.6574707 -18.780762 9.331421c-2.43161 3.6376953 -2.550232 8.224304 -2.1548462 12.692322c0.53375244 3.5190735 1.4826965 6.761322 2.708374 10.003601c-0.55352783 -3.242279 0 -6.622925 1.7594604 -9.469818c3.1037903 -4.448242 9.726471 -5.0018005 14.84671 -7.295105c7.7099915 -3.182953 13.700073 -10.141998 22.220612 -10.141998c0.15814209 0 0.3163147 0 0.49423218 0.01977539c8.777527 0.39541626 15.657227 8.24408 21.212372 15.262421l8.105377 10.26059c3.3805542 4.1912537 6.7413025 10.141998 3.3805542 13.799438c-2.9851685 3.242279 -7.294861 3.776062 -9.607849 7.552124c-2.550232 4.0528564 -6.484314 7.295105 -10.932373 9.331421c10.121826 -1.7595215 19.314514 -6.761322 24.454529 -14.867004c2.965393 -4.725006 8.382172 -5.3971863 12.019684 -9.450043c4.0526733 -4.6063843 -0.1383667 -12.158508 -4.329468 -17.437103l-10.121826 -12.969086c-6.899475 -8.91626 -15.677002 -18.781464 -26.747772 -19.315247c-0.25701904 -0.01977539 -0.49423218 -0.01977539 -0.73147583 -0.01977539z" fill-rule="evenodd"/><path fill="#75a644" d="m543.9333 358.84442c-7.354126 0 -14.767639 1.5815735 -21.370544 4.8634033c-15.9339905 7.828888 -27.162903 25.265991 -23.78238 41.08197c1.0873108 5.3971863 -2.293213 9.58844 -2.1548462 15.124023c0.25701904 6.227539 8.500763 8.659241 15.261841 9.726807l16.210785 2.3130798c4.4678345 0.69195557 9.252014 1.2850647 13.9175415 1.2850647c7.037842 0 13.818665 -1.3641357 18.780762 -5.7530518c8.243774 -7.2951355 7.571594 -19.196655 11.901062 -28.923462c2.8270264 -6.484558 8.243774 -12.830688 7.156494 -19.592041c-0.5338135 -4.309845 -3.6573486 -7.828888 -7.156494 -10.675751c-7.808838 -6.188019 -18.227234 -9.450043 -28.764221 -9.450043z" fill-rule="evenodd"/><path fill="#759646" d="m563.9002 363.03564c2.708374 1.8979187 4.4678345 4.725006 5.1400146 7.967285c0.8105469 5.4169617 -3.3805542 10.398987 -5.673767 15.539185c-3.3805542 7.7102966 -2.8270264 17.16034 -9.449707 22.972687c-3.9736328 3.4795227 -9.27179 4.5273438 -14.826904 4.5273438c-3.7166138 0 -7.5321045 -0.4744873 -11.130066 -1.0082703l-12.968628 -1.8979187c-5.2586365 -0.6721802 -11.74292 -2.708496 -12.019714 -7.5718994c0 -4.448242 2.7084045 -7.6905212 1.759491 -12.020142c-0.9489441 -4.8634033 -0.41516113 -9.865204 1.482666 -14.313446l0 0c-6.2075195 8.224304 -9.331055 18.227905 -7.4332275 27.559326c1.0873108 5.3971863 -2.293213 9.58844 -2.1548462 15.124023c0.13839722 6.227539 8.500763 8.659241 15.261841 9.726807l16.210785 2.3130798c4.4678345 0.69195557 9.232239 1.2850647 13.877991 1.2850647c7.0180664 0 13.779175 -1.3641357 18.820312 -5.7530518c8.382141 -7.2951355 7.571594 -19.196655 11.901062 -28.923462c2.8270264 -6.484558 8.243774 -12.692322 7.156494 -19.592041c-0.5338135 -4.309845 -3.6573486 -7.828888 -7.156494 -10.675751c-2.708374 -2.1549377 -5.673767 -3.9144592 -8.797302 -5.2588196z" fill-rule="evenodd"/></g></svg>