<svg version="1.1" viewBox="0.0 0.0 960.0 720.0" fill="none" stroke="none" stroke-linecap="square" stroke-miterlimit="10" xmlns:xlink="http://www.w3.org/1999/xlink" xmlns="http://www.w3.org/2000/svg"><clipPath id="p.0"><path d="m0 0l960.0 0l0 720.0l-960.0 0l0 -720.0z" clip-rule="nonzero"/></clipPath><g clip-path="url(#p.0)"><path fill="#000000" fill-opacity="0.0" d="m0 0l960.0 0l0 720.0l-960.0 0z" fill-rule="evenodd"/><path fill="#ffffff" fill-opacity="0.2453" d="m822.7809 115.66707l-15.833679 25.870956c85.63977 125.67154 129.97113 363.26474 153.0393 575.794l0 -564.4507c-83.93756 -26.076416 -137.20563 -37.21428 -137.20563 -37.21428z" fill-rule="evenodd"/><path fill="#ffffff" fill-opacity="0.4025" d="m822.7809 115.66707l-15.833679 25.870956c56.056213 41.719315 107.00568 90.07146 153.0393 141.62262l0 -66.90057c-85.34631 -66.98863 -137.20563 -100.593 -137.20563 -100.593z" fill-rule="evenodd"/><path fill="#212121" fill-opacity="0.2767" d="m705.47375 32.213768c-3.9180908 0 -6.838318 3.565876 -6.251343 7.322521c2.4066162 14.24884 9.831848 45.7401 31.696716 64.49397c10.72699 9.332924 42.922607 29.789024 55.05835 37.405037c1.0125122 0.63101196 2.1571655 0.9391632 3.3164062 0.9391632c1.8049316 0 3.6245728 -0.7630615 4.9159546 -2.2304993l24.96112 -28.996613c2.010376 -2.406601 2.010376 -5.91378 0 -8.320389c-9.318237 -10.829704 -34.294067 -39.620872 -45.12378 -48.83639c-21.864868 -18.856602 -54.060486 -21.571365 -68.39734 -21.762135c-0.05871582 -0.014671326 -0.11743164 -0.014671326 -0.17608643 -0.014671326z" fill-rule="evenodd"/><path fill="#ffffff" d="m711.0647 37.10034c-3.9327393 0 -6.9850464 3.74197 -6.0165405 7.7627563c3.0082397 13.529793 11.4313965 41.323105 31.78479 58.87368c11.534058 9.919899 47.04608 31.388542 62.38086 39.31272c0.9244385 0.48425293 1.9076538 0.7190399 2.890808 0.7190399c1.8196411 0 3.5952759 -0.79241943 4.8425903 -2.2305145l15.437439 -17.946785c2.010437 -2.3038788 2.1130981 -5.5175705 0.39624023 -7.9241714c-10.125366 -14.043404 -36.59796 -45.93087 -48.13202 -55.865433c-20.368103 -17.550583 -49.04187 -21.659412 -62.982544 -22.671947c-0.20544434 -0.014671326 -0.41088867 -0.029346466 -0.60162354 -0.029346466z" fill-rule="evenodd"/><path fill="#5bbceb" d="m738.7993 88.38736c-1.232666 0 -2.8468628 0.83644104 -4.1675415 2.3038788c-1.8049927 2.1131134 -2.4066162 4.7104874 -1.2033081 5.723015c0.3375244 0.33751678 0.79241943 0.48426056 1.3353882 0.48426056c1.232605 0 2.8468018 -0.8217697 4.18219 -2.2892075c1.9076538 -2.1131134 2.4066162 -4.6224365 1.2033081 -5.723015c-0.3375244 -0.33750916 -0.8071289 -0.49893188 -1.3500366 -0.49893188z" fill-rule="evenodd"/><path fill="#5bbceb" d="m749.8785 95.60716c-1.2766724 0 -2.8908691 0.83644104 -4.211548 2.3038864c-1.8049927 2.1131134 -2.5093384 4.622429 -1.2033081 5.723015c0.35217285 0.29348755 0.79241943 0.42555237 1.3206787 0.42555237c1.232666 0 2.8468628 -0.80709076 4.18219 -2.230507c1.9077148 -2.1131134 2.4212646 -4.7104797 1.3060303 -5.723015c-0.36688232 -0.33750916 -0.85113525 -0.49893188 -1.394043 -0.49893188z" fill-rule="evenodd"/><path fill="#5bbceb" d="m760.9283 102.73892c-1.232666 0 -2.8027954 0.83644104 -4.1381836 2.2892075c-1.9076538 2.1131134 -2.5093384 4.6224365 -1.3060303 5.723015c0.36688232 0.32283783 0.82177734 0.4695816 1.3500366 0.4695816c1.2766724 0 2.8908691 -0.8657913 4.1675415 -2.2745361c1.9076538 -2.1131134 2.5093384 -4.6077576 1.3060303 -5.723015c-0.36688232 -0.32283783 -0.8364258 -0.48425293 -1.3793945 -0.48425293z" fill-rule="evenodd"/><path fill="#5bbceb" d="m782.9839 117.075806c-1.232666 0 -2.8027954 0.83644104 -4.123474 2.3038864c-1.9077148 2.0984344 -2.4066162 4.6077576 -1.3060303 5.708336c0.35217285 0.29348755 0.8070679 0.44023132 1.3206787 0.44023132c1.2766724 0 2.9348755 -0.83644104 4.2996216 -2.333229c1.8049316 -2.0103912 2.4066162 -4.622429 1.2033081 -5.6202927c-0.36688232 -0.33750916 -0.85113525 -0.49893188 -1.394104 -0.49893188z" fill-rule="evenodd"/><path fill="#5bbceb" d="m794.06305 124.192894c-1.232605 0 -2.8468018 0.83644104 -4.1674805 2.3038788c-1.9077148 2.1131058 -2.4066162 4.607765 -1.3060303 5.723015c0.3668213 0.33750916 0.8510742 0.48425293 1.4087524 0.48425293c1.2619629 0 2.8761597 -0.8217621 4.211548 -2.2891998c1.8049316 -2.1131134 2.4065552 -4.6224365 1.2032471 -5.7230225c-0.33746338 -0.33750916 -0.8070679 -0.49892426 -1.3500366 -0.49892426z" fill-rule="evenodd"/><path fill="#5bbceb" d="m772.0221 109.9147c-1.2766724 0 -2.920166 0.85111237 -4.1968384 2.3479004c-1.9076538 1.9957199 -2.5093384 4.607765 -1.3060303 5.6056213c0.36688232 0.33750916 0.85113525 0.49893188 1.4087524 0.49893188c1.2619629 0 2.8468018 -0.83644104 4.1088257 -2.3038788c1.9076538 -2.098442 2.5093384 -4.607765 1.3060303 -5.7083435c-0.35217285 -0.29348755 -0.8071289 -0.44023132 -1.3207397 -0.44023132z" fill-rule="evenodd"/><path fill="#5bbceb" d="m764.31805 58.97987c-1.1445923 0 -2.5827026 0.49892807 -3.9180298 1.4234161c-2.303894 1.5995064 -3.3017578 4.0061073 -2.5093384 5.31213c0.38153076 0.5576248 1.071228 0.8217697 1.9223633 0.8217697c1.1445923 0 2.5679932 -0.49893188 3.9033813 -1.4234161c2.303894 -1.599514 3.404419 -4.006115 2.5092773 -5.312134c-0.38153076 -0.55762863 -1.071228 -0.8217659 -1.9076538 -0.8217659z" fill-rule="evenodd"/><path fill="#5bbceb" d="m773.53357 68.415504c-1.1445923 0 -2.5679932 0.48425293 -3.9033813 1.4234161c-2.303894 1.5995102 -3.40448 3.903389 -2.5093384 5.2094116c0.39624023 0.5723038 1.1299438 0.85112 2.010437 0.85112c1.1298828 0 2.5239868 -0.45491028 3.8153076 -1.3500443c2.303894 -1.6141891 3.40448 -4.02079 2.49469 -5.312134c-0.38153076 -0.55763245 -1.0565796 -0.8217697 -1.9077148 -0.8217697z" fill-rule="evenodd"/><path fill="#5bbceb" d="m782.7051 77.80712c-1.1152344 0 -2.494629 0.45490265 -3.8446655 1.3500443c-2.303894 1.5995102 -3.4191284 4.0207825 -2.5093384 5.312134c0.38153076 0.5576248 1.071228 0.8217621 1.9076538 0.8217621c1.1445923 0 2.5827026 -0.49892426 3.9033813 -1.4234161c2.3186035 -1.5995102 3.4191895 -4.006111 2.5093384 -5.2094116c-0.3961792 -0.57229614 -1.1005859 -0.85111237 -1.9663696 -0.85111237z" fill-rule="evenodd"/><path fill="#5bbceb" d="m801.2242 96.59035c-1.1445923 0 -2.5827026 0.49893188 -3.9180908 1.4234161c-2.303833 1.5995102 -3.404419 4.006111 -2.494629 5.2094116c0.39624023 0.5869751 1.1152344 0.8657913 1.9957275 0.8657913c1.1299438 0 2.5239868 -0.45490265 3.8153076 -1.3647156c2.303894 -1.7022324 3.40448 -4.006111 2.5093384 -5.312134c-0.38153076 -0.5576248 -1.071228 -0.8217697 -1.9076538 -0.8217697z" fill-rule="evenodd"/><path fill="#5bbceb" d="m810.3516 105.981964c-1.1298828 0 -2.5239868 0.45491028 -3.8153076 1.3647156c-2.303894 1.5995102 -3.40448 4.006111 -2.5093384 5.312134c0.38153076 0.5429535 1.071228 0.8217697 1.9076538 0.8217697c1.1593018 0 2.5827026 -0.49893188 3.9180908 -1.4234161c2.303894 -1.5995102 3.40448 -3.918068 2.5093384 -5.2240906c-0.39624023 -0.57229614 -1.1299438 -0.85111237 -2.010437 -0.85111237z" fill-rule="evenodd"/><path fill="#5bbceb" d="m791.99396 87.16939c-1.1445923 0 -2.5826416 0.48425293 -3.9033813 1.4234161c-2.3185425 1.5995102 -3.4191284 4.006111 -2.5092773 5.312134c0.38153076 0.5429535 1.071228 0.80709076 1.9076538 0.80709076c1.1445923 0 2.5679932 -0.48426056 3.9033813 -1.4087448c2.303894 -1.6141815 3.4191284 -4.0207825 2.5093384 -5.312134c-0.38153076 -0.5576248 -1.071228 -0.8217621 -1.9077148 -0.8217621z" fill-rule="evenodd"/><path fill="#5bbceb" d="m735.5269 47.06426c-3.9327393 0 -7.85083 1.4821129 -10.829712 4.416992c-5.6203003 5.6202927 -6.0165405 14.542332 -0.8951416 20.661549l2.4066162 -2.5093155c-1.4821167 -9.420967 5.869751 -17.63863 15.02655 -17.63863c0.79241943 0 1.5994873 0.058696747 2.4212646 0.1907692l1.7022705 -1.6141853c-2.8615112 -2.3479042 -6.354065 -3.5071793 -9.831848 -3.5071793z" fill-rule="evenodd"/><path fill="#ffffff" fill-opacity="0.4025" d="m701.6101 2.681704c-9.274231 0 -18.504456 3.5512042 -25.518799 10.565567c-13.236328 13.236307 -14.146118 34.39679 -2.1130981 48.733673l5.8257446 -5.7083397c-3.5952759 -22.290413 13.793884 -41.792686 35.45331 -41.792686c1.9223633 0 3.888733 0.14674377 5.869751 0.46958065l3.697998 -3.8153439c-6.7355957 -5.6643176 -14.997253 -8.452454 -23.214905 -8.452454z" fill-rule="evenodd"/></g></svg>