<svg version="1.1" viewBox="0.0 0.0 960.0 720.0" fill="none" stroke="none" stroke-linecap="square" stroke-miterlimit="10" xmlns:xlink="http://www.w3.org/1999/xlink" xmlns="http://www.w3.org/2000/svg"><clipPath id="p.0"><path d="m0 0l960.0 0l0 720.0l-960.0 0l0 -720.0z" clip-rule="nonzero"/></clipPath><g clip-path="url(#p.0)"><path fill="#000000" fill-opacity="0.0" d="m0 0l960.0 0l0 720.0l-960.0 0z" fill-rule="evenodd"/><path fill="#ffffff" fill-opacity="0.2453" d="m675.9076 576.5352c0 -70.92508 -80.43854 -374.5161 -134.86078 -571.61865l-315.83072 0c4.599701 4.5996943 9.7379 9.27792 15.481903 14.034677c189.6196 158.48752 403.77466 573.52576 403.77466 573.52576l31.289124 -11.196289c0.10095215 -1.4360352 0.14581299 -3.0178833 0.14581299 -4.7455444z" fill-rule="evenodd"/><path fill="#ffffff" fill-opacity="0.4025" d="m667.7067 585.039c-7.4380493 -62.33142 -144.68848 -391.57983 -224.95874 -580.12244l-160.02448 0c183.02295 172.12953 369.1872 583.8022 369.1872 583.8022l15.7960205 -3.6797485z" fill-rule="evenodd"/><path fill="#212121" fill-opacity="0.2767" d="m705.81683 648.45874c0 -7.090271 -0.9760132 -14.472229 -3.6011963 -21.472778c-4.756775 -12.576233 -25.231018 -48.846497 -25.231018 -48.846497l-35.27179 13.193298c0 0 8.436523 40.791443 13.114746 53.446167c10.197815 27.138245 42.866882 42.3172 42.866882 42.3172c0 0 8.1223755 -18.140747 8.1223755 -38.63739z" fill-rule="evenodd"/><path fill="#ffffff" d="m701.9913 647.98755c0 -7.482971 -1.0097046 -15.437073 -3.836853 -22.998474c-4.5996704 -12.183594 -23.929626 -44.931213 -29.673645 -52.447754l-24.008118 9.053528c0.6170044 9.356445 7.595093 46.771057 12.194763 58.96582c9.816467 26.218262 39.187195 41.55432 39.187195 41.55432c0 0 6.1366577 -15.6501465 6.1366577 -34.12744z" fill-rule="evenodd"/><path fill="#5bbceb" d="m695.5741 646.92175c0 -2.4681396 -0.7404175 -4.98114 -2.333496 -7.213684c0.04486084 0.40386963 0.05609131 0.7965088 0.05609131 1.189209c0 5.1381836 -3.1860962 9.771545 -8.099915 11.62262c-5.216736 1.918396 -11.117798 0.14587402 -14.337585 -4.375305c0.7628784 8.055054 9.042297 13.193237 16.63739 10.354919c5.104553 -1.8959961 8.077515 -6.6415405 8.077515 -11.577759z" fill-rule="evenodd"/><path fill="#ffffff" fill-opacity="0.4025" d="m734.7837 676.3486c0 -4.9138184 -0.8526001 -9.906189 -2.670044 -14.786316c-1.3013916 -3.3656616 -3.0627441 -6.585449 -5.126953 -9.580872c0.12335205 1.3687134 0.19067383 2.7374268 0.19067383 4.083679c0 17.83783 -11.072876 34.03772 -28.024475 40.30902c-18.174377 6.899536 -38.805725 0.69555664 -50.14789 -15.179016c0.38146973 3.6012573 1.2228394 7.2024536 2.4456787 10.579285c8.29071 22.089783 32.971985 33.12903 55.286133 24.771057c17.332947 -6.462036 28.046875 -22.8302 28.046875 -40.19684z" fill-rule="evenodd"/></g></svg>