<svg version="1.1" viewBox="0.0 0.0 960.0 720.0" fill="none" stroke="none" stroke-linecap="square" stroke-miterlimit="10" xmlns:xlink="http://www.w3.org/1999/xlink" xmlns="http://www.w3.org/2000/svg"><clipPath id="p.0"><path d="m0 0l960.0 0l0 720.0l-960.0 0l0 -720.0z" clip-rule="nonzero"/></clipPath><g clip-path="url(#p.0)"><path fill="#000000" fill-opacity="0.0" d="m0 0l960.0 0l0 720.0l-960.0 0z" fill-rule="evenodd"/><path fill="#ffffff" d="m629.4158 49.73771l176.04224 267.1386l-110.47308 23.75174l-132.03546 146.99619l-185.71332 62.055573l-65.58435 92.421936l-176.0422 -267.57956l67.33307 -94.18582l183.08267 -61.17366l130.27155 -145.23228l113.1189 -24.19271zm20.239502 -49.738754l-156.66953 33.894123l-132.03546 146.98097l-185.72853 62.055588l-92.86428 130.71059l227.5304 346.36172l94.628204 -132.9154l183.52365 -61.173645l130.27155 -145.2323l159.31537 -33.878937l-227.97137 -346.8027z" fill-rule="evenodd"/><path fill="#70c8f5" d="m639.5279 24.647846l-134.6661 29.043415l202.01437 306.75018l134.66614 -29.043427l-202.0144 -306.75015z" fill-rule="evenodd"/><path fill="#70c8f5" d="m188.86171 261.4201l-80.091064 112.6611l201.99919 306.75015l80.10626 -112.22009l-202.01439 -307.19116z" fill-rule="evenodd"/><path fill="#70c8f5" d="m373.26733 199.8055l-184.40562 61.61461l202.01439 307.19116l184.40564 -61.614624l-202.0144 -307.19116z" fill-rule="evenodd"/><path fill="#70c8f5" d="m504.8618 53.69126l-131.59445 146.11423l202.0144 307.19116l131.59442 -146.5552l-202.01437 -306.75018z" fill-rule="evenodd"/><path fill="#000000" fill-opacity="0.0" d="m127.246185 402.24268l80.10626 -112.6611l184.40561 -61.61461l131.59448 -146.11423l134.66614 -29.043415" fill-rule="evenodd"/><path stroke="#5bbceb" stroke-width="2.0183727034120733" stroke-miterlimit="28.9426" stroke-linecap="butt" d="m127.246185 402.24268l80.10626 -112.6611l184.40561 -61.61461l131.59448 -146.11423l134.66614 -29.043415" fill-rule="evenodd"/><path fill="#75a644" d="m431.3702 221.80855c-1.322937 0.44096375 -3.086853 0.44096375 -4.850769 1.3229218c-0.881958 0 -2.204895 1.3229218 -2.204895 1.7638855c-0.42578125 0 -1.3077393 -1.3229218 -1.7487183 -1.3229218c-0.74508667 -0.04560852 -1.4902039 -0.07601929 -2.2200928 -0.07601929c-6.7363586 0 -13.320648 1.824707 -18.475555 5.7934723c-0.440979 0.440979 -0.440979 0.88194275 0 1.3229218c0.440979 0.88194275 0.881958 1.3229218 1.322937 1.7638855c-1.322937 0.440979 -2.6306458 0.440979 -3.5126343 1.307724c-2.204895 1.3229218 -4.40979 3.96875 -5.732727 4.409729c-0.6538696 0.3345337 0.9275818 3.4061432 -0.12164307 3.4061432c-0.34973145 0 -0.9884033 -0.3345337 -2.0680542 -1.2012787c-1.292511 -1.0187988 -2.4481812 -1.414154 -3.527832 -1.414154c-2.204895 0 -4.090454 1.6878662 -6.1585083 3.1628418c-1.322937 1.3229218 -4.3945923 0.88194275 -6.1585083 1.7639008c-1.763916 0.44096375 -3.527832 1.3229218 -5.2917786 2.6458282l-0.7602844 0.38015747l0 0c0 -0.04562378 -0.10644531 -0.16726685 -0.5474243 -0.38015747c-0.881958 -0.44096375 -1.763916 -0.88194275 -2.204895 -0.88194275c-2.2049255 1.7639008 -7.040497 1.7639008 -4.3945923 6.5993958c0 0 0 0.440979 0 0.88194275l-8.804413 5.2764893c-0.881958 0.4409485 -0.881958 0.8819275 -1.322937 1.3229065c-0.881958 0.881958 -2.204895 1.7638855 -3.527832 2.6458435c-0.881958 0 -2.1896973 -0.440979 -3.5126343 -0.440979c0 0 0.440979 0.881958 -0.440979 0.881958l-2.204895 0c-4.3945923 1.3077087 -8.363403 2.6306152 -12.317017 4.3945312c-1.7639465 0.8819275 -3.9688416 2.6458435 -5.2917786 4.409729c-0.13684082 0.13684082 -0.2889099 0.1824646 -0.440979 0.1824646c-0.2889099 0 -0.5778198 -0.1824646 -0.86676025 -0.1824646l-1.322937 0c-2.204895 2.1896667 -4.40979 4.8355103 -6.5994873 7.0403748c-0.440979 0.4409485 -0.440979 0.4409485 -0.881958 0.4409485l0 -0.4409485c1.322937 -3.0868225 3.0716553 -5.732666 4.3945923 -8.80426c0.440979 -1.322937 0.440979 -3.0868225 0.440979 -4.850708l0 0l-7.0404663 2.645813c-1.763916 0.440979 -3.9536133 1.322937 -5.7175293 2.204895c0 -0.881958 0 -1.322937 0.440979 -1.763916l-0.881958 0c-1.763916 2.6458435 -3.527832 4.8355103 -5.7175293 7.4813538c0 0.440979 0 1.7638855 0 1.7638855c-3.527832 3.5125732 -7.4814453 6.5993958 -11.009308 10.111969c-0.440979 0.440979 -4.8355713 3.9687805 0.440979 4.850708c0 0 0 0.440979 0 0.440979c0 0.881958 0 1.7638855 -0.440979 2.1896667l-3.086853 0c-1.3077393 0.881958 -2.6306763 2.2048645 -3.9536133 3.0868225c-0.440979 0.4409485 -0.440979 1.3229065 -0.881958 2.2048645c0.881958 0.4409485 1.763916 0.4409485 2.645874 1.3229065l5.2765503 2.6306458c0 0 0 0.440979 0 0.440979c-0.2889099 0 -0.39535522 0.39535522 -0.5474243 0.39535522c-0.09121704 0 -0.1824646 -0.09124756 -0.3345337 -0.39535522c-0.881958 -0.440979 -1.763916 -1.763916 -2.204895 -1.763916c-2.1896973 0.440979 -4.3945923 1.322937 -6.1585083 2.2048645c-0.881958 0 -1.322937 1.322937 -1.322937 1.322937c0 0.440979 0.440979 1.3229065 0.440979 1.3229065c0.440979 0 0.881958 -0.440979 1.322937 -0.440979c0.440979 0 1.322937 0 1.763916 0.440979c-0.440979 0 -0.440979 0.440979 -0.440979 0.440979c-1.322937 0.440979 -3.086853 0.881958 -4.3945923 0.881958c-0.440979 0 -0.881958 -1.763916 -1.763916 -2.6458435l0 0c0 0.8819275 0.440979 1.7638855 0.440979 2.2048645c0.881958 2.1896667 1.7487183 4.3945312 2.6306763 6.1584167l0.881958 0c1.763916 0 3.527832 -0.440979 5.291748 -0.440979c0.86676025 0 1.7487183 0.881958 2.1896973 1.322937c0 0 -0.881958 0.4409485 -0.881958 0.8819275c-0.440979 -0.440979 -1.3077393 -1.3229065 -2.1896973 -1.3229065c-0.881958 0 -1.763916 0 -2.645874 0.440979c-0.440979 0.4409485 -0.440979 1.3229065 -0.440979 1.7638855c0.440979 1.7486877 0.440979 3.9535522 0.440979 5.7174377c-0.440979 1.322937 -2.645874 1.7638855 -3.9536133 2.6306458c0 0 -0.440979 -0.42578125 -0.881958 -0.42578125c0.440979 -0.440979 0.440979 -0.440979 0.881958 -0.8819275c0.86676025 -1.763916 1.3077393 -3.5278015 1.7487183 -5.291687c0 -0.881958 -1.7487183 -1.322937 -2.6306763 -2.6306458c-1.322937 -2.2048645 -2.645874 -4.409729 -3.968811 -7.040344l-1.763916 0c-5.2765503 0.86672974 -2.6306763 5.7174377 -3.9536133 7.9223022c0 0.42575073 2.204895 2.1896667 3.5126343 3.0715942c0.881958 0.440979 1.763916 1.322937 3.086853 1.763916c-0.881958 0.4409485 -1.763916 0.8819275 -3.086853 1.3229065c-0.39535522 0.09124756 -0.79074097 0.12164307 -1.1860962 0.12164307c-0.6994934 0 -1.3837585 -0.09121704 -2.0224304 -0.09121704c-0.5930176 0 -1.1404419 0.07601929 -1.6270447 0.41055298c-1.322937 1.3229065 -6.1585083 0 -3.5126343 4.3945312c-0.881958 0.440979 -1.763916 1.3229065 -2.645874 1.7638855c-1.9464111 1.1556396 -2.5090332 5.0635986 -5.64151 5.0635986c-0.41056824 0 -0.881958 -0.076049805 -1.3989716 -0.22808838c-1.322937 3.086792 -2.645874 6.1584167 -4.4098053 8.80426c-0.440979 0.8819275 -2.189682 1.3229065 -3.5126343 2.2048645l0 -2.6458435c0 -0.440979 0 -0.440979 -0.440979 -0.881958l-3.086853 1.322937l0 0.4409485c1.322937 1.322937 2.645874 2.6458435 3.9688263 4.3945312c0 0 -0.44099426 0.440979 -1.3229523 1.322937c-0.440979 0.440979 -1.763916 0.440979 -2.204895 1.3229065c-0.440979 0.881958 -0.881958 2.2048645 -0.881958 3.0868225c0 0.440979 0.881958 1.3229065 1.322937 1.7486877l-3.5126343 1.7638855l-1.322937 0l1.322937 0.881958l1.3077393 0.440979c0 0.4409485 -0.42578125 1.3229065 -0.86676025 1.3229065c-1.763916 -0.440979 -3.527832 -0.440979 -5.291748 -0.881958c-0.881958 -0.4409485 -1.7487183 -1.3229065 -2.6306763 -1.7638855c-0.881958 -0.440979 -1.763916 -0.440979 -2.645874 -0.440979c0.881958 -0.4409485 1.763916 -0.8819275 2.645874 -0.8819275c1.307724 -0.440979 3.0716553 -0.86676025 4.8355713 -1.7486877c1.322937 -1.322937 2.645874 -3.0868225 3.9536133 -4.850708c-0.86676025 -0.440979 -1.7487183 -1.322937 -2.6306763 -1.322937c-1.322937 0 -3.086853 0 -4.40979 0.440979c-3.5126343 1.322937 -7.0404816 2.2048645 -10.553116 3.5278015c-0.440979 0 -1.322937 0.440979 -1.763916 0.8819275c0 -0.4409485 0 -0.8819275 0 -0.8819275c0 -0.440979 0 -0.881958 0.440979 -1.322937c-0.881958 0 -1.322937 0 -2.204895 0.440979c-0.881958 0.881958 -2.6306763 2.2048645 -3.5126343 3.0868225c-0.440979 0.440979 -0.881958 0.8819275 -1.763916 1.3077087c-0.440979 0.440979 -0.881958 0 -1.763916 0.881958c-0.88197327 1.3229065 -1.3229523 1.7638855 -2.2049103 3.527771c-1.307724 1.7638855 -3.0716553 3.5125732 -3.9536133 5.7174377c-0.440979 1.322937 -0.881958 2.6458435 -0.881958 3.9687805c-0.440979 1.7486877 0 3.0715942 0 4.8354797c-0.440979 2.6458435 -1.322937 5.2764893 -1.763916 7.4813538l0 0.881958l0.881958 -0.440979l0.881958 -0.881958l0 0c0 0.881958 -0.440979 1.322937 -0.440979 2.2048645c-0.881958 0.881958 -1.763916 1.763916 -2.204895 3.0716248c-0.86676025 0.8819275 -1.3077393 1.7638855 -1.7487183 3.086792c0 0.440979 0 0.881958 0 1.763916l1.3077393 -0.881958l1.322937 0c0 0.440979 -0.440979 1.3229065 -0.440979 1.3229065c-0.440979 0 -0.881958 0.440979 -1.3077393 0.881958c0 0 0.42578125 0.86672974 0.42578125 0.86672974l1.322937 -0.86672974c0 -0.440979 0 -0.440979 0.440979 -0.440979c0 0 0.440979 0.440979 0.440979 0.440979c0 0.86672974 0.440979 2.1896667 1.322937 3.0716248c0.440979 0.8819275 1.322937 1.3229065 2.2049103 1.7638855c0.440979 -0.881958 1.322937 -2.2048645 2.630661 -3.0868225c0.39537048 -0.7755127 0.7907257 -2.265686 1.8095398 -2.265686c0.121658325 0 0.2585144 0.030395508 0.39537048 0.07601929c0.881958 0.440979 2.204895 2.1896667 3.086853 2.1896667c0.04562378 -0.015197754 0.10644531 -0.015197754 0.15205383 -0.015197754c1.1860962 0 2.1744995 3.147644 3.543045 3.147644c0.5930481 0 1.2469177 -0.57785034 2.0224304 -2.2504883c0.881958 -2.1896667 -0.440979 -7.922333 -2.204895 -7.922333l-0.440979 0c0 -0.440979 0 -0.8819275 0.440979 -0.8819275c2.204895 -1.7486877 3.086853 -2.6306458 -0.881958 -3.0716248c-0.881958 -0.440979 -1.7487183 -1.3229065 -1.7487183 -2.2048645c0 -4.3945312 0 -8.80426 0.440979 -13.1987915c0.42578125 -0.8819275 2.6306763 -1.3229065 3.9536133 -1.7638855c0 0.881958 0.881958 1.7638855 0.881958 2.6458435c-0.440979 2.6306458 -1.322937 5.7174377 -0.440979 7.9223022c1.0492249 1.8247375 2.402588 3.3605347 3.984024 3.3605347c1.0796356 0 2.2505188 -0.6994934 3.4974365 -2.4785767c0.881958 -1.322937 2.204895 -2.2048645 3.527832 -3.0868225c0.86676025 -0.440979 1.7487183 -0.440979 2.6306763 -0.440979l0 0.440979l-3.9536133 3.9535522l-2.6458893 2.6458435c0.88197327 0.440979 1.3229523 0.881958 2.2049103 1.7638855c0.440979 0.881958 0.881958 1.322937 1.322937 2.6458435l-2.204895 0.42578125l-1.3229523 0c0 0.440979 0 0.8819275 0 1.3229065c0.88197327 2.2048645 0.88197327 4.409729 0.88197327 6.5993958c0 1.322937 -2.2049103 2.2048645 -3.5278473 3.0868225c-2.1896973 1.7638855 -4.3945923 3.527771 -6.5994873 5.2764587c-0.030410767 0.04562378 -0.0912323 0.06085205 -0.15206909 0.06085205c-0.6690674 0 -2.5698395 -1.9311829 -3.3605652 -3.1324463c-0.881958 -0.881958 -1.322937 -1.7638855 -1.763916 -2.6458435l-1.322937 0.881958c0.440979 1.7638855 0.881958 3.5125732 1.763916 5.2764587c0.440979 0.881958 0.440979 2.2048645 0.440979 3.5278015c-0.440979 1.7638855 -1.763916 2.6306152 -2.204895 4.3945312c-0.440979 3.086792 -0.88197327 5.7174377 -1.7639313 8.80426c-0.881958 2.2048645 -2.189682 4.409729 -3.9536133 6.5993958c-0.440979 0.4409485 -0.440979 0.8819275 0 1.3229065l0.440979 0c2.2049103 0.440979 4.3945923 0 5.7175446 0.881958c1.322937 1.3229065 2.204895 3.086792 3.086853 5.2764587c0 0.440979 -2.204895 1.322937 -2.204895 2.2048645c-0.881958 3.0868225 -10.127335 0.881958 -4.8355713 7.4813538c1.748703 2.2048645 3.0716553 4.8355103 4.8355713 7.0403748c0.21287537 0.22808838 0.881958 0.3345337 1.642273 0.3345337c0.7755127 0 1.6574707 -0.10644531 2.3113403 -0.3345337c1.763916 -1.322937 4.850769 -2.6458435 5.291748 -4.8355103c0 -2.6458435 0 -5.732666 -0.440979 -8.80426c0 -1.322937 0.440979 -3.0868225 1.322937 -4.409729c0.44099426 -1.3077087 0.86676025 -2.6306458 1.7487183 -3.9535522c0.440979 -0.440979 0.881958 -0.881958 1.322937 -1.322937c0.71469116 -1.4293518 0.85154724 -3.999176 2.980423 -3.999176c0.50180054 0 1.1100464 0.13687134 1.8703613 0.48660278c1.7487183 0.86672974 3.9536133 1.3077087 6.5994873 1.7486877c2.1896973 0.440979 4.3945923 1.3229065 6.5994873 1.7638855c0 0 0 1.763916 0 1.763916l0.44099426 -0.881958c0 -0.881958 -0.44099426 -1.7638855 -0.88197327 -2.6458435c0 -0.440979 -0.440979 -0.881958 -0.440979 -1.3077087c0 0 0 -0.440979 0.440979 -0.440979c0.88197327 -0.440979 1.3229523 -0.440979 1.7639313 -0.440979l-2.2049103 -0.440979l-11.450272 -3.086792l0.44099426 -2.6458435c3.086853 0.440979 5.732727 0.8819275 8.363403 1.3229065c1.322937 0 2.645874 0.440979 3.9688263 0.881958c2.630661 0.8819275 5.2765503 2.2048645 7.4814453 3.527771c0.440979 0 0.440979 0.440979 0.440979 0.440979c0 0.440979 -0.440979 0.881958 -0.440979 0.881958l1.322937 1.7486877c0.440979 -1.322937 0.881958 -2.6306458 1.3077393 -3.9535522c0 0 -0.86676025 -0.881958 -1.3077393 -0.881958l0.881958 0c-0.440979 -0.440979 -1.322937 -1.7638855 -2.204895 -3.0868225c-0.21289062 -2.3113098 0.48660278 -2.9195251 1.4597931 -2.9195251c1.0644379 0 2.4634094 0.7298889 3.375763 0.7298889c0.44100952 0.4409485 0.44100952 1.3077087 1.7639465 2.1896362c0.881958 0.881958 2.204895 2.2048645 3.086853 2.2048645c2.6306763 -0.8819275 6.1585083 -1.3229065 7.4814453 -3.527771c1.1556702 -1.6270447 1.9616089 -2.6458435 2.7827454 -2.6458435c0.71469116 0 1.4597778 0.79071045 2.493805 2.6458435c1.322937 3.0868225 1.763916 8.80426 -0.440979 10.127167c-0.881958 0.440979 -1.763916 0.440979 -2.645874 0.881958c-2.6306763 1.7638855 -5.7175293 3.5278015 -8.804382 4.8355103c-3.5126343 0.8819275 -7.9224396 0 -4.3945923 5.7326355c0 0 -1.3229675 1.7486877 -1.7639465 1.7486877c-3.953598 0.881958 -7.48143 1.322937 -10.994064 1.322937c-0.7907257 0.19766235 -1.8399506 0.5778198 -2.7219086 0.5778198c-1.0948486 0 -1.9311981 -0.5778198 -1.6878967 -2.7674866c0 -0.881958 -2.6306763 -3.0868225 -2.6306763 -3.0868225c-3.527832 2.2048645 -7.0404663 4.8355103 -10.568298 7.4813538c-2.2049103 2.6458435 -3.9688263 4.8355103 -6.1585236 7.4813232c-0.440979 0.881958 -2.645874 0.881958 -2.645874 0.881958c-0.440979 4.3945312 0 8.363281 0 12.3168335c0.440979 1.763916 0.440979 3.5278015 0.440979 5.291687c0 5.2764893 0 10.993927 0.881958 15.844635c1.763916 4.3945312 4.3945923 7.9071045 7.4814606 10.993927c0.881958 1.7638855 2.204895 2.6458435 3.527832 3.527771c2.1896973 0.881958 3.9536133 1.3077087 5.7175293 1.3077087c3.7863464 1.1404724 7.5878906 3.269287 10.811615 3.269287c0.51701355 0 1.0188141 -0.060821533 1.5054169 -0.1824646c3.968811 -0.881958 6.599472 -4.8355103 9.686356 -7.9223022c1.9007568 -1.9007568 2.8131409 -5.1092224 5.85437 -5.1092224c0.48660278 0 1.0188293 0.09124756 1.6270752 0.27371216c0.440979 0.21289062 0.881958 0.31933594 1.322937 0.31933594c0.440979 0 0.881958 -0.10644531 1.322937 -0.31933594c0.7451172 0 1.8247375 -0.97317505 2.402588 -0.97317505c0.09121704 0 0.16726685 0.030395508 0.22808838 0.09121704c1.322937 0.881958 2.645874 2.2048645 3.968811 3.5126038c1.7487183 2.2048645 3.5126343 4.409729 5.7175293 6.1736145c2.204895 1.7486877 5.7175293 1.7486877 7.0404663 3.9535522c3.9688416 3.5278015 7.040497 7.922333 8.804413 12.757843c3.086853 10.127136 13.639954 14.095886 21.121399 20.695312c2.204895 1.3077393 4.40979 3.5125732 6.5994873 5.2764893c1.0948486 1.3685303 2.0224304 2.7218628 3.1932983 2.7218628c0.71469116 0 1.5358276 -0.50183105 2.5394592 -1.8399048c0.86672974 -0.881958 2.1896973 -1.763916 3.0716553 -3.086853c1.763916 -2.1896362 3.527832 -4.8355103 4.850769 -7.9223022c2.1896973 -6.1584473 -3.527832 -12.3168335 -0.881958 -18.47528c0.440979 -0.881958 -0.881958 -2.645813 -1.763916 -3.086792c-4.4098206 -2.6458435 -3.527832 -6.1584167 -2.204895 -10.127197c0.440979 -0.86672974 1.322937 -2.1896362 0.881958 -2.6306152c-1.322937 -3.9687805 -3.5278625 -7.4813538 -5.2765503 -11.009125c-2.2049255 -3.0716248 -6.158539 -4.8355103 -7.040497 -8.363312c-1.322937 -4.3945007 -1.322937 -9.230011 0 -14.080719c1.3077393 -6.5993958 1.3077393 -13.6397705 -0.881958 -20.239166c-0.440979 -0.8819275 -0.881958 -1.3229065 -1.322937 -2.2048645l-0.440979 0c-1.322937 1.7638855 -2.645874 3.5278015 -4.3945923 5.2764893c-1.763916 0.8819275 -3.527832 1.3229065 -5.291748 1.3229065c-2.1896973 -0.440979 -4.3945923 -1.3229065 -6.5994873 -2.6306152c-3.5126343 -1.322937 -6.5994873 -3.0868225 -10.12735 -4.850708c-4.8355713 -3.0716248 -9.671143 -7.0403748 -14.962891 -10.993927l-2.1896973 -1.7638855l0 0c0.881958 0.4409485 2.1896973 0.8819275 2.6306763 0.8819275l0.881958 0c0.5930481 0 1.1708679 -0.19766235 1.763916 -0.19766235c0.2889099 0 0.5930481 0.04559326 0.881958 0.19766235c3.9536133 2.6306458 8.363434 5.2764893 12.758026 7.922333c3.968811 2.6306152 8.363403 5.7174377 12.773193 8.363281c0.24328613 0.12164307 0.50180054 0.1824646 0.76031494 0.1824646c0.6234436 0 1.2469177 -0.31933594 1.8703613 -0.6234436c2.204895 -3.96875 4.40979 -7.9223022 6.1585083 -12.332062c1.322937 -4.3945007 2.204895 -8.80426 3.086853 -13.1987915c0 -0.8819275 -2.645874 -2.2048645 -3.968811 -3.086792c-1.3077393 -0.440979 -2.6306763 -0.86676025 -3.5126343 -1.3077087c-0.440979 0 -0.881958 -0.440979 -1.322937 -0.440979c0 0.440979 0 0.8819275 0 1.3077087c-0.881958 1.7638855 -1.763916 3.527771 -3.0716553 4.850708l-2.204895 -1.7638855l-0.440979 0l0 0.4409485l0 1.322937l-1.763916 -0.881958c-0.881958 -0.440979 -2.204895 -1.3229065 -3.0716553 -1.7638855c-1.763916 -0.881958 -3.086853 -1.7638855 -3.968811 -2.6306458c-0.440979 -0.4409485 0.440979 -2.645813 0.440979 -2.645813c1.763916 0.4409485 3.086853 0.4409485 4.3945923 0.8819275c1.5510254 0.440979 3.1932983 1.0948486 4.7443237 1.0948486c1.5358276 0 2.96521 -0.6538696 4.0600586 -2.8587341l0.881958 0c1.0948486 0.50180054 2.0680542 0.6994629 2.96521 0.6994629c3.086853 0 5.2157288 -2.4177551 7.6030884 -3.7862854c1.763916 -0.86672974 3.5126343 -1.7486877 5.7175293 -1.7486877c0.8819885 -0.22808838 1.8703918 -0.3345337 2.8587952 -0.3345337c0.9883728 0 1.9767761 0.10644531 2.8587646 0.3345337c0.440979 0 0.440979 0.440979 0.440979 0.881958c0 0.42575073 0 0.86672974 0 1.3077087l3.086853 0c0.440979 0 0.881958 -0.881958 0.881958 -1.3077087c0 -0.881958 0 -1.7638855 0 -2.2048645c0.881958 0.440979 1.7487183 1.7638855 2.1896973 2.2048645c0.440979 0.42575073 0.440979 1.3077087 0.881958 1.7486877c5.732727 4.850708 11.450256 9.245239 16.726807 14.080719c0.440979 0 1.763916 -0.86672974 1.763916 -0.86672974c-0.881958 -3.96875 -2.204895 -7.9223022 -3.527832 -11.891083c-0.440979 -0.8819275 -0.440979 -1.7638855 0 -2.6458435c0.881958 -4.3945007 1.763916 -8.789032 2.645874 -12.7578125c0.440979 -1.3229065 1.322937 -2.6458435 2.204895 -4.3945312c0 -0.8819275 0 -2.2048645 0 -3.086792c0 -0.440979 -0.881958 -0.881958 -1.322937 -0.881958l1.763916 0c2.1896973 1.322937 4.835602 3.0868225 6.599518 4.409729c1.322937 0.881958 2.6306763 2.1896667 4.3945923 3.5126038c0.440979 0.4409485 0.881958 0.8819275 1.322937 1.7638855c0.440979 -0.881958 0.881958 -1.322937 1.322937 -2.2048645c0.440979 -0.440979 0.881958 -1.322937 1.322937 -1.763916l8.804382 8.80426c0.86676025 1.763916 2.6306763 3.0868225 3.9536133 4.4097595c3.527832 2.1896362 6.5994873 3.9535522 10.127319 5.7174377c0.21289062 0.21289062 0.5474243 0.3345337 0.8819885 0.3345337c0.31930542 0 0.6538391 -0.12164307 0.86672974 -0.3345337l0 -0.440979c-2.6306763 -2.6458435 -5.2765503 -4.3945312 -8.348206 -6.1584167c-3.968811 -0.881958 -9.245361 -5.7174377 -9.245361 -9.686218c0 -0.4409485 0.440979 -0.8819275 0.881958 -0.8819275l7.0404663 1.7638855c0.9275818 0.30410767 2.2961426 0.6234436 3.1781006 0.6234436c0.36495972 0 0.6538696 -0.060821533 0.7755127 -0.1824646c0.881958 -1.322937 1.322937 -3.0868225 1.322937 -4.3945312c0.440979 -6.6145935 -4.3945923 -7.4813538 -8.804382 -9.245239c-1.763916 -0.881958 -3.0716553 -3.527771 -3.9536133 -5.732666c0 -0.86672974 2.1896973 -2.1896362 3.0716553 -3.5125732c0.53222656 0.42578125 0.881958 0.5930481 1.1252441 0.5930481c0.76031494 0 0.4105835 -1.6878662 1.0796509 -2.3569336c1.322937 -1.3229065 3.086853 -3.0715942 3.527832 -4.8355103c0.86676025 -4.850708 1.7487183 -9.686188 1.7487183 -14.962677c0.440979 -0.8819275 -1.322937 -2.2048645 -1.7487183 -2.6458435c-0.440979 -0.440979 -0.440979 -1.3229065 -0.440979 -1.3229065c-1.322937 -0.440979 -2.204895 -0.881958 -3.527832 -1.322937c0 -0.2128601 0.10644531 -0.2128601 0.16726685 -0.2128601c0.060821533 0 0.060821533 0 -0.16726685 -0.21289062c0 -0.881958 0 -1.7638855 -0.440979 -1.7638855c-2.645874 -1.322937 -5.7175293 -3.0868225 -3.9536133 -7.0403748c0.440979 -0.440979 0.881958 -1.322937 1.3077393 -1.7638855l-1.7487183 0c-0.881958 0.4409485 -0.881958 1.3229065 -1.763916 1.3229065c-0.881958 0.440979 -2.204895 0.440979 -3.527832 0.440979c-0.440979 0 -0.86676025 -1.322937 -0.86676025 -1.7638855c0.42578125 -1.322937 0.86676025 -2.204895 1.3077393 -3.5278015c0.6994629 -1.3685303 1.0187988 -2.0375977 1.4293823 -2.0375977c0.38015747 0 0.8211365 0.5474243 1.6574707 1.5966187l0.440979 0.440979c0 -0.440979 0.440979 -0.881958 0.440979 -0.881958c0.881958 -0.86672974 2.204895 -2.1896362 2.6306763 -2.6306152c0.13684082 -0.060821533 0.2585144 -0.09124756 0.39535522 -0.09124756c0.8363342 0 1.8703613 1.0339966 2.2505188 1.414154c0.440979 0.440979 0 0.881958 0.881958 1.3077087c0.881958 0.440979 2.204895 0.440979 3.086853 1.322937c0.86676025 0.8819275 1.7487183 2.2048645 2.1896973 3.0868225c0.881958 -0.881958 1.763916 -1.763916 1.763916 -2.6458435c0 -1.322937 -0.881958 -2.6306458 -1.763916 -3.9535522c-0.881958 -0.881958 -2.1896973 -0.881958 -3.0716553 -1.763916c-0.881958 -0.4409485 -1.322937 -1.3229065 -1.322937 -2.2048645c0.440979 -3.9535522 -1.322937 -8.80426 4.3945923 -10.993927c0.881958 -0.4409485 0.881958 -3.96875 0.440979 -6.1584167c-0.881958 -5.7326355 -1.763916 -11.450104 -2.6306763 -16.726562c-0.440979 -0.881958 -2.204895 -2.2048645 -2.645874 -2.2048645c-1.763916 0.440979 -3.527832 0.8819275 -5.2765503 1.7638855c-0.440979 0.21289062 -0.9884033 0.31933594 -1.5966492 0.31933594c-0.60824585 0 -1.2621155 -0.10644531 -1.9311829 -0.31933594c-0.440979 0 -0.440979 -0.881958 -0.440979 -0.881958c3.527832 -5.7174377 0.440979 -14.962677 8.804382 -18.490448c1.322937 -0.440979 2.204895 -2.1896667 3.527832 -3.0716248c1.3077393 -0.4409485 2.6306763 -0.8819275 3.9536133 -0.8819275c0.881958 -0.881958 1.763916 -1.322937 2.645874 -1.763916c0.44100952 0 0.44100952 -0.4409485 0.44100952 -0.4409485c-0.44100952 -2.2048645 -0.44100952 -4.3945312 -0.44100952 -6.5993958c0.44100952 -0.881958 2.6306763 -1.763916 3.5126343 -2.6458435c0.440979 0.440979 0.440979 0.8819275 0.881958 1.3229065c0.31933594 0.31933594 0.8515625 0.6234436 1.1252747 0.6234436c0.12164307 0 0.19769287 -0.04559326 0.19769287 -0.1824646l0 -0.881958c-0.440979 -2.2048645 -0.881958 -3.953537 -1.3229675 -6.1584015c0 -0.440979 0 -1.3229218 0.44100952 -1.7639008l1.763916 0c-0.440979 0.440979 -0.881958 0.88194275 -0.881958 1.3229218c0.440979 1.3229218 0.881958 3.0868073 1.322937 4.835495l1.763916 0c1.3077393 -1.3077087 2.1896973 -2.6306305 3.0716553 -3.9535522c0.881958 -0.44096375 1.322937 -0.88194275 2.204895 -1.3229218c0.440979 -0.44096375 1.763916 -0.88194275 1.763916 -1.7638855c1.7487183 -3.5125885 1.7487183 -8.80426 7.4814453 -10.111969c0 0 0 -1.7639008 0 -1.7639008c-1.322937 -0.440979 -2.645874 -1.3229218 -3.968811 -1.7638855c-0.881958 -0.440979 -1.763916 -0.440979 -2.6306763 -0.440979c2.6306763 -1.3229218 5.2765503 -3.0716095 3.0716553 -7.0403748l0 0l2.204895 0.881958c0.47140503 -0.94277954 1.353363 -1.2012787 2.3873901 -1.2012787c1.1252441 0 2.4329834 0.30412292 3.5734558 0.30412292c1.7030945 0 3.0260315 -0.6690674 2.8435364 -3.9383545c0 -0.88194275 0.440979 -2.2048645 0.881958 -3.0868073z" fill-rule="evenodd"/><path fill="#75a644" d="m467.8955 220.48563c0 0 0 0 0 0c0 0 0 0 0 0zm-8.743561 16.665756c-0.015197754 0.015197754 -0.04562378 0.04560852 -0.060821533 0.060821533c-0.440979 0.88194275 -0.881958 1.3229218 -1.322937 2.2048645c0.6386719 -0.6386566 1.0492249 -1.5053864 1.3837585 -2.265686zm240.24277 82.355576c0 0 0 0.015197754 -0.015197754 0.04562378l0 0c0.13684082 -0.04562378 0.21289062 -0.04562378 0.015197754 -0.04562378zm-158.00763 -180.8751c-0.881958 0.440979 -2.6306763 1.3229218 -2.6306763 1.7638855c0.42578125 1.7486877 0.86676025 3.5125885 1.3077393 5.276474c0.440979 0.440979 -0.440979 1.3229218 -0.440979 2.2048798l-2.6306763 -1.7639008l-1.763916 -1.3229218c-0.440979 0.440979 -0.440979 1.3229218 -0.440979 1.7639008c-0.440979 0.44096375 -0.440979 0.88194275 0 1.3229218l-0.881958 0c-2.204895 -1.3229218 -4.8355713 -2.6458435 -7.4814453 -3.9687653c-1.322937 -0.440979 -2.204895 -0.440979 -3.5126343 -0.440979c0 1.3229218 0 3.0868225 0.440979 4.850708l4.3945923 0c0.440979 1.7486877 0.881958 3.5125885 0.881958 5.276474c0 0 0 0.440979 0 0.881958l-0.881958 0l-3.086853 -0.440979l0 0c0.440979 0.440979 0.881958 0.88194275 0.881958 0.88194275c0 0.440979 0.440979 0.88194275 0 0.88194275l-0.440979 0l-2.1896973 0.881958c-3.086853 1.3077087 -6.173706 2.1896515 -9.245361 3.5125732c-0.881958 0.440979 -1.7639465 1.3229218 -2.6459045 2.2048645l0 0.440979c0.440979 -0.440979 0.881958 -0.88194275 1.3229675 -1.3229218c0.440979 -0.440979 0.881958 -0.88194275 1.322937 -0.88194275c0 0.44096375 0 0.88194275 0 0.88194275c0 1.3229218 0.440979 3.5125885 0.881958 3.9535522c0 0.440979 0.440979 0.88194275 0.881958 1.3229218c-0.440979 0 -1.322937 -0.440979 -1.763916 -0.440979c-2.2049255 0.881958 -4.8507996 1.3229218 -7.040497 1.3229218c-0.9123535 0 -1.6118469 2.0984344 -2.5394287 2.0984344c-0.41055298 0 -0.881958 -0.425766 -1.4293823 -1.6574554l-1.322937 0c-2.6306763 0.88194275 -4.8355713 1.7638855 -7.0404663 3.0868073l-7.9224243 3.0716095c0 0 0.440979 0 0 0.88194275c0 0.440979 -0.881958 1.3229218 -0.881958 1.3229218c-1.0036316 -0.68426514 -1.7639465 -0.9579773 -2.3417664 -0.9579773c-1.6726685 0 -1.8399658 2.296112 -2.493805 3.6038208l-3.0716553 4.835495l-0.440979 0l1.7486877 -3.96875l0 -0.866745c0 0 0 -0.440979 0 -0.440979l-0.440979 0.440979c-0.440979 1.3077087 -1.3077087 2.6306305 -2.6306458 3.9535522c-1.7639465 1.7639008 -3.5278625 3.5277863 -5.71756 4.8355103c-3.086853 1.3229065 -6.173706 2.2048645 -10.127319 3.5277863c-3.968811 1.7638855 -7.9224243 3.5277863 -11.891235 5.276474c-2.1896973 0.44096375 -3.9536133 1.3229218 -5.7175293 2.2048645c-1.7639465 1.7638855 -3.0716553 3.9535522 -4.3945923 6.1584167c-1.3229675 2.6458435 -2.2049255 5.291687 -3.5278625 7.9223175c0 0 0 0.44096375 0.440979 0.88194275l6.5994873 -0.440979l3.0868835 -0.88194275l0 0c-0.440979 1.3229218 -1.322937 2.2048645 -1.763916 3.5277863c-0.21289062 0.440979 -0.6538696 0.440979 -1.0948486 0.440979c-0.440979 0 -0.881958 0 -1.1100769 0.44096375c-1.3077087 0.881958 -2.1896667 2.1896667 -3.5126343 3.5125885l0 0.88194275c2.2049255 -0.44096375 4.3945923 -0.88194275 6.599518 -1.7638855c1.322937 -0.440979 2.645874 -2.1896667 2.645874 -2.1896667l0 0c2.6306763 1.3077087 1.3077393 5.276474 -0.881958 6.5993958c-0.881958 0.440979 -0.881958 3.0716095 -0.881958 4.3945312l1.763916 0l2.6306763 0.88194275l-1.322937 0.88194275l2.645874 0c0.440979 -0.44096375 0.440979 -1.3229218 0.440979 -1.7638855l0.440979 -0.881958l0.881958 0.440979c0.881958 0.88194275 1.322937 2.6458435 2.645874 2.6458435c0.86676025 -0.440979 1.7487183 -1.7639008 3.0716553 -2.6458435c0.440979 -0.440979 1.322937 -0.88194275 2.204895 -1.3229218c0.440979 0 1.322937 0.88194275 1.322937 0.88194275c-0.440979 3.0868225 -1.322937 5.732666 -1.763916 8.8042755c-0.12164307 0.24328613 -0.24328613 0.5169983 -0.38015747 0.8211212l0 0c3.4822388 -3.5277863 5.2157288 -8.7738495 4.3337708 -14.019913c0.440979 -2.6458435 0.881958 -5.717453 2.204895 -7.9223175l0.881958 0c0.440979 0 0.440979 0.440979 0.440979 0.88194275c0 0.440979 -0.440979 0.88194275 -0.440979 0.88194275c0.440979 1.307724 0.881958 2.1896667 1.322937 3.5125885c0 -1.7639008 0.440979 -3.5125885 0.881958 -4.835495c0 -0.881958 0.440979 -1.7639008 1.322937 -1.7639008c1.7487183 -0.88194275 3.9536133 -0.88194275 6.158539 -1.3229218c2.6306458 -0.88194275 5.7175293 -1.3229218 8.363403 -2.1896515c0.86676025 -0.440979 1.7487183 -0.440979 2.6306763 -1.3229218c0.881958 -0.440979 1.763916 -1.7639008 2.204895 -1.7639008c2.204895 1.3229218 3.9536133 2.6458435 6.1585083 3.5125885c1.322937 0.88194275 3.086853 1.3229218 4.40979 1.3229218l0 -1.3229218c0 -0.425766 0 -0.866745 0 -1.307724l0.440979 0c0.42578125 0.440979 0.86676025 0.881958 0.86676025 1.307724c0 0.88194275 0 1.7638855 0.440979 2.6458282c0.881958 0 2.204895 0 3.527832 0.440979c1.763916 0.88194275 3.0868835 2.2048645 6.1585083 3.0868073c2.6459045 0.881958 5.71756 1.307724 8.804413 2.1896667c0.38012695 0.38015747 0.76031494 1.414154 0.5778198 1.414154c-0.030395508 0 -0.076049805 -0.030410767 -0.13684082 -0.0912323c-0.440979 0 -0.881958 -0.440979 -0.881958 -0.440979l-2.204895 0c0.440979 0.440979 0.440979 0.440979 0.440979 0.881958c2.204895 2.2048645 3.968811 4.409729 5.291748 7.0403595c2.6306763 5.291687 7.4814453 9.686203 13.198975 11.450104c3.9536133 2.1896667 8.804382 3.0716095 12.757996 4.3945312c3.086853 1.3229218 6.1585083 3.5277863 8.804382 4.409729c2.204895 1.3077087 4.8355713 2.1896667 7.0404663 3.0716095l0.881958 0c0 -0.440979 0 -0.440979 -0.440979 -0.440979c-3.9536133 -2.1896515 -8.363403 -4.3945312 -12.757996 -6.5993958c-0.881958 -0.88194275 -2.204895 -1.7638855 -2.645874 -2.6458282c-0.440979 0 0.440979 -0.866745 0.440979 -0.866745c0.881958 0.425766 2.204895 0.425766 3.086853 0.866745c3.9536133 1.7638855 7.9224243 3.0868073 11.876038 4.8506927c3.086914 1.3229218 6.5995483 3.0716095 8.804443 3.9535675c1.763916 0.88194275 3.9536133 2.2048645 6.1585083 3.0868073c0.440979 0.21287537 0.9884033 0.3345337 1.5966187 0.3345337c0.60827637 0 1.262146 -0.121658325 1.9312134 -0.3345337c2.6306763 -0.88194275 5.7175293 -1.3229218 8.363403 -2.2048645c1.3077393 -0.440979 3.0716553 -0.88194275 4.8355713 -1.3229218c0.440979 -0.13685608 0.7755127 -0.19767761 1.1252441 -0.19767761c0.68426514 0 1.3685913 0.19767761 2.8283691 0.19767761c1.763916 -0.440979 3.968811 -1.7486877 5.291748 -1.7486877c3.5126343 1.3077087 7.0404663 2.6306305 10.553101 3.9535522c0.09124756 -0.45617676 0.380188 -0.6082306 0.76031494 -0.6082306c0.72991943 0 1.8095703 0.54740906 2.5698242 0.54740906c0.72991943 0 1.1557007 -0.5169983 0.6386719 -2.585022c0 -0.44096375 0.881958 -0.86672974 0.881958 -1.3077087c0.881958 0.440979 2.1896973 0.866745 3.0716553 1.3077087c4.40979 2.2048645 6.5994873 7.0403595 5.291748 11.8910675c-0.440979 1.763916 0.86676025 3.9535522 1.7487183 5.7174683c0.440979 0.8819275 0.881958 1.7638855 1.322937 2.6458435c0.440979 0.8819275 0.440979 2.1896362 1.322937 2.6306152c3.086853 1.7638855 6.1585083 3.5278015 9.245422 5.291687c4.3793335 2.7826843 8.393799 6.28006 13.670349 6.28006c0.5626221 0 1.1404419 -0.04562378 1.7335205 -0.12164307c0.24328613 -0.07601929 0.50177 -0.12164307 0.76031494 -0.12164307c1.1708374 0 2.4785767 0.71469116 3.1932983 1.4445801c3.527832 4.8354797 6.1585083 9.67099 9.245361 14.962677c3.527832 7.4813232 6.5994873 14.962677 10.568298 22.444c0.440979 1.322937 2.6306763 2.2048645 3.5126343 3.5126038c1.322937 1.7638855 2.204895 3.96875 3.086853 6.6145935c0.881958 2.1896667 0.440979 2.1896667 -0.440979 3.5125732c0 0.440979 0.440979 0.881958 0.440979 0.881958c2.204895 2.6458435 4.3945923 5.2764587 6.5994873 7.9223022c0.881958 0.440979 1.322937 0.881958 2.204895 1.7638855c0.440979 -0.4409485 0.440979 -0.8819275 0.440979 -1.3229065c0 -0.440979 0 -0.881958 0 -1.322937c0.440979 0.440979 0.881958 0.881958 0.881958 1.322937l2.6306763 1.7638855c0.440979 -2.2048645 0.440979 -3.96875 0.881958 -5.7326355c0 -3.0716248 0 -5.7174683 -0.440979 -7.922333c-0.440979 -1.3077087 -1.322937 -2.1896667 -2.204895 -2.6306152c-0.440979 -0.440979 -1.7487183 -0.440979 -1.7487183 -1.322937l0 -2.2048645l0 -3.9535522l0 -3.527771c0 -0.10644531 0.045654297 -0.18249512 0.12164307 -0.24331665l0 0c0.015258789 0 0.030456543 0 0.045654297 0c0.19769287 0 0.24328613 -0.09121704 0.2584839 -0.15203857l0 0c-0.09124756 0.030395508 -0.21289062 0.07601929 -0.30413818 0.15203857l0 0c-0.13684082 -0.015197754 -0.3192749 -0.060821533 -0.5626221 -0.19766235c-0.881958 0 -1.322937 -0.440979 -2.204895 -0.881958c0.440979 -0.440979 0.881958 -0.881958 0.881958 -1.7486877c0.440979 -0.881958 0.881958 -1.7638855 0.881958 -2.6458435c0.440979 -1.3229065 0.440979 -3.0868225 0.881958 -3.527771c4.8355713 -4.3945312 4.3945923 -7.4813538 -1.322937 -9.6710205c-0.440979 0 -0.440979 -0.440979 -0.440979 -0.440979l0.440979 -0.8819275c1.763916 -1.322937 3.9536133 -2.2048645 4.8355713 -3.96875c0.881958 -2.1896667 0.881958 -4.8355103 0.440979 -6.5993958c-0.440979 -3.5126038 -1.322937 -7.0403748 -1.763916 -9.686218c0 -2.6306458 -0.881958 -6.1584167 0.440979 -7.9071045c3.527832 -4.409729 3.968811 -10.127197 1.322937 -14.977905c-3.0716553 -4.835495 -4.3945923 -10.993912 -3.9536133 -16.71135c0 -2.2048798 -2.645874 -6.5993958 -3.968811 -6.5993958c-2.0984497 0 -4.3793945 -0.425766 -6.5994873 -0.425766c-2.8739624 0 -5.687134 0.6994629 -7.9224243 3.9383392c0 0 -0.440979 0 -0.440979 -0.44096375c-1.4445801 -1.0340118 -2.6914673 -1.7639008 -3.7407227 -1.7639008c-1.201294 0 -2.1593018 0.9579773 -2.8587646 3.5277863c0 0.440979 -0.881958 1.3229218 -1.322937 1.3229218c-0.9123535 0.45617676 -1.6574707 0.69947815 -2.2352905 0.69947815c-1.1101074 0 -1.5662842 -0.881958 -1.2773438 -2.9043427c0 -0.88194275 0.86676025 -2.2048645 0.440979 -2.6458435c-2.144104 -2.12883 -4.7595215 -3.2844849 -7.4662476 -3.2844849c-1.763916 0 -3.5734863 0.48658752 -5.306946 1.5357971c-0.440979 0.440979 -1.322937 0.440979 -2.1896973 0.440979c-3.086853 -0.881958 -5.732727 -1.7639008 -8.804382 -1.7639008c-1.763916 0 -3.527893 1.3229218 -5.291809 1.7639008c-2.1896973 0.86672974 -3.9536133 0.86672974 -6.1585083 1.7486877c-0.881958 0.44096375 -1.763916 0.88194275 -2.645874 1.7638855c-0.42578125 0 0.440979 1.3229218 0.440979 1.7639008c0 0.44096375 0.440979 1.3229218 0.881958 1.7638855c-0.440979 0 -0.440979 0.440979 -0.881958 0.440979c-0.440979 -0.440979 -0.86676025 -1.3229218 -1.3077393 -1.7639008c-0.440979 -1.3229218 -1.322937 -2.2048645 -1.763916 -3.5277863c-0.881958 2.2048645 -2.204895 5.291687 -2.645874 6.5993958c-0.79071045 1.2012787 2.3569946 4.5313873 -0.89715576 4.5313873c-0.34973145 0 -0.7755127 -0.04562378 -1.3077393 -0.121658325c-0.34973145 -0.12164307 -0.6690674 -0.1824646 -0.9580078 -0.1824646c-0.79071045 0 -1.3533325 0.41056824 -1.6726685 1.0644226c-0.8059082 1.5966187 -2.3417358 2.387329 -3.8927612 2.387329c-1.8703613 0 -3.7559204 -1.1100311 -4.470642 -3.269287c-1.2773438 -3.3301086 -2.706726 -5.1700287 -4.6378784 -5.1700287c-1.3837891 0 -3.026062 0.94277954 -5.048462 2.9651642l-1.322937 0c-0.881958 -2.6458282 -1.7487183 -5.276474 -2.6306763 -7.9223022c-0.440979 -0.440979 -0.440979 -1.3229218 -0.881958 -2.2048798c-0.881958 0.440979 -2.204895 1.3229218 -2.645874 2.2048798c0 0.88194275 0 1.7638855 0 2.6458282c-0.881958 2.1896667 -1.322937 3.9535522 -2.645874 6.158432c-0.50183105 0.5169983 -1.1708984 0.72987366 -1.9008179 0.72987366c-0.5169678 0 -1.0643921 -0.10643005 -1.6118164 -0.2889099c-6.5994873 -1.7638855 -8.804382 -7.9223175 -11.009277 -12.7578125c-2.1896973 -3.5277863 2.204895 -9.245239 6.173706 -9.245239c0.86676025 0 1.3077393 -0.44096375 2.1896973 -0.88194275c-0.440979 -0.440979 -0.881958 -0.440979 -0.881958 -0.440979l-1.7487183 0c0.440979 -0.88194275 0.881958 -1.3229065 1.7487183 -1.7638855c0.440979 -0.440979 1.322937 -0.440979 1.763916 -0.88194275c1.2772827 -1.7030792 3.0716553 -2.4785767 4.8811646 -2.4785767c1.9312134 0 3.8775635 0.89715576 5.246155 2.4785767c1.322937 1.3229218 2.645874 2.2048645 4.3945923 2.6458282c0 0 0.440979 -0.44096375 0.440979 -0.44096375c-0.881958 -1.3229218 -1.322937 -3.0868225 -2.1896973 -3.9535522c-7.496643 -3.5277863 -5.732727 -9.245239 -3.527832 -15.403656c0 -1.3229218 0 -2.6458435 -0.881958 -3.9687653c-0.881958 -1.7638855 -2.645874 -3.0868073 -3.9536133 -4.835495c0 0 0 -0.88194275 0 -1.3229218c0.440979 0.440979 0.440979 0.88194275 0.86676025 0.88194275l1.763916 2.1896667c0 -0.866745 0 -1.307724 0 -1.7486877c-0.440979 -2.2048645 0 -4.4097443 0.440979 -6.5993958c0 -1.3229218 3.527832 -1.7639008 0 -3.5277863c-0.440979 0 -0.440979 -1.3229218 -0.440979 -1.7639008c1.322937 -3.0716095 3.086853 -6.1584167 4.40979 -8.80426c0.440979 -0.44096375 0.881958 -0.44096375 1.322937 -0.44096375c0 0.44096375 0 0.88194275 -0.440979 0.88194275c0 0.88194275 0 2.2048645 0 3.0868073c0 0 0.440979 0.440979 0.86676025 0.440979c0 -0.88194275 0.440979 -1.7639008 0.881958 -2.2048645c0.440979 -0.88194275 0.440979 -0.88194275 0.881958 -1.7639008c0.440979 -0.86672974 0.881958 -1.7486877 1.322937 -2.6306305l-0.881958 0l-8.363403 -0.88194275c0 -0.440979 0 -0.88194275 0 -0.88194275l1.322937 -2.2048798c-1.322937 0 -2.645874 0 -3.086853 0.881958c-0.86676025 2.2048645 -1.7487183 4.850708 -2.6306763 7.0403595c0 0.38015747 -0.3345337 1.414154 -0.42578125 1.414154c-0.015197754 0 -0.015197754 -0.030410767 -0.015197754 -0.0912323c-0.440979 -0.440979 -0.440979 -0.440979 -0.440979 -0.440979c0.440979 -3.5125732 1.322937 -7.4813385 3.086853 -10.993912c0.86676025 -2.2048645 4.3945923 -2.6458435 6.5994873 -4.850708c0.881958 -1.3229218 1.7487183 -3.0716095 2.1896973 -4.3945312c0 -0.88194275 1.322937 -2.6458435 1.322937 -2.6458435c-1.322937 -1.3229218 -2.6306763 -1.7638855 -4.3945923 -2.6458282c0 0 -0.881958 0.88194275 -1.763916 1.7638855c0 0.440979 -0.440979 0.88194275 -0.881958 1.3229218c0 0 -0.440979 -0.440979 -0.440979 -0.440979c0 -0.44096375 0.440979 -1.3229218 0.881958 -2.2048645c0 -0.44096375 0.440979 -0.866745 0.881958 -1.3077087l-0.881958 0c-0.881958 0.21287537 -1.642273 0.31932068 -2.3569946 0.31932068c-0.7298584 0 -1.383728 -0.10644531 -2.0375977 -0.31932068c-2.645874 -0.88194275 -4.850769 -2.2048645 -7.0404663 -3.5277863c-1.763916 -0.88194275 -3.086853 -1.7639008 -4.40979 -2.2048645l0 0c0.440979 0.88194275 0.440979 2.2048645 0.440979 3.0868073c-0.440979 1.3229218 -0.881958 2.6458435 -1.763916 3.5125885c-0.881958 0.88194275 -2.1896973 0.88194275 -3.5126343 0.88194275c-2.204895 -1.307724 -3.968872 -3.9535522 -6.1585083 -3.9535522c-3.086914 0.44096375 -6.173767 1.3229218 -8.804443 2.6458282c0 0.42578125 0 1.307724 0.440979 1.7486877c0.881958 2.2048798 2.1896973 3.9687653 3.0716553 5.732666c0.440979 0.86672974 1.322937 1.3077087 1.763916 1.7486877c1.763977 2.2048645 4.3945923 4.850708 3.968872 5.7326508c-1.763916 3.5125732 0.4257202 5.276474 2.6306763 7.0403595c0.881958 0.440979 0.881958 1.7486877 0.881958 2.6306458c-2.645935 -0.440979 -5.2765503 -0.881958 -7.0405273 -1.3229218c-1.322937 -0.425766 -3.086853 -2.1896667 -4.3945923 -2.1896667c-4.151245 0.31932068 -8.059265 2.4785767 -12.073669 2.4785767c-1.5358276 0 -3.0716553 -0.31932068 -4.653137 -1.1556549c-0.440979 0 -1.322937 0.440979 -1.763916 0.440979c-0.881958 0 -1.763916 -0.440979 -1.763916 -0.440979c-0.440979 -4.409729 0 -8.80426 -0.440979 -13.213989c-0.39538574 -1.5966339 6.1433105 -5.3981323 0.3345337 -5.3981323c-0.5778198 0 -1.262085 0.04562378 -2.0984497 0.121658325c0 0 -0.42578125 -0.440979 -0.42578125 -0.440979c0.42578125 0 0.86676025 -0.440979 1.3077393 -0.440979c0.881958 -0.88194275 1.763916 -1.7638855 3.086853 -2.6458282c0.440979 -0.866745 0.881958 -1.7486877 0.881958 -2.6306458c0.440979 -0.44096375 0.440979 -0.88194275 0 -0.88194275c0 -0.440979 0 -0.440979 0 -0.440979l0.440979 0l3.0716553 -2.6458282l-2.1896973 -1.7486877c-0.440979 0 -0.881958 -0.440979 -1.322937 -0.881958c0 -0.44096375 0.881958 -0.88194275 0.881958 -1.3229065c-1.322937 -0.440979 -2.204895 -0.440979 -3.527832 -0.440979z" fill-rule="evenodd"/><path fill="#75a644" d="m613.12994 47.53284c-3.527832 3.5125809 -7.4814453 7.040367 -11.009277 10.552948c-0.440979 0.4409752 -0.881958 0.4409752 -1.322937 0.88194656l0 -1.3229179l0 -3.0716095c-0.86676025 0.88194656 -1.7487183 1.3229218 -2.1896973 2.2048683c-0.881958 0.44097137 -0.881958 1.3077126 -1.763916 2.189659c-0.440979 0.4409752 -0.881958 0.88194656 -1.322937 0.88194656c0 -0.44097137 0.440979 -1.3229179 0.440979 -1.3229179l0 -0.4409752l-0.881958 0c-2.204895 1.7638931 -4.3945923 3.5277863 -6.5994873 5.2916794c-0.440979 0.4409752 -0.881958 0.4409752 -1.322937 0.4409752c0 -0.4409752 0.440979 -0.88194656 0.440979 -0.88194656c3.527832 -3.0868149 7.4814453 -5.717449 11.009277 -8.80426c0.881958 -0.4409752 0.881958 -1.3229218 1.322937 -1.7638931c-0.881958 0 -1.763916 0.44097137 -2.204895 0.44097137l-13.639954 9.245235l-0.881958 0c0 -0.4409752 0.440979 -0.88194656 0.440979 -0.88194656l7.9224243 -6.1584206c0.440979 -0.4409752 0.440979 -0.88194656 0.881958 -0.88194656l-0.440979 0c-4.40979 3.086811 -8.804382 5.276474 -12.773193 8.363285c-1.763916 1.3229218 -2.6306763 3.5125809 -4.3945923 4.8355026c-1.763916 0.88194275 -3.968872 1.7638931 -6.1585083 2.6458359l0.440979 0.440979c0.8666992 -0.440979 1.7486572 -0.8819504 2.6306763 -0.8819504c1.763916 -0.88194275 3.527832 -1.3229218 4.850769 -1.7638931l0 0c-1.322937 0.8819504 -2.645874 1.7638931 -3.968811 2.6458435c-0.440979 0 -0.881958 0.44097137 -0.881958 0.88194275l1.763916 0l-1.763916 0.8819504l-1.763977 0.86673737l1.763977 0.44097137c0 0 0.440979 0.440979 0.440979 0.440979l-0.88201904 0.44097137c-2.1896362 0.44097137 -4.3945923 1.3229218 -6.5994873 1.7638931c-0.440979 0 -0.440979 1.3229218 -0.440979 1.3229218c3.527893 4.3945236 -4.8355713 1.3229218 -3.0716553 4.3945236l-0.881958 0c-1.322937 0 -3.086853 0.440979 -4.40979 1.3229218c-1.7487183 0.8819504 -3.5126343 2.6458435 -4.8355713 4.4097366c-0.440979 0.86673737 0 2.6306305 -0.440979 3.5125809c-1.322937 1.3229141 -3.086853 3.0868073 -4.3945923 4.835495c-0.440979 0.440979 -0.440979 0.8819504 -0.881958 1.3229218c0.881958 0 1.322937 -0.44097137 1.7487183 -0.44097137c0.881958 -0.44097137 1.763916 -1.3077164 2.204895 -1.7486877l0 0c0 1.3077164 0.440979 3.5125809 -0.440979 4.3945236c-1.763916 2.2048721 -4.3945923 4.3945312 -6.5994873 6.5993958c-0.440979 0.44097137 -0.440979 0.8819504 -0.440979 1.3229218c0.440979 0.44097137 0.881958 0.44097137 0.881958 0.88194275c2.645874 -1.3229141 4.8355713 -2.6458359 7.4814453 -4.409729l0.881958 0c0.440979 0.44097137 0.440979 1.3229218 0.440979 1.3229218c-0.881958 0.88194275 -1.763916 1.3229141 -2.645874 1.7638931l-2.6306763 2.2048645l0 0.44097137c1.7487183 0 3.5126343 0 5.2765503 -0.44097137c1.322937 -0.8819504 2.645874 -1.7638931 3.5126343 -3.0868149c2.524231 -2.5089874 5.808777 -3.7558746 9.062927 -3.7558746c4.166504 0 8.2873535 2.007187 10.750793 5.960739c0.440979 0.440979 1.322937 1.3229218 1.322937 1.3229218c1.3077393 -0.44097137 2.1896973 -1.3229218 3.5126343 -1.7638931c1.322937 0 2.645874 0 3.527832 0.44097137l0 0.8819504l-3.086853 0.88194275l-1.322937 0.8819504l0 0.425766c0.440979 -0.425766 0.881958 -0.425766 1.322937 -0.425766c0.09118652 0.015205383 0.19763184 0.030410767 0.30407715 0.030410767c1.0188599 0 2.2809448 -1.1556549 3.3150024 -1.1556549c0.71466064 0 1.322937 0.5626221 1.6574707 2.4329605c0.440979 3.0868073 1.322937 5.7326508 2.204895 8.363289c0.881958 0.88194275 2.204895 1.7638931 3.527832 2.2048645c0 0 0 0 0 -0.44097137c0.440979 -0.440979 0.881958 -1.3229218 0.881958 -1.7638931c0.440979 0.44097137 0.86676025 0.88194275 1.3077393 1.7638931c0.440979 0.88194275 1.322937 1.7638931 1.763916 2.6458359c0.881958 0.8819504 2.204895 1.3077164 3.527832 1.3077164c1.763916 0 3.0716553 -0.866745 4.8355713 -1.3077164l1.322937 0c0.440979 0 1.763916 0.44097137 1.763916 0.44097137c0.881958 -0.88194275 0.881958 -1.7638931 0.881958 -2.6458359c-0.440979 -1.3229218 -1.322937 -2.6458435 -1.763916 -4.3945312c-0.440979 -1.7638931 -0.881958 -3.5277863 -0.881958 -5.2916794c0.440979 -2.189659 0.881958 -4.3945236 1.322937 -6.1584167c0 -0.440979 0.440979 -0.440979 0.881958 -0.440979c1.3077393 -1.3229141 2.6306763 -2.6458359 3.0716553 -3.9535522c0.881958 -1.7638931 0 -4.409729 0.881958 -5.7326508c1.763916 -2.189659 4.850769 -4.3945312 7.0404663 -6.5993958c0.881958 -1.3229218 1.322937 -2.6306305 1.763916 -4.3945236l-0.440979 0c-1.322937 0.88194275 -3.086853 2.189659 -4.8355713 3.0716019c-0.440979 0.440979 -1.322937 0.8819504 -2.204895 1.3229218c-0.440979 -0.88194275 -0.881958 -1.3229218 -0.881958 -2.2048645c0 -0.425766 0.440979 -0.866745 0.881958 -1.3077164l0.881958 -0.44097137l-0.881958 0c-0.440979 -0.44097137 -1.322937 -0.44097137 -1.763916 -0.8819504c0.440979 0 0.881958 -0.44097137 1.322937 -0.44097137l5.2765503 0c0.881958 0 1.763916 -1.7638931 2.204895 -1.7638931c0 0 0.5930786 0.19767761 0.8515625 0.19767761c0.12164307 0 0.18249512 -0.04561615 0.030395508 -0.19767761c0 -0.44097137 -0.440979 -1.3229218 -0.440979 -1.3229218l-5.7175293 0l-3.086853 -0.44097137l-2.204895 0c1.322937 -1.3077164 1.322937 -2.189659 3.086853 -3.9535522c2.204895 -1.3229218 3.968811 -2.6458435 5.7175293 -4.4097366c0.440979 -0.425766 0.440979 -1.3077164 0.440979 -1.7486877l0 0c-0.440979 0.44097137 -0.881958 0.8819504 -1.322937 0.8819504c-1.3077393 0 -2.1896973 0.44097137 -3.5126343 0.44097137c0 0 -0.22808838 0.10644531 -0.3345337 0.10644531c-0.10644531 0 -0.10644531 -0.10644531 0.3345337 -0.5474167c0.881958 -0.8819504 1.763916 -1.7638931 2.645874 -2.2048721c0.42578125 -0.44097137 0.86676025 -0.88194275 0.86676025 -1.3229141l-1.3077393 0c-0.881958 0 -1.763916 0.44097137 -2.645874 0.44097137c-0.31933594 0.04561615 -0.5930176 0.060821533 -0.82110596 0.060821533c-2.3265991 0 -0.4562378 -1.8551254 -0.06085205 -2.265686c0.881958 -0.8819504 1.763916 -0.8819504 2.204895 -1.7638931c0.440979 0 0.881958 -0.42577362 0.881958 -0.42577362c-0.22808838 -0.22808838 -0.440979 -0.33452606 -0.60821533 -0.33452606c-0.16729736 0 -0.27374268 0.10643768 -0.27374268 0.33452606c-1.763916 0.42577362 -3.086853 0.866745 -4.40979 1.3077164c-0.13684082 0.15206146 -0.24328613 0.19767761 -0.30413818 0.19767761c-0.13684082 0 -0.13684082 -0.19767761 -0.13684082 -0.19767761c0 -3.0716057 0.440979 -5.7174454 0.440979 -8.789055c0 0 0.881958 -0.44097137 0.881958 -0.88194656l-1.322937 0l-2.1896973 1.3077164l2.1896973 -2.189663l1.322937 -1.3229179l-1.763916 0.88194656l-1.7487183 0.44097137c0.440979 -0.44097137 0.881958 -0.88194656 1.3077393 -1.3229179c2.204895 -1.7638931 3.968811 -3.5277863 5.732727 -5.717449c0 -0.44097137 0 -0.44097137 0.440979 -0.88194656z" fill-rule="evenodd"/><path fill="#75a644" d="m466.1316 400.494c0 0.440979 0 1.3077087 0.440979 1.7486877c0.440979 1.3229065 1.322937 1.7638855 1.763916 3.96875c0.881958 1.7638855 1.763916 3.9535522 2.1896973 5.7174377c-1.3077393 0.440979 -2.6306763 0.881958 -4.3945923 0.881958c-0.881958 0 -1.8703613 0.22808838 -2.797943 0.22808838c-0.94277954 0 -1.8247375 -0.22808838 -2.4786072 -1.1100464c-0.97320557 -1.2772827 -0.76031494 -3.96875 -2.1136475 -3.96875c-0.50180054 0 -1.2164917 0.38015747 -2.2961426 1.3381348c-1.322937 0.86672974 -3.5126343 2.1896667 -3.5126343 3.5125732c-0.440979 0.881958 0.440979 2.6458435 0.881958 4.3945312c0 0 0 0.440979 0 0.881958c-0.440979 0.4409485 -0.881958 0.4409485 -1.322937 0.8819275c-1.322937 -0.440979 -3.086853 -0.8819275 -3.527832 -0.8819275c-0.440979 0.8819275 -0.881958 1.7638855 -0.881958 2.645813c-0.881958 1.763916 -1.3077393 3.9687805 -1.7487183 6.1584473l0 0.8819275c3.0716553 4.409729 -0.881958 7.4813538 -3.086853 10.127197c-2.6459045 3.0715942 -2.2049255 7.040344 0.440979 9.686188c0.881958 0.42578125 1.322937 0.86676025 1.763916 1.3077393l-1.322937 0.4409485l0 0.440979c0 0 0.440979 0.440979 0.440979 0.440979c3.9536133 3.0868225 7.4814453 6.5993958 10.99408 9.686218c0.440979 0.4409485 0.881958 2.2048645 1.322937 2.2048645c0.42578125 0.09121704 0.8059387 0.13684082 1.1556702 0.13684082c2.8283386 0 2.9956055 -3.026001 4.561859 -4.987549c2.645874 -3.5126038 5.732727 -7.0403748 8.363403 -10.552948c1.3685608 -2.3873596 4.029663 -3.9687805 6.7819824 -3.9687805c0.8211365 0 1.6574707 0.13687134 2.4634094 0.440979c0.53219604 0.27371216 1.8855591 1.8399353 2.8587646 1.8399353c0.63864136 0 1.1100464 -0.6538696 1.1100464 -2.7218628l0 -2.2048645l0.881958 1.7638855c0.42578125 0.440979 0.42578125 0.440979 0.42578125 0.440979c2.204895 0.4409485 3.968811 0.8819275 5.732727 2.2048645c0.881958 1.0644226 2.1440735 1.5661926 3.406189 1.5661926c1.8551636 0 3.725525 -1.0643921 4.5162354 -2.8891296c0 -0.440979 0.881958 -0.440979 1.322937 -0.440979c1.3077393 -1.3229065 3.0716553 -2.645813 4.3945923 -3.9535522c0 -0.8819275 0 -1.3229065 0 -1.7638855c-0.440979 -2.2048645 -1.322937 -3.96875 -2.204895 -6.1584167c-0.440979 -4.409729 -2.1896973 -8.80426 -4.3945923 -12.77301c-3.968811 -3.0716248 -8.363403 -5.7174683 -13.198975 -7.4813538c-5.7327576 -3.5125732 -11.450287 -6.1584167 -16.726837 -8.80426c-0.881958 -0.42578125 -1.322937 -0.86672974 -2.204895 -1.3077087z" fill-rule="evenodd"/><path fill="#75a644" d="m558.1139 124.110146c-1.322937 0.44097137 -2.645874 0.88194275 -3.9536133 1.3229141c-0.881958 0.440979 -1.763916 0.440979 -2.645874 0.440979c-0.440979 0.425766 -1.322937 0.425766 -1.763916 0.425766c-1.0491943 0 -2.3873901 -0.5626221 -3.5582275 -0.5626221c-0.28894043 0 -0.5778198 0.04561615 -0.83636475 0.13685608c-1.763916 1.3077087 -3.086853 2.6306305 -4.40979 4.3945312l-0.881958 0.44096375c0 0 0 -0.44096375 0 -0.44096375l-3.0716553 -2.2048798c-1.322937 1.3229218 -2.204895 2.6458435 -3.086853 3.9687653c-0.440979 0.440979 0.881958 1.3229218 1.322937 2.1896667c0 0 -0.440979 0.44096375 -0.440979 0.44096375c0.440979 0.440979 0.440979 0.440979 0.881958 0.440979c0.440979 0.440979 1.322937 0.88194275 1.763916 1.3229218c-0.440979 0 -0.881958 0.44096375 -0.881958 0.44096375c-2.204895 -1.3229065 -6.5994873 -0.88194275 -4.850769 -5.276474c0 -0.44096375 -0.42578125 -0.44096375 -0.42578125 -0.44096375c-1.322937 2.2048645 -2.204895 4.3945312 -3.086853 6.5993958c0 0 2.204895 1.3229218 3.5126343 1.7638855l0.440979 0c0 0.440979 0 0.440979 0 0.88194275l0 0.881958c0.881958 0 1.322937 0 2.204895 -0.440979c0.440979 0 0.440979 -0.88194275 0.881958 -1.3229218l10.568298 -4.850708c0 0 0 -0.44096375 0 -0.44096375l-1.322937 -0.866745l1.763916 -0.440979c0.86676025 0 1.7487183 -0.44096375 2.6306763 -0.44096375c0.881958 0.44096375 1.763916 0.44096375 2.645874 0.44096375l0 0.881958c0 0.425766 0 0.425766 0 0.86672974c0.440979 0 0.881958 -0.44096375 0.881958 -0.44096375c2.1896973 0 3.9536133 0 6.1585083 0.44096375c0.440979 0 0.440979 1.7639008 0.440979 2.6458435c0 0.440979 0 1.3229218 0 1.7639008c0 0.44096375 0.440979 1.3229065 0.440979 1.3229065c-0.440979 0.881958 -1.322937 1.7486877 -2.204895 2.6306458c-0.440979 0.44096375 -1.322937 0.88194275 -1.322937 1.3229218c-0.440979 0 0.440979 0.88194275 0.440979 1.3229065c0.440979 0 0.881958 -0.44096375 1.763916 -0.88194275c1.322937 -0.88194275 2.204895 -3.0868073 3.527832 -3.0868073c3.0716553 0 5.7175903 0.44096375 8.789185 0.88194275l3.968872 -1.3077087l-1.763916 -0.881958l-2.645935 -0.88194275c1.322937 -0.44096375 2.204956 -0.44096375 3.086914 -0.88194275c0.881958 0 1.322937 -0.440979 1.763916 -0.88194275c-1.763916 -0.881958 -3.086853 -2.2048645 -4.85083 -3.0868225c-1.3076782 -0.44096375 -2.6306152 -0.44096375 -3.5126343 -0.86672974c0.88201904 -0.881958 1.322998 -2.2048798 2.645935 -2.2048798c0.38012695 -0.13684082 0.8059082 -0.1824646 1.2468872 -0.1824646c1.0644531 0 2.2200928 0.30412292 3.147705 0.6234436c0 -0.88194275 0 -1.3229218 0 -1.7638855c0 -1.3229218 0.440979 -2.6458435 0.881958 -3.527794c-0.881958 0 -1.322937 0.44097137 -2.204895 0.44097137c-1.322998 0 -2.6306763 -0.44097137 -3.9536133 -0.44097137c-1.763977 0.44097137 -3.527893 1.3229141 -5.732788 1.3229141c-0.42578125 0 -0.86676025 0 -1.3077393 -0.44096375c0 -0.440979 0.440979 -1.3229218 0.440979 -1.7486877l0 0l-1.763916 0.425766c-0.440979 -0.866745 -0.440979 -1.3077164 -0.881958 -2.189659z" fill-rule="evenodd"/><path fill="#75a644" d="m525.10126 103.85578l-2.1896973 0.88194275l1.7487183 -0.88194275zm22.885315 -16.270393c-3.0716553 0.86673737 -5.7175293 1.7486877 -8.363403 3.0716019c-3.9536133 2.2048721 -7.4814453 4.850708 -10.99408 7.481346l0.440979 0.88194275c-0.440979 0.44097137 -1.763916 0.44097137 -2.204895 0.8819504c-1.6574707 1.6574478 -3.725525 3.7254639 -5.428589 5.428528l0 0l-0.72991943 0.28891754c-0.881958 0.44097137 -1.763916 0.88194275 -2.204895 1.3229218c-0.881958 0.44097137 -1.322937 0.88194275 -2.204895 1.3229141l1.763916 0c0 0.440979 -0.440979 0.440979 -0.440979 0.440979l-7.040497 5.276474c-0.440979 0 -0.440979 0.44097137 -0.440979 0.44097137l0.881958 -0.44097137l3.0868835 -1.3229218l0 0c-0.440979 0.44097137 -0.881958 0.88194275 -0.881958 1.7638931c0 0 0 0.44097137 0 0.44097137c0.440979 0 0.440979 -0.44097137 0.881958 -0.44097137c1.9464111 -1.6726608 2.6610718 -2.280899 3.3757935 -2.280899c0.41052246 0 0.82110596 0.19767761 1.4597778 0.5170059l0.440979 0c2.645874 -2.189659 5.2765503 -4.3945312 7.4814453 -7.040367c0.881958 -0.8819504 1.763916 -1.7638931 2.204895 -2.6306381c0 0.42577362 0 0.866745 0 1.3077164c0.440979 0.44097137 0.440979 1.3229218 0.440979 1.3229218c-1.322937 1.3229218 -2.645874 2.6458359 -3.968811 3.9687576c0 0.44097137 -0.440979 0.8819504 -0.440979 0.8819504l3.527832 0l0 0.44097137c-0.881958 0.425766 -1.763916 0.86673737 -2.204895 0.86673737l-5.7175293 1.7638931c-0.440979 0 -1.322937 0.440979 -0.881958 0.8819504l0.440979 0.44097137l6.1585083 -0.44097137l0.881958 0c0 0 0.440979 0.44097137 0.440979 0.44097137c-0.440979 0.44097137 -0.881958 0.44097137 -0.881958 0.8819504l-4.3945923 3.5125809c-0.440979 0.44097137 -0.440979 1.3229218 0 1.3229218c0 -0.440979 0.440979 -0.440979 0.440979 -0.440979c0.04559326 0.015205383 0.09124756 0.030410767 0.13684082 0.030410767c0.83636475 0 1.3077393 -2.4177475 1.9312134 -2.4177475c0.2888794 0 0.60821533 0.50180054 1.0036011 1.9463654l0.881958 0c0.440979 -0.44097137 0.881958 -0.44097137 1.322937 -0.44097137c-0.440979 0 0.440979 0.44097137 -0.440979 0.88194275c-1.322937 0.440979 -2.204895 0.8819504 -3.086853 0.8819504c-0.881958 0.44097137 -1.3077393 0.88194275 -2.1896973 1.3229218c0.440979 0 0.440979 0.44097137 0.440979 0.44097137c0.440979 0 0.86676025 0.44097137 1.3077393 0.44097137l-0.86676025 0.8819504c-0.440979 0.88194275 -1.322937 1.7638931 -1.322937 1.7638931c0 0.425766 0.440979 0.86673737 0.440979 0.86673737l2.1896973 -1.3077164l9.245361 -5.2916794c0.440979 -0.44097137 0.881958 -0.88194275 1.322937 -1.7486877c0 0 0 -0.88194275 0 -1.3229141l-1.322937 0.44097137l-1.763916 0.44097137l0 -0.44097137c1.322937 -1.3229218 2.645874 -3.0868149 3.527832 -4.850708c0.440979 -0.8819504 0.881958 -2.189659 1.322937 -3.5125809l0 0c-0.440979 0 -0.881958 0.88194275 -1.322937 0.88194275l-1.763916 0.440979l0 -1.7638931c0.440979 -1.3229218 1.322937 -2.6458435 2.645874 -3.9687653c0.881958 -1.3229141 1.763916 -2.6306305 3.5126343 -4.835495c1.763916 -2.2048721 3.968811 -4.3945312 7.0404663 -7.9223175l0 0c-2.6306763 1.7638931 -4.3945923 2.6458435 -5.7175293 3.5277863l-0.881958 0c0 -0.44097137 0 -0.44097137 0.440979 -0.88194275l7.0404663 -6.1736298c0.440979 0 0.440979 -0.86673737 0.440979 -0.86673737z" fill-rule="evenodd"/><path fill="#75a644" d="m505.94144 150.12756c-0.5930481 0 -1.3685608 0.38015747 -1.9616089 0.38015747c0 0.44096375 0 1.3229218 0.440979 1.7638855c0.440979 0.881958 0.881958 1.7639008 1.763916 2.6458435c-1.322937 -0.44096375 -2.204895 -0.88194275 -3.527832 -1.3229218l-2.1896973 0c0.42578125 0.440979 0.86676025 0.881958 0.86676025 0.881958c-0.440979 0.88194275 -0.86676025 1.7638855 -1.3077393 2.2048645l-3.527832 0c-0.440979 0 -0.440979 1.3077087 -0.881958 1.7486877c-1.763916 0.44096375 -3.0716553 1.7638855 -4.3945923 2.6458282c-0.440979 0.440979 0 2.2048798 0 3.0868225c0.881958 0 2.6306763 -0.88194275 2.6306763 -0.88194275c0.440979 0 0.881958 -0.440979 0.881958 -0.440979c0 0.440979 0 0.440979 0 0.88194275l-0.881958 1.7486877c0.440979 0 1.322937 -0.44096375 2.204895 -0.44096375c0.881958 -0.440979 2.204895 -1.307724 3.086853 -1.7486877l-0.440979 -0.440979l3.0716553 -0.88194275l-2.1896973 2.2048645c-0.881958 0.425766 -1.763916 0.866745 -2.645874 1.7486877c0 0.44096375 -0.440979 0.88194275 -0.881958 1.3229218c0.440979 0 1.322937 0.44096375 1.763916 0.44096375c3.9536133 -1.3229218 8.363403 -0.88194275 11.435059 -5.276474c1.322937 -1.7638855 3.0868835 -2.6458282 4.8507996 -3.96875l2.6306763 -1.7486877l-1.7487183 0c0 -0.440979 0 -0.440979 0 -0.881958c0 -0.44096375 0 -1.3229065 0.440979 -1.7638855c0 0 0.440979 -0.440979 0.440979 -0.440979l0 0c-0.7451172 0.18247986 -1.4750366 0.27371216 -2.204895 0.27371216c-2.7371216 0 -5.3069763 -1.2621002 -7.040497 -3.3605194c-0.15203857 -0.2889099 -0.39535522 -0.38015747 -0.68426514 -0.38015747z" fill-rule="evenodd"/><path fill="#75a644" d="m461.5089 387.84262c-1.8703613 0 -3.7407227 0.10644531 -5.5046387 0.31930542c-2.6306763 0.881958 -4.8355713 1.763916 -7.0404663 3.5278015c-0.440979 0.440979 -0.440979 1.7638855 -0.881958 2.6306152c-0.881958 -0.86672974 -1.7487183 -1.3077087 -2.6306763 -1.7486877c-1.322937 -0.4409485 -2.204895 -0.4409485 -3.527832 -0.4409485c0 0 -0.44100952 0.8819275 -0.8819885 1.7638855l4.4098206 0c0 0.42575073 0 0.42575073 -0.440979 0.86672974c0 0.440979 -0.881958 0.881958 -0.440979 1.322937c0.440979 0.440979 0.881958 0.8819275 1.763916 0.8819275c0.440979 -0.4409485 1.3077393 -1.3229065 1.7487183 -1.3229065c3.086853 0.440979 6.173706 0.881958 9.68634 1.3229065c1.763916 0.881958 3.527832 1.763916 5.2765503 2.6458435c0.440979 -0.8819275 0.881958 -2.2048645 0.881958 -3.527771l0 -2.6306458l7.0404663 0c1.322937 -0.440979 3.086853 -0.881958 4.4098206 -1.3229065l-3.0868835 -0.440979c-0.881958 -0.440979 -1.322937 -0.440979 -2.1896973 -0.881958c-0.881958 -0.8819275 -1.763916 -2.6458435 -3.086853 -2.6458435c-1.763916 -0.2128601 -3.6342773 -0.31930542 -5.5046387 -0.31930542z" fill-rule="evenodd"/><path fill="#75a644" d="m413.32047 393.8946c0 0 -0.440979 0.42575073 -0.440979 0.42575073c-0.440979 2.204895 -0.881958 4.4097595 -1.322937 6.614624c-0.440979 2.1896362 -0.881958 4.3945312 -1.322937 6.5993958c-0.440979 0.8819275 -1.322937 1.3229065 -2.6306763 3.0715942c2.6306763 0.881958 5.7175293 2.2048645 8.363403 2.6458435c0.1824646 0.060821533 0.36495972 0.09124756 0.5474243 0.09124756c1.1404724 0 2.2657166 -1.0340271 3.406189 -1.4141846c0.881958 -0.4409485 1.322937 -0.4409485 2.204895 -0.4409485c0 -0.881958 -0.440979 -1.763916 -0.440979 -2.6306458c-0.440979 -0.881958 -0.440979 -1.3229065 -0.881958 -2.2048645c0.440979 -3.0868225 -0.440979 -5.7174377 -3.086853 -7.4813538c-0.440979 -0.4409485 -0.440979 -1.7638855 -0.881958 -2.645813c-0.86676025 -0.881958 -2.1896973 -2.204895 -3.5126343 -2.6306458z" fill-rule="evenodd"/><path fill="#75a644" d="m345.9874 483.6707c0 0.440979 0 1.3229065 0 1.7638855c0 0.86672974 0 2.1896667 -0.440979 3.0715942c-0.440979 2.6458435 -1.763916 5.2764893 -1.322937 7.4813538c0.881958 3.0868225 2.204895 6.1584167 4.3945923 8.80426c1.763916 1.7638855 3.527832 3.0868225 5.291748 4.3945312c0.881958 -2.1896667 1.7487183 -3.5125732 1.7487183 -4.3945312c-1.3077393 -4.3945312 -3.0716553 -9.245239 -4.8355713 -13.6397705c-0.440979 -1.3229065 -1.322937 -2.2048645 -1.763916 -3.527771c0 -0.440979 0.881958 -0.881958 0.881958 -0.881958l-3.9536133 -3.0715942z" fill-rule="evenodd"/><path fill="#75a644" d="m408.91068 261.4201c-0.42578125 0.440979 -0.42578125 0.881958 -0.42578125 1.322937c-0.440979 1.7486877 -0.881958 3.0715942 -0.881958 4.8354797c0 2.6458435 -0.440979 5.2764893 -0.440979 8.363312l0.881958 0c0.440979 0.440979 0.440979 0.440979 0.86676025 0.8819275l5.732727 5.7174683c0.440979 -1.763916 0.440979 -3.5126038 0.440979 -5.2764893c0 -2.2048645 -0.440979 -4.409729 -0.881958 -6.1584167c-0.881958 -3.0868225 -2.204895 -5.732666 -3.527832 -7.9223022c-0.440979 -0.881958 -0.881958 -1.322937 -1.763916 -1.763916z" fill-rule="evenodd"/><path fill="#75a644" d="m194.57924 407.09338c-0.866745 0.8819275 -1.748703 1.7638855 -1.748703 3.0715942c-0.440979 1.322937 0 2.2048645 0.881958 3.5278015c1.307724 0.8819275 3.0716553 1.3229065 4.3945923 2.2048645c0.881958 0.440979 3.086853 0.8819275 3.086853 0.8819275c0 0 -0.440979 1.3077393 -0.440979 1.7486877c0 1.322937 0 2.6458435 0.881958 3.9687805c0.42578125 0.8819275 1.3077393 1.3229065 2.1896973 2.2048645l5.2917633 -4.850708c0.440979 0 0.866745 -1.322937 0.866745 -1.322937c-1.307724 -1.3229065 -2.6306763 -3.0715942 -4.3945923 -3.5125732c-4.3945923 -0.8819275 -6.5994873 -5.291687 -11.009293 -5.291687c0 0 0 -0.42575073 0 -0.42575073l0 -2.2048645z" fill-rule="evenodd"/><path fill="#75a644" d="m258.84067 303.22134c-1.7639465 2.2048645 -3.5126495 3.96875 -4.8355865 5.732666c-2.204895 3.0715942 -4.4098053 6.1584167 -6.1585083 9.67099c-0.881958 3.5278015 -1.322937 7.0403748 -1.322937 10.127197c0 0.4409485 0.881958 0.8819275 1.322937 0.8819275l4.3945923 0l3.086853 -1.7638855c-0.440979 -0.440979 -0.440979 -0.440979 -0.440979 -0.440979c-7.4814453 -0.881958 -4.40979 -6.1584167 -3.527832 -9.245239c2.645874 -4.3945312 5.276535 -9.230011 8.804398 -13.1987915c0.440979 -0.4409485 0.440979 -1.3229065 0.440979 -1.7638855z" fill-rule="evenodd"/><path fill="#75a644" d="m387.34827 413.69278l-0.881958 1.3229065c0.440979 0 0.440979 0.440979 0.881958 0.440979c2.645874 0.881958 5.291748 1.3229065 7.4814453 2.1896667c4.40979 1.7638855 8.804382 3.527771 12.773224 5.7326355c0.2889099 0.13687134 0.6234436 0.19769287 0.9884033 0.19769287c0.71469116 0 1.5054016 -0.19769287 2.083252 -0.19769287c-0.881958 -1.7638855 -1.763916 -4.409729 -3.0716553 -4.850708c-3.9688416 -1.7486877 -8.363434 -3.0715942 -12.773224 -3.9535522c-2.6306763 -0.4409485 -4.8355713 -0.4409485 -7.4814453 -0.8819275z" fill-rule="evenodd"/><path fill="#75a644" d="m522.0296 116.18783c-2.204895 0.44097137 -4.850769 1.3229218 -6.5994873 1.3229218c-1.1860962 0 -2.3569946 -0.39535522 -3.3909912 -0.39535522c-0.53222656 0 -1.0188293 0.0912323 -1.4598083 0.39535522c-1.322937 0.44097137 -2.1896667 2.189659 -3.0716553 3.9535522c0 0.8819504 -0.440979 1.7638931 0 2.6458435l2.6306763 -0.440979l3.0868835 -1.3229141l0 0l-0.881958 1.7638931l0 0.44097137c1.763916 -0.44097137 3.9536133 -0.8819504 5.7175293 -1.7638931c1.763916 -1.7638931 3.086853 -3.5277863 4.40979 -5.7174454c0 -0.440979 0 -0.440979 0 -0.8819504z" fill-rule="evenodd"/><path fill="#75a644" d="m168.7287 401.25427c-0.19767761 0 -0.38015747 0.030426025 -0.5474243 0.12164307c-1.763916 0.86676025 -3.527832 2.1896667 -5.2765503 3.5126038c-1.322937 0.8819275 -2.204895 1.3229065 -3.527832 2.2048645c-0.881958 0.440979 -1.322937 0.8819275 -2.2049103 1.7638855l0 1.3077087c0.440979 -0.440979 0.88197327 -0.440979 1.7639313 -0.86672974c0 0 0.881958 0 0.881958 0.42575073l0 0.440979c0.7602997 0.76031494 1.8551483 1.855133 2.1288605 1.855133c0.04562378 0 0.076034546 -0.030395508 0.076034546 -0.09124756c2.6306763 -0.8819275 4.8355713 -2.6306152 7.0404663 -4.3945007c1.3229523 -1.322937 1.7639313 -3.5278015 2.2049103 -5.291687c-0.71469116 -0.34973145 -1.7183075 -0.9884033 -2.539444 -0.9884033z" fill-rule="evenodd"/><path fill="#75a644" d="m491.22183 157.54808l-9.68634 3.5277863c0 1.3229218 0 3.0868225 0 4.3945312c-0.440979 3.9687653 2.204895 3.9687653 4.3945923 3.9687653c1.322937 0 2.645874 -1.7639008 3.086853 -3.0868225c0.881958 -2.6306305 2.204895 -5.276474 3.086853 -7.9223022c0 -0.440979 0 -0.881958 0 -0.881958z" fill-rule="evenodd"/><path fill="#75a644" d="m535.2134 121.7228c-0.30413818 0 -0.60827637 0.060829163 -0.86676025 0.18247223c-2.204895 2.2048721 -4.3945923 3.9687653 -7.0404663 5.717453c-3.527832 0.88194275 -6.5994873 1.7638855 -10.127319 2.2048645c-1.7487183 0.88194275 -3.9536133 1.3229218 -5.71756 2.6458435l3.5278625 0c0.440979 0 0.881958 -0.881958 1.3077393 -0.881958c0.6690674 -0.22808838 1.2164917 -0.33451843 1.763916 -0.33451843c0.5474243 0 1.1100464 0.10643005 1.763916 0.33451843c1.1404419 0.38015747 2.9195557 1.3989563 3.968811 1.3989563c0.16723633 0 0.30413818 -0.015213013 0.42578125 -0.076034546c3.968811 -2.2048645 7.4814453 -4.850708 11.891235 -7.92231l1.322937 -2.6458359c-0.6234741 -0.30412292 -1.4749756 -0.62345123 -2.2200928 -0.62345123z" fill-rule="evenodd"/><path fill="#75a644" d="m405.83902 315.11243c-0.440979 0.440979 -0.440979 1.3229065 0 2.2048645c0.440979 2.1896667 0.881958 4.3945312 1.322937 6.5993958c0 0.8819275 -1.322937 1.7486877 -1.763916 2.6306152c-0.881958 1.763916 -2.2049255 4.4097595 -2.6459045 5.732666c-0.440979 0.86672974 -0.881958 2.1896667 -1.322937 3.5125732c0.440979 -0.440979 0 -0.8819275 1.322937 -1.3229065c1.322937 -0.440979 2.6459045 -0.881958 4.4098206 -1.322937c0 -0.42575073 0.440979 -0.42575073 0.440979 -0.86672974c0 -0.881958 -0.440979 -1.7638855 0 -2.6458435c1.3077393 -1.3229065 2.1896973 -3.527771 2.6306763 -5.2764587c0 -2.2048645 -0.440979 -3.9687805 -1.322937 -6.173645c-0.42578125 -0.86672974 -1.7487183 -1.7486877 -3.0716553 -3.0715942z" fill-rule="evenodd"/><path fill="#75a644" d="m190.62563 340.20227c-0.881958 0 -1.322937 0 -2.204895 0.42578125l-2.1896973 0.440979l0.86676025 1.3229065l0.440979 0.881958l-0.440979 0c-1.7487183 0.440979 -3.9536133 0.440979 -5.7175293 1.3229065c-0.881958 0 -0.440979 0.881958 0.881958 1.322937c0.24330139 0.12164307 0.5322113 0.16726685 0.866745 0.16726685c0.9275818 0 2.1288757 -0.4105835 3.102066 -1.0492249c0.86676025 -0.440979 1.7487183 -0.881958 2.6306763 -1.7638855c0 0 1.322937 0 0.881958 0.8819275c-0.440979 0.440979 -0.881958 1.322937 -1.322937 1.763916c-0.440979 0.440979 -0.881958 0.8819275 -1.322937 1.7638855l1.763916 -0.881958l0 -0.4409485l1.763916 -0.881958l0 0c0 0.440979 -0.440979 0.881958 -0.440979 1.3229065c-0.881958 0.881958 -1.322937 1.322937 -2.204895 1.7486877c0.881958 0 1.763916 0.39535522 2.3873749 0.39535522c0.30412292 0 0.5474243 -0.09121704 0.69947815 -0.39535522c0.88197327 -0.86672974 1.3229523 -1.7486877 1.3229523 -2.6306152c1.322937 -2.6458435 0 -5.7174683 -1.7639313 -5.7174683z" fill-rule="evenodd"/><path fill="#75a644" d="m501.77493 143.02638c-0.440979 0 -0.881958 0.44096375 -0.881958 0.44096375l-3.5126343 0.440979c-0.2889099 0 -0.5930481 -0.19767761 -0.881958 -0.19767761c-0.15206909 0 -0.2889099 0.060821533 -0.440979 0.19767761c-0.440979 0 -0.881958 0.440979 -0.881958 0.88194275c0.440979 0 0.440979 0.440979 0.881958 0.440979l1.763916 1.3229218c-0.881958 0.88194275 -1.763916 1.3229218 -2.645874 1.7638855c-2.1896973 0.440979 -4.3945923 0.88194275 -6.1585083 1.307724c-0.881958 0.44096375 -0.881958 2.2048645 -1.322937 3.5277863c-0.440979 0.44096375 0 0.88194275 0 0.88194275c0.440979 0 0.881958 0 1.763916 -0.440979c1.322937 -0.88194275 2.645874 -2.2048645 3.9536133 -3.0868073c0 -0.440979 0.440979 -0.440979 0.881958 -0.440979c0 0.440979 0 0.88194275 0 0.88194275c-0.440979 0.881958 -0.440979 1.3229218 -0.881958 1.7639008c0.881958 -0.440979 1.763916 -0.440979 2.204895 -0.88194275c1.763916 -1.7639008 3.527832 -3.9535522 5.7175293 -6.158432l1.322937 0.440979c0 -0.88194275 0 -1.7638855 -0.440979 -2.6458435c0 0 -0.440979 -0.44096375 -0.440979 -0.44096375z" fill-rule="evenodd"/><path fill="#75a644" d="m533.90564 424.26093c-0.440979 0.86672974 -0.440979 1.7486877 -0.440979 2.6306458c-0.440979 2.2048645 -1.322937 4.409729 -1.763916 6.1584167c0 1.7638855 0 3.086792 0 4.850708l3.968811 -0.881958c0 -0.440979 0 -0.881958 0.440979 -1.3229065c0 -3.0868225 0 -5.7174683 0 -8.80426c0 -0.881958 -1.763916 -1.763916 -2.204895 -2.6306458z" fill-rule="evenodd"/><path fill="#75a644" d="m603.4436 154.91745c-0.440979 0.440979 -0.440979 0.440979 -0.440979 0.88194275c0 1.7486877 0.440979 3.5125885 0.881958 5.276474c0 0.881958 1.322937 1.7639008 1.322937 1.7639008c1.322937 -0.440979 2.645874 -1.3229218 3.9536133 -2.2048645l0.881958 1.3229218c0 -0.440979 0 -0.881958 0 -1.3229218c0 -0.440979 0.440979 -0.88194275 0.440979 -0.88194275c0.440979 0 0.440979 0.44096375 0.881958 0.88194275l0.881958 0c0.440979 0 0.440979 -0.88194275 0.440979 -0.88194275l-0.881958 -0.440979l-1.322937 -0.440979l-3.0716553 -1.7638855c-1.322937 -0.425766 -2.645874 -0.866745 -3.527832 -1.307724c-0.440979 -0.44096375 -0.440979 -0.88194275 -0.440979 -0.88194275z" fill-rule="evenodd"/><path fill="#75a644" d="m515.0804 142.0836c-0.440979 0 -1.0796509 0.440979 -2.7371216 1.3837433c0.440979 0.440979 0.881958 1.7639008 0.881958 2.2048645c0.440979 0 0.440979 0.440979 0.440979 0.440979c0 0.440979 -0.440979 0.88194275 -0.881958 0.88194275c-0.440979 0.440979 -1.3229675 0.440979 -1.7639465 0.881958l4.4098206 0c0.3953247 0.060821533 0.8059082 0.10643005 1.1708374 0.10643005c2.0680542 0 3.527893 -1.0948181 2.7827759 -4.0751953c-0.440979 -0.440979 -2.204895 0 -3.086853 -0.88194275c-0.60827637 -0.60824585 -0.83636475 -0.94277954 -1.2164917 -0.94277954z" fill-rule="evenodd"/><path fill="#75a644" d="m194.15347 417.20535c-0.440979 1.7638855 -1.763916 3.0868225 -1.763916 4.409729c0.440979 1.7638855 1.322937 3.5125732 2.189682 5.2764893c1.3229523 -1.322937 2.6458893 -2.6306458 3.9688263 -3.9535522c0 -0.440979 -0.881958 -1.763916 -1.322937 -2.6458435l-0.440979 -1.322937c0 -0.440979 0 -1.7638855 -0.440979 -1.7638855z" fill-rule="evenodd"/><path fill="#75a644" d="m526.4242 412.36984c0.440979 0.440979 1.322937 0.881958 1.763916 1.322937c1.763916 1.3229065 3.5126343 3.086792 5.2765503 4.8354797l3.968811 3.9687805l0.440979 -0.440979c0 -2.2048645 -0.440979 -4.850708 -0.440979 -7.9223022c0 0 -0.19769287 -0.19769287 -0.45617676 -0.19769287c-0.13684082 0 -0.28894043 0.04562378 -0.42578125 0.19769287l-7.9224243 -0.881958c-0.440979 -0.440979 -1.322937 -0.881958 -2.204895 -0.881958z" fill-rule="evenodd"/><path fill="#75a644" d="m429.1653 395.64328c-1.763916 0.881958 -3.086853 2.2048645 -4.850769 3.0868225c-0.42578125 0.4409485 -0.86676025 1.7638855 -0.86676025 2.2048645c0.440979 2.1896362 1.7487183 4.3945312 2.6306763 6.5993958c0.881958 1.3229065 2.204895 1.7638855 3.527832 2.6306152c-0.881958 -1.3077087 -1.763916 -2.6306152 -2.204895 -3.5125732c-0.440979 -0.440979 0 -0.881958 0 -1.3229065l1.322937 0.4409485l2.204895 1.322937c0 0 0 -0.440979 0.440979 -0.440979c0.440979 -0.440979 0 -0.881958 0 -0.881958c-1.322937 -1.3229065 -4.40979 -1.3229065 -3.086853 -4.3945312c0.440979 -0.4409485 0 -0.4409485 0 -0.4409485l-1.322937 1.3077087c-0.440979 0.440979 -0.440979 0.8819275 -0.440979 1.3229065c-0.881958 -0.8819275 -1.763916 -1.3229065 -2.6306763 -2.1896667c0 0 0.42578125 -0.8819275 0.86676025 -1.3229065l4.850769 -3.96875l-0.440979 -0.440979z" fill-rule="evenodd"/><path fill="#75a644" d="m392.19904 289.14062l0 0c0.440979 0.8819275 0.881958 2.2048645 1.3077393 3.527771c2.204895 3.5125732 4.850769 7.0403748 7.0556946 10.552948c0.440979 0.440979 0.86672974 0.440979 0.86672974 0.881958l1.322937 -1.322937c-0.440979 0 -0.881958 -0.440979 -1.322937 -0.440979c-0.42575073 -0.42575073 -1.3077087 -1.3077087 -1.3077087 -1.7486877c0.440979 -2.645813 -0.8819885 -5.7326355 -3.0868835 -7.040344c-0.881958 -0.440979 -1.322937 -1.322937 -1.763916 -1.763916l0 -0.4409485l-3.0716553 -2.2048645z" fill-rule="evenodd"/><path fill="#75a644" d="m362.71423 239.41707c-0.8819885 0.440979 -1.7639465 0.88194275 -2.6459045 0.88194275c-2.204895 0.866745 -4.40979 1.7486877 -6.1585083 2.6306305c-0.881958 0.440979 -1.322937 2.2048798 -1.322937 3.0868225c0 0 1.322937 0.44096375 1.763916 0.44096375c2.1896973 -1.3229065 4.3945923 -2.6458282 7.0404663 -4.409729l1.3229675 -2.6306305z" fill-rule="evenodd"/><path fill="#75a644" d="m549.7505 149.62578c-1.763916 0 -3.5126343 0.44096375 -5.2765503 0.44096375l1.322937 4.850708c0.881958 0 1.7487183 0 3.0716553 -0.44096375c0.440979 -0.440979 0.440979 -1.3229218 1.322937 -1.7639008c0.881958 -0.88194275 1.763916 -1.3229218 2.645874 -1.7639008l1.322937 -0.88194275c-0.440979 0 -0.440979 -0.44096375 -0.440979 -0.44096375z" fill-rule="evenodd"/><path fill="#75a644" d="m199.43002 331.839c-0.881958 0 -2.204895 0 -3.086853 0.440979c-2.1896973 1.3077087 -3.9536133 2.6306458 -6.1585236 3.9535522c-0.440979 0.440979 -0.881958 1.322937 -1.322937 2.2048645l2.204895 -0.440979l0 -0.4409485l2.6458893 0c0.866745 -0.440979 2.1896973 -0.881958 3.0716553 -1.763916c0.881958 -1.3229065 1.763916 -2.6458435 2.645874 -3.9535522z" fill-rule="evenodd"/><path fill="#75a644" d="m524.6603 135.10406l0 0c-1.3077393 0.88194275 -3.0716553 1.3229218 -4.3945923 2.2048645c-0.881958 0.88194275 -0.881958 2.2048645 -1.322937 2.6458435c1.322937 1.8095093 2.204895 2.448166 2.843567 2.448166c1.0643921 0 1.4445801 -1.7943115 1.9920044 -2.889145c0.440979 -1.3229218 0.881958 -3.0868073 0.881958 -4.409729z" fill-rule="evenodd"/><path fill="#75a644" d="m403.1931 308.07205c0 2.6306458 -0.440979 4.3945312 -0.440979 6.5993958c1.322937 -0.881958 2.6459045 -1.7638855 3.9688416 -2.6458435c0.881958 -1.3229065 1.322937 -2.6306152 1.763916 -3.9535522z" fill-rule="evenodd"/><path fill="#75a644" d="m484.62234 148.31805l-5.7327576 7.9223175c0 0 0 0.866745 0 0.866745l0.8819885 0c0.881958 -1.307724 2.204895 -2.6306305 3.086853 -3.5125885c0.440979 -0.44096375 0.881958 -1.7638855 1.322937 -2.2048645c0.881958 -0.88194275 1.3077393 -1.7638855 2.1896973 -2.1896667l-0.881958 -0.88194275z" fill-rule="evenodd"/><path fill="#75a644" d="m424.75552 419.41022l-11.435059 3.5278015l-0.881958 0.8819275c0.440979 0.440979 1.322937 0.440979 1.322937 0.440979l11.435059 -3.96875c0 -0.440979 0.440979 -0.440979 0 -0.440979c0 -0.440979 -0.440979 -0.440979 -0.440979 -0.440979z" fill-rule="evenodd"/><path fill="#75a644" d="m296.6889 267.57852c-1.7639465 0.881958 -3.5126343 1.322937 -5.2765503 2.204895c-0.8819885 0.8819275 -1.3229675 1.7638855 -2.2049255 2.6306152l7.922455 -1.3077087c0 -1.3229065 0 -2.2048645 -0.440979 -3.5278015z" fill-rule="evenodd"/><path fill="#75a644" d="m614.4529 225.33633l-12.332214 1.7486877c-0.881958 1.3229218 -1.322937 3.0868073 -1.322937 3.0868073l0 0.881958c0 -0.440979 0 -0.440979 0.440979 -0.881958c1.9464111 -1.9311523 4.8203735 -3.1628418 7.6030884 -3.1628418c1.0187988 0 2.022461 0.16726685 2.96521 0.5169983c0.21289062 0.22810364 0.440979 0.3345337 0.60827637 0.3345337c0.16723633 0 0.27368164 -0.10643005 0.27368164 -0.3345337c0.881958 -0.44096375 1.763916 -1.3229065 2.204895 -1.7486877c0 -0.44096375 -0.440979 -0.44096375 -0.440979 -0.44096375z" fill-rule="evenodd"/><path fill="#75a644" d="m507.94864 136.42699c0.44100952 0.44096375 1.7487183 0.44096375 1.7487183 0.44096375c0 0 0.440979 0 0 0.881958c-0.881958 0.44096375 -1.7487183 1.3229218 -2.1896973 1.7638855l-1.322937 0.88194275l0 0l2.2049255 -0.88194275c0.42575073 -0.44096375 0.86672974 -0.88194275 1.3077087 -0.88194275c0.881958 0.440979 1.322937 0.88194275 1.763916 1.3229218l1.7639465 -0.88194275c-0.440979 -0.881958 -0.440979 -2.6458435 -0.881958 -2.6458435z" fill-rule="evenodd"/><path fill="#75a644" d="m413.32047 377.168l0 0c-0.34976196 0.10644531 -0.6538696 0.28894043 -0.94277954 0.47140503l0 0c0.15203857 0 0.31930542 -0.015197754 0.50180054 -0.030426025l0.440979 -0.440979zm-7.4814453 -5.7326355c0 0.881958 0 1.7638855 0.440979 2.2048645c0.440979 0.881958 0.440979 1.3229065 0.881958 1.7638855c0.881958 1.322937 2.1896973 2.2048645 3.5126343 3.0868225c0.060821533 0.060821533 0.13684082 0.07601929 0.21289062 0.07601929c0.3345337 0 0.8363342 -0.48657227 1.4902039 -0.92755127l0 0c-0.076049805 0 -0.15206909 0 -0.2281189 0c-3.2388916 0 -3.2541199 -2.8435364 -3.6646729 -5.3220825c0 -0.440979 -1.763916 -0.881958 -2.645874 -0.881958z" fill-rule="evenodd"/><path fill="#75a644" d="m305.4933 265.37366l-5.2765503 1.322937c-0.440979 1.3229065 -0.440979 3.0868225 -1.322937 4.850708c2.204895 -1.322937 3.9536133 -3.0868225 5.7175293 -4.409729c0.440979 -0.440979 0.881958 -0.881958 0.881958 -1.763916z" fill-rule="evenodd"/><path fill="#75a644" d="m421.2429 381.56253c0 0.440979 0 0.440979 0 0.881958c-0.440979 0.881958 -0.881958 2.2048645 -0.881958 3.0868225l-0.881958 -0.440979c-0.440979 0.881958 -0.881958 2.1896667 -0.881958 2.1896667c0 0 0 0.4409485 0 0.4409485l1.322937 -1.3077087c0.440979 -0.4409485 0.881958 -0.8819275 0.881958 -0.8819275c0.881958 0.8819275 1.763916 1.3077087 2.645874 2.1896362c0 -0.8819275 0 -1.7486572 0 -2.6306152c-0.440979 -1.322937 -0.881958 -2.2048645 -1.763916 -3.5278015z" fill-rule="evenodd"/><path fill="#75a644" d="m498.70328 132.03246l-1.763916 2.1896667l3.086853 0l-0.440979 0.88194275l-0.440979 0.440979l0.881958 -0.440979l4.8355713 -1.7486877l1.322937 -0.88194275c0 0 -0.440979 -0.440979 -0.440979 -0.440979z" fill-rule="evenodd"/><path fill="#75a644" d="m508.38965 445.823l-4.4098206 1.7638855c-0.440979 0.42578125 -0.440979 0.86676025 -0.440979 1.3077393c1.322937 0.4409485 3.086853 1.3229065 4.40979 2.2048645c0.44100952 -1.322937 0.44100952 -3.0868225 0.44100952 -5.2764893z" fill-rule="evenodd"/><path fill="#75a644" d="m289.3443 266.93988c-0.38015747 0 -0.71469116 0.04562378 -1.0188293 0.19769287c-0.881958 1.3229065 -1.763916 2.6458435 -2.1896973 3.96875l3.0716553 0l2.6459045 -3.96875c-0.8819885 0 -1.7639465 -0.19769287 -2.5090332 -0.19769287z" fill-rule="evenodd"/><path fill="#75a644" d="m704.67126 344.5968l0 0c0.440979 1.322937 1.322937 3.5278015 1.763916 3.5278015c1.7487183 -0.440979 3.5126343 -0.881958 4.8355713 -1.322937l0.881958 -1.3229065l-7.4814453 -0.881958z" fill-rule="evenodd"/><path fill="#75a644" d="m624.565 223.13147l-6.5994873 1.3229218l0 0.44096375l0.440979 1.7486877l5.7175293 -3.0716095c0.440979 0 0.440979 -0.44096375 0.440979 -0.44096375z" fill-rule="evenodd"/><path fill="#75a644" d="m363.13998 421.61508l0 2.6458435l3.5278625 1.7486877c0 -0.881958 0.440979 -1.7486877 0 -2.1896667c-1.3229675 -0.8819275 -2.2049255 -1.7638855 -3.5278625 -2.2048645z" fill-rule="evenodd"/><path fill="#75a644" d="m544.47394 124.55112l0 0c-1.763916 0.44097137 -3.527832 1.3229218 -4.850769 1.7486877c-0.440979 0 -0.440979 0.88194275 -0.440979 0.88194275l3.527832 -0.44097137l1.763916 -2.189659z" fill-rule="evenodd"/><path fill="#75a644" d="m342.45956 261.4201c-1.322937 0 -2.6306763 0.440979 -3.9536133 0.440979c0 0 -0.440979 0.881958 -0.881958 2.6306458c1.322937 -0.440979 3.0716553 -0.86676025 4.3945923 -1.3077087c0.440979 0 0.440979 -1.322937 0.440979 -1.763916z" fill-rule="evenodd"/><path fill="#75a644" d="m522.0296 150.94868l-0.440979 2.6458435c1.763916 0 3.0716553 -0.44096375 4.3945923 -0.88194275l0 -1.3229218l-3.9536133 -0.440979z" fill-rule="evenodd"/><path fill="#75a644" d="m401.00345 337.55646l-0.440979 1.7638855c0.440979 0 1.3077087 0 1.7486877 0.440979c0.440979 0.4409485 0.881958 1.3077087 1.763916 2.1896362c-0.440979 -1.3229065 -0.440979 -2.1896362 -0.440979 -3.5125732l-2.6306458 -0.8819275z" fill-rule="evenodd"/><path fill="#75a644" d="m511.46127 128.06369c-1.322937 0 -2.645874 0.440979 -3.9536133 0.440979c-0.440979 0 -0.440979 0.440979 -0.440979 0.88194275l3.0716553 0.440979l1.322937 -1.7639008z" fill-rule="evenodd"/><path fill="#75a644" d="m517.3157 134.48062c-0.22808838 0 -0.42578125 0.04560852 -0.5778198 0.1824646c-0.440979 0 -0.86676025 1.3229218 -1.3077393 1.7639008l3.5126343 -0.440979l0 -1.3229218c-0.5778198 0 -1.1708984 -0.1824646 -1.6270752 -0.1824646z" fill-rule="evenodd"/><path fill="#75a644" d="m397.91656 359.55948c0.881958 2.204895 1.322937 3.5278015 1.763916 4.8355103c0 0.440979 0.44100952 0.881958 0.8819885 0.881958c-0.440979 -1.7486877 -0.440979 -3.0716248 -0.8819885 -4.3945312c0 -0.440979 -0.440979 -0.440979 -1.763916 -1.322937z" fill-rule="evenodd"/><path fill="#75a644" d="m200.31198 339.32034l-3.527832 0.440979l0 2.1896362c0.881958 -0.4409485 1.763916 -0.4409485 2.645874 -0.8819275c0.440979 -0.440979 0.440979 -0.86676025 0.881958 -1.7486877z" fill-rule="evenodd"/><path fill="#75a644" d="m389.11218 378.04996c0 1.3077087 0 2.1896667 0 3.0716248c0 0.4409485 0.881958 0.4409485 1.322937 0.4409485c0.440979 -0.8819275 0.440979 -1.7638855 0.440979 -2.6458435c-0.440979 -0.42575073 -1.322937 -0.42575073 -1.763916 -0.86672974z" fill-rule="evenodd"/><path fill="#75a644" d="m413.32047 217.41402l0 0c-0.440979 0.21289062 -0.881958 0.21289062 -1.2621155 0.21289062c-0.39535522 0 -0.71469116 0 -0.94277954 0.22808838c-0.440979 0.86672974 -0.881958 1.7486877 -1.322937 2.6306305l2.645874 -1.7639008l0.881958 -1.3077087z" fill-rule="evenodd"/><path fill="#75a644" d="m370.62143 235.88928l-5.7175293 1.7638855l0 0.440979l4.4098206 -0.440979l1.3077087 -1.7638855z" fill-rule="evenodd"/><path fill="#75a644" d="m553.2783 135.98601c-0.440979 0.440979 -0.440979 1.3229218 -0.440979 1.7639008c0 0.30410767 0.440979 0.6234436 1.0036011 0.6234436c0.24334717 0 0.50183105 -0.060821533 0.7451172 -0.18247986c0.440979 -0.44096375 0.881958 -0.88194275 1.763916 -2.2048645z" fill-rule="evenodd"/><path fill="#75a644" d="m491.6628 142.14442l-2.645874 2.6458435l0.881958 0.440979l2.645874 -3.0868225z" fill-rule="evenodd"/><path fill="#75a644" d="m471.84912 382.88547l-2.1896973 2.2048645l-0.440979 -0.440979l-0.881958 1.322937c0.21289062 -0.2281189 0.5474243 -0.2281189 0.881958 -0.2281189c0.31933594 0 0.6538696 0 0.881958 -0.2128601c0.42578125 -0.881958 1.3077393 -1.763916 1.7487183 -2.6458435z" fill-rule="evenodd"/><path fill="#75a644" d="m228.91486 308.51303c-1.3229523 1.3229065 -2.2049103 2.6306152 -3.0868683 3.9535522l0.881958 0l3.0868683 -3.9535522z" fill-rule="evenodd"/><path fill="#75a644" d="m441.04135 410.16498c-0.440979 0.881958 -1.322937 2.2048645 -1.7486877 3.5278015l0.86672974 0l1.322937 -3.5278015z" fill-rule="evenodd"/><path fill="#75a644" d="m363.13998 245.57549c-0.42575073 0 -1.3077393 0.440979 -2.1896973 0.440979c-0.440979 0.44096375 -0.440979 1.3229218 -0.881958 2.2048645l3.0716553 -1.7639008l0 -0.88194275z" fill-rule="evenodd"/><path fill="#75a644" d="m432.23697 392.1307l2.645874 3.9535522l0.881958 -0.881958c-1.322937 -0.881958 -2.204895 -1.7486877 -3.527832 -3.0715942z" fill-rule="evenodd"/><path fill="#75a644" d="m578.7944 112.21907c0 0.44097137 -0.440979 0.88194275 -0.440979 1.7638931c0.881958 -0.440979 1.763916 -0.440979 2.645874 -0.8819504c0.440979 0 0.440979 -0.44097137 0.440979 -0.88194275z" fill-rule="evenodd"/><path fill="#75a644" d="m247.4056 337.11548c-0.440979 0.440979 -0.440979 0.8819275 -0.440979 1.7638855l1.307724 0.440979c0 -0.881958 0.440979 -1.322937 0.440979 -2.2048645z" fill-rule="evenodd"/><path fill="#75a644" d="m404.95706 334.46964c-0.440979 0.8819275 -0.8819885 1.3229065 -1.3229675 2.2048645l0.8819885 0.440979l0.881958 -2.6458435z" fill-rule="evenodd"/><path fill="#75a644" d="m492.1038 139.5138c-0.22808838 0.21289062 -0.5626221 0.21289062 -0.881958 0.21289062c-0.3345337 0 -0.6690674 0 -0.881958 0.22808838c-0.440979 0.44096375 -0.881958 0.88194275 -1.322937 1.7486877l1.763916 -0.866745l1.322937 -1.3229218z" fill-rule="evenodd"/><path fill="#75a644" d="m507.06668 147.87709l0 0c-0.440979 0.44096375 -1.322937 0.44096375 -1.322937 0.44096375c-0.440979 0.440979 -0.881958 0.88194275 -0.881958 1.307724l1.763916 0c0.440979 0 0.440979 -0.866745 0.440979 -1.7486877z" fill-rule="evenodd"/><path fill="#75a644" d="m247.13188 294.91888c-0.121658325 0 -0.31933594 0.09124756 -0.60824585 0.38015747c-0.440979 0.440979 -0.881958 1.3229065 -1.3229523 1.7638855l1.7639313 0l0.440979 -1.7638855c0 0 0 -0.38015747 -0.27371216 -0.38015747z" fill-rule="evenodd"/><path fill="#75a644" d="m343.7825 260.0972l0 1.3229065c0 0.440979 0.440979 0.440979 0.440979 0.440979c0.440979 -0.440979 0.881958 -1.3229065 1.322937 -1.7638855z" fill-rule="evenodd"/><path fill="#75a644" d="m598.60803 163.28075l-3.086853 0.44096375c-0.440979 0 -0.440979 0.440979 -0.440979 0.440979l2.204895 0c0.440979 0 0.440979 0 1.322937 -0.88194275z" fill-rule="evenodd"/><path fill="#75a644" d="m514.54816 127.62273l-2.6459045 1.7638855l0.44100952 0.440979l2.204895 -1.7639008l0 -0.44096375z" fill-rule="evenodd"/><path fill="#75a644" d="m551.9554 153.59453c0 0.440979 -0.440979 0.881958 -0.440979 1.3229218l0.881958 0.440979l0.440979 -1.7639008z" fill-rule="evenodd"/><path fill="#75a644" d="m243.43677 299.2678l-0.881958 0.440979l-0.881958 0.8819275c0.440979 0 0.881958 0 1.322937 -0.4409485c0.440979 0 0.440979 -0.440979 0.440979 -0.881958z" fill-rule="evenodd"/><path fill="#75a644" d="m500.4672 395.64328l3.5126343 0.881958l0 -0.440979l-3.5126343 -0.440979z" fill-rule="evenodd"/><path fill="#75a644" d="m516.73785 113.98296c-0.440979 0 -0.86676025 0.88194275 -0.86676025 1.3229141l1.3077393 0l0.440979 -1.3229141z" fill-rule="evenodd"/><path fill="#75a644" d="m415.08438 376.28607l-1.763916 0.8819275l1.763916 0.440979l0 -1.3229065z" fill-rule="evenodd"/><path fill="#75a644" d="m286.56155 273.296l-0.86676025 0.8819275l1.3077393 0c0.440979 -0.4409485 0.440979 -0.8819275 0.881958 -0.8819275z" fill-rule="evenodd"/><path fill="#75a644" d="m613.5709 230.61281l-0.440979 0.88194275l1.322937 0c0.440979 0 0.440979 -0.44096375 0.440979 -0.88194275z" fill-rule="evenodd"/><path fill="#75a644" d="m237.71924 302.78036c-0.881958 0 -2.204895 0.881958 -2.645874 0.881958c-0.440979 0 -0.440979 0.440979 -0.440979 0.440979l3.086853 -1.322937z" fill-rule="evenodd"/><path fill="#75a644" d="m435.32382 413.69278l-1.322937 0.440979c-0.440979 0.4409485 -0.440979 0.8819275 -0.440979 0.8819275l1.322937 0l0.440979 -1.3229065z" fill-rule="evenodd"/><path fill="#75a644" d="m556.79095 152.2716c0 0.440979 0 0.440979 0 0.881958c0 0.44096375 0.440979 0.44096375 0.440979 0.44096375c0.440979 -0.44096375 0.440979 -0.88194275 0.881958 -1.3229218z" fill-rule="evenodd"/><path fill="#75a644" d="m566.0363 164.58846c-0.440979 0 -0.440979 0.440979 -0.881958 0.88194275l0.881958 0.440979l0.440979 -1.3229218z" fill-rule="evenodd"/><path fill="#75a644" d="m441.48233 397.84814l-2.6306458 0.881958l-0.440979 0.4409485l0 0l2.6306458 -0.8819275l0.440979 -0.440979z" fill-rule="evenodd"/><path fill="#75a644" d="m224.94603 311.14365l-1.7487183 1.763916l0.440979 0.440979l1.3077393 -1.763916l0 -0.440979z" fill-rule="evenodd"/><path fill="#75a644" d="m524.6603 103.85578l-3.5126343 1.7638931l3.9536133 -1.3229218l-0.440979 -0.44097137z" fill-rule="evenodd"/><path fill="#000000" fill-opacity="0.0" d="m293.61725 654.85956l80.091064 -112.66107l184.40558 -61.614624l131.59448 -146.11423l134.66614 -29.043427" fill-rule="evenodd"/><path stroke="#5bbceb" stroke-width="2.0183727034120733" stroke-miterlimit="28.9426" stroke-linecap="butt" d="m293.61725 654.85956l80.091064 -112.66107l184.40558 -61.614624l131.59448 -146.11423l134.66614 -29.043427" fill-rule="evenodd"/><path fill="#000000" fill-opacity="0.0" d="m269.84995 618.77576l80.091064 -112.66104l184.40561 -61.614624l131.59448 -146.11426l134.66614 -29.043396" fill-rule="evenodd"/><path stroke="#5bbceb" stroke-width="2.0183727034120733" stroke-miterlimit="28.9426" stroke-linecap="butt" d="m269.84995 618.77576l80.091064 -112.66104l184.40561 -61.614624l131.59448 -146.11426l134.66614 -29.043396" fill-rule="evenodd"/><path fill="#000000" fill-opacity="0.0" d="m246.08266 582.692l80.09105 -112.6611l184.40561 -61.614624l131.59445 -146.11423l134.66614 -29.043411" fill-rule="evenodd"/><path stroke="#5bbceb" stroke-width="2.0183727034120733" stroke-miterlimit="28.9426" stroke-linecap="butt" d="m246.08266 582.692l80.09105 -112.6611l184.40561 -61.614624l131.59445 -146.11423l134.66614 -29.043411" fill-rule="evenodd"/><path fill="#000000" fill-opacity="0.0" d="m222.31535 546.6082l80.09108 -112.6763l184.40561 -61.614594l131.59445 -146.11424l134.68134 -29.043427" fill-rule="evenodd"/><path stroke="#5bbceb" stroke-width="2.0183727034120733" stroke-miterlimit="28.9426" stroke-linecap="butt" d="m222.31535 546.6082l80.09108 -112.6763l184.40561 -61.614594l131.59445 -146.11424l134.68134 -29.043427" fill-rule="evenodd"/><path fill="#000000" fill-opacity="0.0" d="m198.54807 510.50922l80.091064 -112.66107l184.40561 -61.614624l131.59448 -146.11423l134.68134 -29.043427" fill-rule="evenodd"/><path stroke="#5bbceb" stroke-width="2.0183727034120733" stroke-miterlimit="28.9426" stroke-linecap="butt" d="m198.54807 510.50922l80.091064 -112.66107l184.40561 -61.614624l131.59448 -146.11423l134.68134 -29.043427" fill-rule="evenodd"/><path fill="#000000" fill-opacity="0.0" d="m174.78078 474.42545l80.10626 -112.66107l184.40562 -61.614624l131.57922 -146.11424l134.68134 -29.043419" fill-rule="evenodd"/><path stroke="#5bbceb" stroke-width="2.0183727034120733" stroke-miterlimit="28.9426" stroke-linecap="butt" d="m174.78078 474.42545l80.10626 -112.66107l184.40562 -61.614624l131.57922 -146.11424l134.68134 -29.043419" fill-rule="evenodd"/><path fill="#000000" fill-opacity="0.0" d="m151.01347 438.34167l80.10628 -112.6763l184.40561 -61.614624l131.57925 -146.09903l134.68134 -29.058624" fill-rule="evenodd"/><path stroke="#5bbceb" stroke-width="2.0183727034120733" stroke-miterlimit="28.9426" stroke-linecap="butt" d="m151.01347 438.34167l80.10628 -112.6763l184.40561 -61.614624l131.57925 -146.09903l134.68134 -29.058624" fill-rule="evenodd"/><path fill="#000000" fill-opacity="0.0" d="m188.86171 261.4201l202.01439 306.75018" fill-rule="evenodd"/><path stroke="#5bbceb" stroke-width="2.0183727034120733" stroke-miterlimit="28.9426" stroke-linecap="butt" d="m188.86171 261.4201l202.01439 306.75018" fill-rule="evenodd"/><path fill="#000000" fill-opacity="0.0" d="m162.46375 299.2678l201.5582 306.75015" fill-rule="evenodd"/><path stroke="#5bbceb" stroke-width="2.0183727034120733" stroke-miterlimit="28.9426" stroke-linecap="butt" d="m162.46375 299.2678l201.5582 306.75015" fill-rule="evenodd"/><path fill="#000000" fill-opacity="0.0" d="m373.7083 200.24648l201.57343 306.75018" fill-rule="evenodd"/><path stroke="#5bbceb" stroke-width="2.0183727034120733" stroke-miterlimit="28.9426" stroke-linecap="butt" d="m373.7083 200.24648l201.57343 306.75018" fill-rule="evenodd"/><path fill="#000000" fill-opacity="0.0" d="m312.09277 220.48563l201.57343 306.75015" fill-rule="evenodd"/><path stroke="#5bbceb" stroke-width="2.0183727034120733" stroke-miterlimit="28.9426" stroke-linecap="butt" d="m312.09277 220.48563l201.57343 306.75015" fill-rule="evenodd"/><path fill="#000000" fill-opacity="0.0" d="m250.47725 241.16576l202.01439 306.75018" fill-rule="evenodd"/><path stroke="#5bbceb" stroke-width="2.0183727034120733" stroke-miterlimit="28.9426" stroke-linecap="butt" d="m250.47725 241.16576l202.01439 306.75018" fill-rule="evenodd"/><path fill="#000000" fill-opacity="0.0" d="m135.16861 335.79254l202.89636 308.5141" fill-rule="evenodd"/><path stroke="#5bbceb" stroke-width="2.0183727034120733" stroke-miterlimit="28.9426" stroke-linecap="butt" d="m135.16861 335.79254l202.89636 308.5141" fill-rule="evenodd"/><path fill="#000000" fill-opacity="0.0" d="m503.97983 54.132236l202.01437 307.19116" fill-rule="evenodd"/><path stroke="#5bbceb" stroke-width="2.0183727034120733" stroke-miterlimit="28.9426" stroke-linecap="butt" d="m503.97983 54.132236l202.01437 307.19116" fill-rule="evenodd"/><path fill="#000000" fill-opacity="0.0" d="m548.8685 44.887l202.0144 306.75018" fill-rule="evenodd"/><path stroke="#5bbceb" stroke-width="2.0183727034120733" stroke-miterlimit="28.9426" stroke-linecap="butt" d="m548.8685 44.887l202.0144 306.75018" fill-rule="evenodd"/><path fill="#000000" fill-opacity="0.0" d="m417.71506 151.38966l201.5734 306.3092" fill-rule="evenodd"/><path stroke="#5bbceb" stroke-width="2.0183727034120733" stroke-miterlimit="28.9426" stroke-linecap="butt" d="m417.71506 151.38966l201.5734 306.3092" fill-rule="evenodd"/><path fill="#000000" fill-opacity="0.0" d="m460.85504 102.98904l201.55823 306.3092" fill-rule="evenodd"/><path stroke="#5bbceb" stroke-width="2.0183727034120733" stroke-miterlimit="28.9426" stroke-linecap="butt" d="m460.85504 102.98904l201.55823 306.3092" fill-rule="evenodd"/><path fill="#000000" fill-opacity="0.0" d="m593.3163 34.334053l202.89636 308.49887" fill-rule="evenodd"/><path stroke="#5bbceb" stroke-width="2.0183727034120733" stroke-miterlimit="28.9426" stroke-linecap="butt" d="m593.3163 34.334053l202.89636 308.49887" fill-rule="evenodd"/><path fill="#212121" fill-opacity="0.0943" d="m360.9503 180.87405l-185.72853 62.055588l229.29433 344.15692l183.52365 -61.173645l-227.08945 -345.03885z" fill-rule="evenodd"/><path fill="#212121" fill-opacity="0.0943" d="m649.6553 -0.0010434105l-156.66953 33.894123l225.32553 346.78754l159.31537 -34.319885l-227.97137 -346.36176z" fill-rule="evenodd"/></g></svg>