<svg version="1.1" viewBox="0.0 0.0 960.0 720.0" fill="none" stroke="none" stroke-linecap="square" stroke-miterlimit="10" xmlns:xlink="http://www.w3.org/1999/xlink" xmlns="http://www.w3.org/2000/svg"><clipPath id="p.0"><path d="m0 0l960.0 0l0 720.0l-960.0 0l0 -720.0z" clip-rule="nonzero"/></clipPath><g clip-path="url(#p.0)"><path fill="#000000" fill-opacity="0.0" d="m0 0l960.0 0l0 720.0l-960.0 0z" fill-rule="evenodd"/><path fill="#5bbceb" d="m480.05896 38.784996c-84.801544 0 -168.40262 34.552155 -229.01244 100.00292c-97.053986 104.60901 -110.650406 261.71173 -33.04506 381.4308c57.112823 88.97052 155.62823 142.56677 261.34637 142.56677c0.18267822 0 0.3718567 0 0.5545349 0c142.75601 -0.18914795 267.19205 -96.87128 302.3118 -235.09296c35.12628 -138.41089 -27.943115 -282.86316 -153.3252 -351.028c-46.928528 -25.516144 -98.09784 -37.8795 -148.83002 -37.8795z" fill-rule="evenodd"/><path fill="#75a644" d="m380.38876 45.889847c-7.5093384 0 -16.166962 2.4857216 -21.523315 4.149391c-53.811615 16.806335 -101.2099 49.2838 -136.51888 93.0938c-4.9127197 6.230606 -9.818909 13.407227 -9.251312 21.334122c0.18920898 4.9127197 2.6423035 9.440521 4.7169952 13.785629c7.933426 18.319962 9.062119 38.708084 3.5883179 57.967514c-1.6963043 5.858734 -4.1559143 11.521744 -3.7775116 17.56314c0.18919373 6.0414124 4.345108 12.461212 10.38652 13.028839c0.28053284 0.02609253 0.56108093 0.03262329 0.84161377 0.03262329c0.97210693 0 1.9637909 -0.104400635 2.9358978 -0.104400635c1.0503998 0 2.0746918 0.1239624 3.0207062 0.6393738c2.0746918 1.1352234 2.8314972 3.7774963 4.345108 5.6629944c1.9050751 2.518341 4.945343 3.529602 8.161774 3.529602c2.8249817 0 5.7934875 -0.78289795 8.266159 -2.0159912c5.473816 -2.642273 10.008118 -6.9873962 15.671143 -8.879425c2.6227112 -0.84814453 5.3563538 -1.1417236 8.135651 -1.1417236c6.5111694 0 13.296326 1.6245117 19.605225 1.6245117c4.1950684 0 8.181366 -0.71765137 11.723999 -3.1250916c3.5100098 -2.2117004 6.654663 -6.2371216 10.856262 -6.2371216c0.09133911 0 0.18920898 0.0065307617 0.2805481 0.0065307617c3.2164307 0.18917847 5.858734 2.642273 8.501038 4.345093c2.831482 1.683258 5.910919 2.413971 9.0555725 2.413971c7.7703247 0 15.945129 -4.456024 21.725586 -9.968979c8.116089 -7.9269104 13.968323 -18.31343 23.219635 -24.733246c4.436432 -3.079422 10.216888 -4.8996735 15.677643 -4.8996735c5.930481 0 11.489105 2.146469 14.535919 7.163574c4.1559143 6.798218 2.0812073 16.04953 -2.6423035 22.469345c-4.7170105 6.419815 -11.326019 11.143326 -16.995544 16.617142c-9.251312 8.872894 -23.787231 30.970367 -6.0414124 36.82257c8.311829 2.8315125 14.731659 9.818909 16.617126 18.502625c0.18920898 1.7028198 0.7568054 3.2099 1.7028198 4.3451233c1.1286926 0.9460144 2.263916 1.5070801 3.399109 2.0746765c4.149414 2.0812378 5.095398 7.3658447 5.8522034 12.089355c1.5071106 10.947601 2.8315125 23.226135 -3.399109 32.477448c-1.8919983 2.263916 -3.5882874 4.7170105 -4.7235107 7.359314c-1.1286926 3.2099 -0.37838745 6.9874268 -0.9460144 10.386536c-0.93948364 4.5343018 -4.3385925 7.9334106 -5.8522034 12.089325c-1.885498 6.4198 -2.6423035 13.028839 -2.2638855 19.637848c0 6.9873962 3.020691 10.569183 4.5343018 17.178223c1.3179016 6.0479126 -2.8380127 12.656921 0.18920898 18.130737c1.5070801 2.8315125 4.906189 4.5343323 5.8522034 7.555023c1.1286926 3.581787 -1.7028198 6.0414124 -1.8919983 9.818909c-0.18920898 3.770996 1.7027893 5.284607 2.0812073 8.683716c1.1286926 8.116119 1.3179016 11.704407 6.798218 17.935028c6.4198 7.1766357 11.893616 13.785645 15.860321 22.66504c0.37841797 1.5071411 1.1286926 2.642334 2.263916 3.581787c0.7568054 0.41107178 1.5788269 0.60028076 2.4074097 0.60028076c1.8594055 0 3.7253113 -0.97210693 4.7691956 -2.6749268c1.1352234 -2.453125 1.5070801 -5.284607 1.1352234 -8.11615c-0.9460144 -16.995514 -5.2911377 -34.558655 0.3718567 -50.608185c2.8380432 -7.1766357 6.609009 -13.9748535 11.33255 -20.016235c13.028809 -19.25946 27.571259 -37.390198 43.62079 -54.190002c14.157501 -14.54245 26.814484 -30.781189 37.194427 -48.15512c10.386536 -17.367432 14.731689 -37.194458 34.180298 -47.202576c4.9127197 -2.6488342 10.386536 -4.3451233 14.54248 -7.744232c4.149353 -3.5883179 6.980835 -10.008118 4.149353 -14.731628c-1.3178711 -1.6962891 -2.831482 -3.2099304 -4.527771 -4.3385925l-51.55426 -38.897278c-7.92688 -5.858734 -16.0495 -11.9001465 -25.67923 -13.785645c-12.83963 -2.6422882 -29.456757 0.7568054 -36.065765 -10.38652c-2.2638855 -3.7775116 -3.020691 -8.683716 -6.798218 -10.764923c-1.0503845 -0.52194214 -2.1334229 -0.74375916 -3.2359924 -0.74375916c-3.6340027 0 -7.4441223 2.407425 -10.921509 4.142868c-4.1559143 1.9833527 -8.690247 2.9750214 -13.218048 2.9750214c-4.5343018 0 -9.068634 -0.9916687 -13.218018 -2.9750214c0.5610962 -8.116104 5.6629944 -14.914322 8.494507 -22.469345c2.8315125 -7.555023 2.6423035 -17.56314 -4.3451233 -21.71254c-12.461212 11.13681 -26.246857 22.847748 -43.053192 23.604553c-0.39797974 0.019577026 -0.79592896 0.03262329 -1.2069702 0.03262329c-3.2359924 0 -6.5763855 -0.7502899 -8.4227295 -3.4317322c-1.1286926 -2.0812225 -1.5071106 -4.534317 -0.93948364 -6.798218c2.0746765 -18.887558 16.806335 -33.801865 35.49817 -36.444168c7.555023 -0.9460144 16.995514 -0.5676117 20.955719 -7.1766205c8.501038 -14.353241 -15.292725 -21.34066 -24.16565 -23.604553c-2.831482 -0.56760406 -5.8522034 -2.0746918 -6.4198 -4.9061966c0 -1.8920212 0.56759644 -3.5883102 1.5070801 -5.1019287c2.0812378 -3.3991013 3.399109 -6.9874115 4.1559143 -10.954124c0.56762695 -3.9601898 -0.37838745 -7.926903 -3.020691 -11.13681c-2.4530945 -3.0207062 -6.9874268 -4.9127197 -7.555023 -8.87291c-0.18920898 -0.9460068 -0.18920898 -1.8920174 0 -2.838028c0 -0.37187958 0.18920898 -0.7502823 0 -1.3178864c1.213501 -11.619598 -5.9043884 -14.914322 -14.54245 -14.914322z" fill-rule="evenodd"/><path fill="#75a644" d="m648.8256 81.9618c-5.1019287 0 -9.577515 1.4092331 -12.448181 5.0627823c-6.4198 8.50103 3.9666748 30.781174 8.872925 38.33619c4.155884 6.4198074 8.311829 12.8396225 12.467712 19.259438c2.074707 2.6423035 3.399109 5.8522034 3.770996 9.251312c0.37841797 7.3658295 -7.548523 12.272018 -10.008118 19.259445c-3.960205 11.5217285 8.690247 22.658539 20.773071 24.550552c8.500977 1.3178864 19.2594 1.885498 21.908264 10.008118c0.9394531 2.8315125 0.37182617 5.8522186 1.1286621 8.683716c1.1351929 3.9667053 4.345093 6.798218 7.1766357 9.818924c8.494507 10.764923 9.062073 25.868439 1.5136108 37.200974c-3.399109 5.095398 -8.311829 9.062103 -11.7109375 14.157501c-3.399109 5.1019287 -5.095398 12.461243 -1.3244019 17.373962c6.609009 8.872894 25.496521 4.7235107 27.760437 15.671112c0.75683594 4.5343323 -1.885498 10.764923 1.885498 13.407227c1.7028198 0.56762695 3.399109 1.1352234 5.1019287 1.7028198c3.9667358 1.6962891 4.5343018 6.980896 3.7775269 11.13681c-0.75683594 4.1559143 -2.642334 8.501038 -1.7028198 12.650421c1.076477 0.46322632 2.2182007 0.6263428 3.3925781 0.6263428c2.961975 0 6.145752 -1.0373535 9.003357 -1.0373535c1.6049805 0 3.1120605 0.3262024 4.4104004 1.3570251c1.3244019 1.3244019 2.263855 2.8315125 2.831482 4.3451233c8.690247 19.448639 20.016235 37.762054 33.234253 54.37918c0.75683594 0.9460144 1.7028198 1.7028198 3.020752 1.8920288c1.5136108 0 2.4595947 -1.7028198 3.2099 -3.020691c7.7442017 -16.806335 8.12262 -35.69391 8.501038 -54.196533c0.37835693 -18.313416 0.7567749 -36.444183 -3.209961 -54.007324c-3.5882568 -15.860321 -10.197327 -30.58545 -16.995483 -45.317078c-19.44867 -42.67479 -39.086487 -85.72798 -64.01544 -125.56474c-7.926941 -12.656944 -16.617188 -25.307365 -28.510803 -34.369476c-6.230591 -4.7757187 -21.777771 -12.6178055 -33.81488 -12.6178055z" fill-rule="evenodd"/><path fill="#ffffff" fill-opacity="0.1635" d="m462.8155 47.116398c-69.065155 0 -138.12381 26.338192 -190.8067 79.0211c-105.36583 105.365814 -105.36583 276.06494 0 381.4308c52.68289 52.77426 121.74155 79.16464 190.8067 79.16464c69.065186 0 138.13037 -26.39038 190.8133 -79.16464c105.36578 -105.365814 105.36578 -276.06494 0 -381.4308c-52.682922 -52.682907 -121.74811 -79.0211 -190.8133 -79.0211z" fill-rule="evenodd"/><path fill="#ffffff" fill-opacity="0.1635" d="m414.75827 56.413383c-54.333557 0 -108.66708 20.720856 -150.11533 62.16909c-82.896454 82.89647 -82.896454 217.34065 0 300.23712c41.448242 41.53958 95.78177 62.312622 150.11533 62.312622c54.333527 0 108.67355 -20.77304 150.1218 -62.312622c82.88995 -82.896454 82.88995 -217.34064 0 -300.23712c-41.448242 -41.448235 -95.78827 -62.16909 -150.1218 -62.16909z" fill-rule="evenodd"/><path fill="#ffffff" d="m526.5439 177.11758l-3.5883179 8.87944l6.041443 2.8314972l3.7774658 -9.062103l-6.230591 -2.6488342z" fill-rule="evenodd"/><path fill="#ffffff" d="m522.3945 142.56543l-3.9666748 10.008118l6.041382 2.6423035l4.155945 -10.008118l-6.230652 -2.6423035z" fill-rule="evenodd"/><path fill="#ffffff" d="m518.80615 113.297874l11.136841 90.63418c1.3244019 10.764923 8.12262 20.016235 18.130737 24.361359l8.683716 3.7775116l10.008118 -98.0l-47.95941 -20.773048z" fill-rule="evenodd"/><path fill="#ffffff" d="m578.2873 48.153744l-3.7775269 9.062115l6.041443 2.6422997l3.7775269 -9.062111l-6.041443 -2.6423035z" fill-rule="evenodd"/><path fill="#ffffff" d="m551.66205 68.54187l-4.155945 10.008118l6.230652 2.6488266l3.9666748 -10.008125l-6.041382 -2.648819z" fill-rule="evenodd"/><path fill="#ffffff" d="m613.87683 34.668224c-6.732971 0 -13.43988 2.2573738 -18.978943 6.498104l-70.42871 55.514412l48.33783 20.394646l61.373108 -76.47666l-8.311829 -3.399109c-3.8362427 -1.7093391 -7.920349 -2.5313911 -11.991455 -2.5313911z" fill-rule="evenodd"/><path fill="#ffffff" d="m608.11597 141.05182l7.5549927 33.423462c0.75683594 3.399109 3.2099 6.2306213 6.4198 7.555023l3.399109 -33.801865l-17.373901 -7.1766205z" fill-rule="evenodd"/><path fill="#ffffff" d="m642.505 121.146484c-1.9638062 0 -3.9210815 0.56760406 -5.682556 1.781105l-28.706482 18.12423l17.373901 7.365814l21.15149 -26.43605c-1.3374634 -0.54803467 -2.7401733 -0.83509827 -4.1363525 -0.83509827z" fill-rule="evenodd"/><path fill="#5bbceb" d="m474.56558 73.71556c-5.4737854 0 -11.254242 1.2591705 -12.598236 4.834427l-0.37838745 0.9460068c-2.4530945 6.0414124 8.305298 16.238731 12.83963 18.319954l118.58386 50.41249c0 0 18.391663 4.625656 28.954346 4.625656c3.7514648 0 6.5177 -0.5871887 7.111389 -2.1725616l0.37841797 -0.93948364c2.453064 -6.0414124 -27.003662 -24.361359 -27.003662 -24.361359l-118.58383 -50.229813c-1.9246521 -0.8416214 -5.5390625 -1.435318 -9.303528 -1.435318z" fill-rule="evenodd"/><path fill="#ffffff" d="m470.7163 77.0429c-3.3273315 0 -6.2044983 0.69156647 -7.052643 2.6422958l-0.18920898 0.5676117c-1.6962891 4.3451157 7.9334106 10.38652 12.467743 12.46122l118.58386 51.926094c0 0 22.658508 6.8634644 31.414001 6.8634644c1.8202515 0 3.0337524 -0.29359436 3.3273315 -1.0047302l0.18920898 -0.7568054c1.885498 -4.3451233 -28.321533 -21.151459 -28.321533 -21.151459l-118.96228 -49.473c-2.6031494 -1.0373459 -7.372345 -2.0746918 -11.456482 -2.0746918z" fill-rule="evenodd"/><path fill="#5bbceb" d="m474.61777 77.610504c-3.2099 2.8315048 -4.906189 6.987419 -4.7235107 11.326012l3.0272217 2.8314972l0 -1.5070877c-0.18917847 -4.3451157 1.5071106 -8.50103 4.7170105 -11.332535l1.1351929 -1.128685l-4.1559143 -0.18920135z" fill-rule="evenodd"/><path fill="#ffffff" d="m614.725 142.37624l-0.7503052 1.8854828l14.535889 6.237137c0.52197266 0.33926392 7.6724854 2.8967438 9.036072 2.8967438c0.1239624 0 0.20220947 -0.019577026 0.215271 -0.06524658c0.18920898 -0.56759644 -7.92688 -4.534317 -8.305298 -4.7235107l-14.731628 -6.230606z" fill-rule="evenodd"/><path fill="#000000" fill-opacity="0.0" d="m653.25037 91.01773l4.71698 -3.3991013" fill-rule="evenodd"/><path stroke="#ffffff" stroke-width="5.805774278215223" stroke-miterlimit="28.9426" stroke-linecap="butt" d="m653.25037 91.01773l4.71698 -3.3991013" fill-rule="evenodd"/><path fill="#000000" fill-opacity="0.0" d="m667.59705 80.63121c77.23346 -55.13601 134.26154 -80.632576 151.6289 -63.258636c33.423523 33.234272 -89.68817 210.16403 -274.36212 394.838c-184.67398 184.86316 -361.60373 307.78564 -394.838 274.55133c-17.373947 -17.36737 7.926895 -74.01703 62.691025 -150.68286" fill-rule="evenodd"/><path stroke="#ffffff" stroke-width="5.805774278215223" stroke-miterlimit="28.9426" stroke-linecap="butt" d="m667.59705 80.63121c77.23346 -55.13601 134.26154 -80.632576 151.6289 -63.258636c33.423523 33.234272 -89.68817 210.16403 -274.36212 394.838c-184.67398 184.86316 -361.60373 307.78564 -394.838 274.55133c-17.373947 -17.36737 7.926895 -74.01703 62.691025 -150.68286" fill-rule="evenodd"/><path fill="#000000" fill-opacity="0.0" d="m216.11597 531.17285l3.399109 -4.723572" fill-rule="evenodd"/><path stroke="#ffffff" stroke-width="2.8661417322834644" stroke-miterlimit="28.9426" stroke-linecap="butt" d="m216.11597 531.17285l3.399109 -4.723572" fill-rule="evenodd"/><path fill="#000000" fill-opacity="0.0" d="m306.56094 91.01773l-4.7170105 -3.3991013" fill-rule="evenodd"/><path stroke="#ffffff" stroke-width="5.805774278215223" stroke-miterlimit="28.9426" stroke-linecap="butt" d="m306.56094 91.01773l-4.7170105 -3.3991013" fill-rule="evenodd"/><path fill="#000000" fill-opacity="0.0" d="m292.3969 80.82041c-77.03775 -55.13601 -134.25497 -80.82178 -151.8116 -63.447838c-33.23427 33.234272 89.68817 210.16403 274.36212 394.838c184.86316 184.86316 361.60376 307.78564 394.838 274.55133c17.563171 -17.36737 -7.92688 -74.20624 -62.69104 -151.06128" fill-rule="evenodd"/><path stroke="#ffffff" stroke-width="5.805774278215223" stroke-miterlimit="28.9426" stroke-linecap="butt" d="m292.3969 80.82041c-77.03775 -55.13601 -134.25497 -80.82178 -151.8116 -63.447838c-33.23427 33.234272 89.68817 210.16403 274.36212 394.838c184.86316 184.86316 361.60376 307.78564 394.838 274.55133c17.563171 -17.36737 -7.92688 -74.20624 -62.69104 -151.06128" fill-rule="evenodd"/><path fill="#000000" fill-opacity="0.0" d="m743.6953 530.79443l-3.5883179 -4.7235107" fill-rule="evenodd"/><path stroke="#ffffff" stroke-width="2.8661417322834644" stroke-miterlimit="28.9426" stroke-linecap="butt" d="m743.6953 530.79443l-3.5883179 -4.7235107" fill-rule="evenodd"/></g></svg>