<svg version="1.1" viewBox="0.0 0.0 960.0 720.0" fill="none" stroke="none" stroke-linecap="square" stroke-miterlimit="10" xmlns:xlink="http://www.w3.org/1999/xlink" xmlns="http://www.w3.org/2000/svg"><clipPath id="p.0"><path d="m0 0l960.0 0l0 720.0l-960.0 0l0 -720.0z" clip-rule="nonzero"/></clipPath><g clip-path="url(#p.0)"><path fill="#000000" fill-opacity="0.0" d="m0 0l960.0 0l0 720.0l-960.0 0z" fill-rule="evenodd"/><path fill="#212121" fill-opacity="0.2767" d="m638.1507 336.07742c0 0.014953613 0 0.029876709 0 0.044799805c0 -0.014923096 0 -0.029846191 0 -0.044799805zm-113.37372 -336.0593c-10.5877075 0 -21.145569 4.823461 -27.985016 14.395716c-0.52267456 -0.82133293 -1.1349487 -1.6426649 -1.6426697 -2.344531c-5.1072083 -6.4810586 -12.51413 -9.661855 -19.876251 -9.661855c-8.198395 0 -16.35199 3.9573286 -21.250092 11.692786c-9.393066 14.604781 -1.4336243 34.09276 15.515717 38.079952c-6.4362793 12.140785 -5.1072083 26.835167 3.3599854 37.55729c0.104522705 0.19412994 0.20907593 0.29866028 0.31359863 0.40319824l0.104522705 0.104530334c-25.730103 14.186653 -32.465027 48.174873 -14.097046 71.14231c0.20907593 0.19413757 0.41815186 0.40319824 0.61227417 0.61227417c-19.592499 21.324768 -21.220245 53.37166 -4.1813354 76.63777c11.722656 15.918915 29.986115 24.625046 48.712463 24.625046c8.676239 0 17.427216 -1.8666687 25.700226 -5.7344055l0 0c-2.5535889 18.367981 5.809082 36.54181 21.324768 46.532196c7.8848267 5.1072083 16.874695 7.660797 25.84961 7.660797c8.810669 0 17.606384 -2.4490662 25.386597 -7.3471985c6.7349243 15.112518 20.712524 25.610657 37.04956 27.761047c-0.61224365 1.3141174 -1.1050415 2.6282654 -1.5231934 3.9423828l0 0c0.029907227 -0.044799805 0.10455322 -0.0597229 0.14935303 -0.08959961l0 0c-1.4037476 2.2250671 -2.7178955 4.6442566 -3.7333374 7.0634766l196.8808 0c-1.0154419 -2.2400208 -2.3444824 -4.285858 -3.8676758 -6.2272034c-6.6453247 -8.3029175 -16.650696 -13.096527 -27.104004 -13.096527c-1.612793 0 -3.225586 0.11947632 -4.8533325 0.34347534c4.494934 -11.423981 2.658142 -24.386108 -5.0026245 -33.98822c-0.50775146 -0.61227417 -1.0155029 -1.2245178 -1.6277466 -1.836792c15.202087 -19.906128 16.531189 -47.054886 3.4645386 -68.379654c-11.170105 -18.02452 -30.807434 -28.686905 -51.47516 -28.686905c-3.673584 0 -7.377075 0.328537 -11.080505 1.0304108c-5.510376 -26.850113 -28.477844 -46.54715 -55.835693 -47.980743c14.082153 -19.891182 14.903503 -46.23355 2.0458984 -66.94605c-11.140259 -17.875183 -30.643188 -28.537567 -51.266052 -28.537567c-3.1658936 0 -6.3616333 0.2538643 -9.557373 0.7765312c0.50775146 -20.891708 -16.605835 -35.51142 -34.794617 -35.51142c-7.2127686 0 -14.61969 2.2997303 -21.145569 7.4367905c-0.7167969 0.61226654 -1.3290405 1.2245331 -2.0458374 1.7471981c-1.2245483 -3.5839958 -3.0613403 -7.048525 -5.405884 -10.005321c-6.9589233 -8.810656 -17.053833 -13.171184 -27.118896 -13.171184z" fill-rule="evenodd"/><path fill="#ffffff" d="m828.9387 609.65576c-14.201538 0 -27.835693 6.7349243 -36.377563 18.562134c-14.485291 20.115173 -9.900757 48.174866 10.2144165 62.67511c7.8101196 5.6447754 17.009033 8.482117 26.237854 8.482117c8.138611 0 16.30719 -2.210144 23.564758 -6.6453247c15.411194 -9.602112 23.579712 -27.462341 20.712524 -45.427124c-2.9568481 -17.86029 -16.322144 -32.241028 -33.973328 -36.437317c-3.449585 -0.8063965 -6.929016 -1.2095947 -10.378662 -1.2095947z" fill-rule="evenodd"/><path fill="#ffffff" d="m114.51402 94.2324c-14.171715 0 -27.746101 6.7647934 -36.287956 18.666641c-14.500248 20.115181 -9.900787 48.070335 10.199455 62.570595c7.795189 5.6298523 16.99411 8.467178 26.2229 8.467178c8.168526 0 16.351974 -2.2250519 23.594635 -6.7349243c15.411179 -9.497589 23.564774 -27.462357 20.607971 -45.3226c-2.8522644 -17.949844 -16.322113 -32.345566 -33.98822 -36.437294c-3.4346619 -0.8063965 -6.9141235 -1.2095947 -10.348785 -1.2095947z" fill-rule="evenodd"/><path fill="#ffffff" d="m730.13995 597.27606c-1.7322998 0 -3.4794922 0.074645996 -5.241638 0.22399902c-33.779114 2.7626343 -58.896973 32.450073 -56.13434 66.24414c2.702942 32.01703 29.538147 56.253845 61.107178 56.253845c1.7322388 0 3.4794312 -0.07470703 5.2266235 -0.22399902c33.79413 -2.7626953 58.897034 -32.450134 56.04474 -66.2442c-2.7178345 -32.01703 -29.448486 -56.253784 -61.002563 -56.253784z" fill-rule="evenodd"/><path fill="#ffffff" d="m176.65155 135.34381c-19.443176 0 -38.065018 9.258652 -49.742874 25.521042c-19.906113 27.462357 -13.678917 65.84099 13.873047 85.64256c10.6922455 7.7055817 23.281036 11.60318 35.89969 11.60318c11.12532 0 22.280502 -3.0314636 32.18129 -9.154129c21.130646 -13.06665 32.360504 -37.46768 28.373306 -62.06285c-3.9722595 -24.490631 -22.25064 -44.187683 -46.44261 -49.907135c-4.7039948 -1.105072 -9.437851 -1.6426697 -14.141846 -1.6426697z" fill-rule="evenodd"/><path fill="#ffffff" d="m258.7549 126.45849c-19.398376 0 -38.035156 9.243721 -49.787674 25.431435c-19.801575 27.551971 -13.574387 65.93059 13.873047 85.73216c10.751984 7.705597 23.355713 11.603195 35.989304 11.603195c11.140228 0 22.29544 -3.0314636 32.196228 -9.154129c21.130615 -13.06665 32.360474 -37.55728 28.373291 -62.047928c-3.9872131 -24.50557 -22.355194 -44.202606 -46.54715 -49.907135c-4.6890564 -1.1199951 -9.4079895 -1.6576004 -14.097046 -1.6576004z" fill-rule="evenodd"/><path fill="#ffffff" d="m202.56085 65.53056c-19.443176 0 -38.050095 9.22879 -49.72795 25.431442c-19.906097 27.551964 -13.678909 65.93059 13.873062 85.73216c10.6922455 7.7055817 23.281036 11.60318 35.89969 11.60318c11.12532 0 22.280502 -3.0314636 32.18129 -9.154114c21.130646 -13.066666 32.36049 -37.557297 28.373306 -62.062866c-3.9722595 -24.490631 -22.355179 -44.187675 -46.44261 -49.907135c-4.7039948 -1.1050644 -9.452789 -1.6426697 -14.156784 -1.6426697z" fill-rule="evenodd"/><path fill="#ffffff" d="m305.093 62.26017c-19.398376 0 -38.035156 9.243721 -49.787674 25.431435c-19.801575 27.462364 -13.574387 65.82605 13.873062 85.73216c10.677307 7.6906586 23.266083 11.55838 35.89969 11.55838c11.170105 0 22.370087 -3.0165253 32.285828 -9.109314c21.130615 -13.06665 32.25595 -37.557297 28.373291 -62.047928c-3.9872131 -24.50557 -22.355164 -44.202614 -46.54715 -49.907135c-4.6890564 -1.1199989 -9.422913 -1.6576004 -14.097046 -1.6576004z" fill-rule="evenodd"/><path fill="#ffffff" d="m831.68646 484.49966c-19.443176 0 -38.065002 9.258636 -49.74286 25.53595c-19.891174 27.447418 -13.664001 65.82608 13.783447 85.627655c10.737061 7.7055664 23.355713 11.603149 35.989258 11.603149c11.140259 0 22.295471 -3.031433 32.196228 -9.154114c21.115723 -13.06665 32.34558 -37.55725 28.373352 -62.047913c-3.9872437 -24.505585 -22.355225 -44.202606 -46.442627 -49.92209c-4.7039795 -1.1050415 -9.45282 -1.6426392 -14.156799 -1.6426392z" fill-rule="evenodd"/><path fill="#ffffff" d="m295.237 220.97144c-19.443176 0 -38.065033 9.243729 -49.727936 25.431442c-19.906113 27.447433 -13.678925 65.826065 13.873047 85.73216c10.647461 7.67572 23.221313 11.543457 35.825012 11.543457c11.199982 0 22.414917 -3.0464172 32.360504 -9.198914c21.026093 -12.962128 32.25595 -37.45276 28.268768 -61.94342c-3.9872131 -24.505554 -22.25064 -44.20259 -46.442627 -49.92206c-4.7039795 -1.1050568 -9.452789 -1.6426697 -14.156769 -1.6426697z" fill-rule="evenodd"/><path fill="#ffffff" d="m627.04034 447.55463c-19.428284 0 -38.05011 9.243713 -49.727966 25.431427c-19.906128 27.447449 -13.678894 65.82608 13.783447 85.73215c10.722107 7.690674 23.310913 11.558411 35.929565 11.558411c11.155212 0 22.325317 -3.031433 32.241028 -9.109314c21.130615 -13.06665 32.360474 -37.557312 28.373291 -62.062866c-3.972229 -24.490631 -22.34021 -44.187683 -46.427673 -49.907135c-4.718933 -1.105072 -9.467712 -1.6426697 -14.171692 -1.6426697z" fill-rule="evenodd"/><path fill="#ffffff" d="m745.92444 422.45172c-19.45813 0 -38.124756 9.31839 -49.802612 25.521027c-19.906067 27.462372 -13.678894 65.84097 13.768555 85.64255c10.722107 7.7354736 23.310852 11.633057 35.91461 11.633057c11.170105 0 22.34021 -3.0612793 32.270874 -9.18396c21.130615 -12.962097 32.34558 -37.46768 28.373291 -61.958344c-3.9871826 -24.595154 -22.355164 -44.292206 -46.442627 -50.011658c-4.689026 -1.105072 -9.407959 -1.6426697 -14.082092 -1.6426697z" fill-rule="evenodd"/><path fill="#ffffff" d="m782.33185 524.61053c-19.383423 0 -38.020203 9.243713 -49.772705 25.431458c-19.801575 27.447388 -13.574402 65.82605 13.873047 85.73212c10.722107 7.690674 23.310913 11.558411 35.929565 11.558411c11.155151 0 22.34021 -3.0314941 32.25592 -9.109314c21.115723 -13.06665 32.34558 -37.557312 28.373291 -62.047913c-3.9871826 -24.505615 -22.355164 -44.202637 -46.54712 -49.92212c-4.689087 -1.1050415 -9.422913 -1.6426392 -14.1119995 -1.6426392z" fill-rule="evenodd"/><path fill="#ffffff" d="m725.645 498.26816c-19.443176 0 -38.065063 9.243744 -49.74286 25.44638c-19.801636 27.447449 -13.574402 65.82605 13.887939 85.73218c10.662415 7.690613 23.266113 11.55835 35.884766 11.55835c11.170105 0 22.370117 -3.031433 32.285828 -9.109314c21.130615 -13.06665 32.25598 -37.55725 28.283691 -62.062866c-3.9871826 -24.4906 -22.25061 -44.187653 -46.442627 -49.907135c-4.718872 -1.1050415 -9.467712 -1.6575928 -14.156738 -1.6575928z" fill-rule="evenodd"/><path fill="#ffffff" d="m624.86005 526.6415c-3.9274292 0 -7.914673 0.2836914 -11.931702 0.8362427c-46.338074 6.5407715 -78.683655 49.399414 -72.26233 95.84204c5.9733276 42.425537 42.35089 73.09857 83.940186 73.09857c3.9274292 0 7.899719 -0.26879883 11.901855 -0.8363037c46.442627 -6.525818 78.78815 -49.399353 72.26233 -95.84198c-5.9733276 -42.425537 -42.26129 -73.09857 -83.91034 -73.09857z" fill-rule="evenodd"/><path fill="#ffffff" d="m201.93364 221.79277c-13.11145 0 -26.431961 3.0613403 -38.901276 9.497589c-41.634087 21.444244 -57.97113 72.680435 -36.437294 114.31453c15.022911 29.179688 44.68049 45.934875 75.413246 45.934875c13.126389 0 26.4469 -3.0463867 38.901276 -9.497589c41.649033 -21.42929 57.971146 -72.6655 36.4373 -114.314514c-15.022919 -29.179703 -44.68048 -45.93489 -75.41325 -45.93489z" fill-rule="evenodd"/><path fill="#ffffff" d="m532.0047 410.89334c-4.420227 0 -8.885315 0.34347534 -13.380249 1.0602722c-46.338074 7.2426453 -77.96683 50.71353 -70.61963 96.962006c6.5407715 41.873016 42.70926 71.75461 83.74603 71.75461c4.345581 0 8.765869 -0.32855225 13.215942 -1.0304565c46.32318 -7.347168 77.96686 -50.728455 70.61969 -97.06653c-6.5408325 -41.828217 -42.61969 -71.6799 -83.58179 -71.6799z" fill-rule="evenodd"/><path fill="#ffffff" d="m404.11578 408.44427c-13.0815735 0 -26.3573 3.0314636 -38.7818 9.422913c-41.649017 21.533844 -57.97113 72.77005 -36.54184 114.41907c15.082672 29.179688 44.77008 45.934875 75.50284 45.934875c13.126404 0 26.44693 -3.0613403 38.901306 -9.497559c41.649017 -21.533875 57.97113 -72.68048 36.437286 -114.314545c-15.097595 -29.209564 -44.77008 -45.964752 -75.51779 -45.964752z" fill-rule="evenodd"/><path fill="#ffffff" d="m249.77998 317.11212c-37.766342 0 -74.42764 19.935974 -94.09482 55.238342c-28.881027 51.84845 -10.199448 117.2713 41.649017 146.15234c16.590912 9.22876 34.555695 13.604248 52.28154 13.604248c37.73648 0 74.32312 -19.891174 93.97534 -55.238342c28.881042 -51.84845 10.199463 -117.2713 -41.649017 -146.16727c-16.531158 -9.213867 -34.466095 -13.589325 -52.162064 -13.589325z" fill-rule="evenodd"/><path fill="#ffffff" d="m677.97784 284.90097c-17.964783 0 -36.168457 4.494934 -52.8938 13.9626465c-51.654297 29.28424 -69.81323 94.91614 -40.52899 146.55554c19.801575 34.914093 56.164185 54.521545 93.5871 54.521545c17.94983 0 36.13861 -4.509857 52.878845 -13.992523c51.639404 -29.299164 69.81323 -94.91614 40.5141 -146.5705c-19.726929 -34.89914 -56.104492 -54.476715 -93.55725 -54.476715z" fill-rule="evenodd"/><path fill="#ffffff" d="m409.9995 98.3092c-27.522095 0 -55.029266 10.513054 -76.01056 31.539162c-41.947693 41.947678 -41.947693 110.01373 0 151.97635c20.981293 20.96637 48.488464 31.449554 76.01056 31.449554c27.507172 0 55.04422 -10.483185 76.07031 -31.449554c41.947693 -41.962616 41.947693 -110.02867 0 -151.97635c-21.026093 -21.026108 -48.56314 -31.539162 -76.07031 -31.539162z" fill-rule="evenodd"/><path fill="#ffffff" d="m419.96005 264.6514c-5.600006 0 -11.274658 0.44799805 -16.964264 1.3439941c-58.687927 9.393036 -98.604675 64.5119 -89.31613 123.09531c8.482117 52.8938 54.237793 90.64523 106.16092 90.64523c5.5850525 0 11.2447815 -0.44799805 16.934387 -1.3439941c58.583405 -9.393066 98.58972 -64.49701 89.196655 -123.09534c-8.377563 -52.968445 -54.103363 -90.6452 -106.011566 -90.6452z" fill-rule="evenodd"/><path fill="#ffffff" d="m534.9615 238.87648c-5.734375 0 -11.528503 0.4629364 -17.352478 1.4037323c-58.583405 9.587189 -98.39563 64.81061 -88.79352 123.39398c8.54187 52.7146 54.17807 90.22708 105.922 90.22708c5.764282 0 11.60321 -0.47784424 17.471985 -1.4335938c58.583435 -9.497589 98.38068 -64.706055 88.79352 -123.28943c-8.54187 -52.849 -54.252747 -90.30177 -106.041504 -90.30177z" fill-rule="evenodd"/><path fill="#212121" fill-opacity="0.0943" d="m270.11917 310.54147c-33.46556 0 -65.75139 19.607422 -79.51991 53.341797c16.710388 -17.979706 39.618088 -27.342896 62.794586 -27.342896c15.889053 0 31.897568 4.4053345 46.099136 13.454895c34.914093 22.25064 48.891693 66.2442 33.181824 104.62283c36.422363 -39.19998 28.462921 -101.86017 -16.650635 -130.65158c-14.365845 -9.139191 -30.269836 -13.425049 -45.905 -13.425049z" fill-rule="evenodd"/><path fill="#212121" fill-opacity="0.0943" d="m502.5861 240.57889c-49.92209 0 -90.07776 43.097534 -85.2095 93.900696c4.330658 45.03885 42.410614 77.48895 85.22443 77.48895c7.72052 0 15.605286 -1.0602722 23.475159 -3.2853394c-41.230865 -3.464508 -74.09909 -35.929535 -78.07135 -77.16043c-3.88266 -41.230865 22.146088 -79.31084 61.94339 -90.63028c-2.4640198 -0.20907593 -4.928009 -0.31359863 -7.3621216 -0.31359863z" fill-rule="evenodd"/><path fill="#212121" fill-opacity="0.0943" d="m480.8133 491.7274c-0.0597229 0.074645996 -0.104522705 0.1642456 -0.14932251 0.23892212l0.104522705 0c0.014953613 -0.07467651 0.029876709 -0.14932251 0.044799805 -0.23892212zm48.383972 -39.42395c-22.74347 0 -43.545563 15.814362 -48.383972 39.42395l0 0c9.31839 -14.574921 25.192505 -22.818115 41.649048 -22.818115c6.1674194 0 12.409546 1.1498718 18.41278 3.5690613c22.146057 8.870392 34.80951 32.34555 30.000977 55.716187c1.1349487 -1.7322388 2.1504517 -3.4645386 2.9717407 -5.3013306c12.64856 -26.850098 -0.9258423 -58.687927 -29.090088 -68.08096c-5.1818237 -1.7023926 -10.423462 -2.508789 -15.560486 -2.508789z" fill-rule="evenodd"/><path fill="#212121" fill-opacity="0.0943" d="m163.55502 152.29312l0 0c21.937042 9.497589 33.883698 33.37596 28.462906 56.552475c-5.316269 22.504501 -25.341843 38.22928 -48.26448 38.22928c-0.77653503 0 -1.5679932 -0.02986145 -2.3594666 -0.05973816l0 0c1.94133 0.82133484 3.7781372 1.5232086 5.824005 2.045868c4.6890564 1.3738708 9.393051 2.0309296 14.022369 2.0309296c23.355713 0 44.456482 -16.755173 48.548218 -41.126343c5.002655 -29.194626 -16.635712 -56.13434 -46.23355 -57.67247z" fill-rule="evenodd"/><path fill="#212121" fill-opacity="0.0943" d="m629.77313 296.41455l0 0c-2.4490967 0.8213196 -4.793579 1.836792 -7.048523 2.956787c-32.853333 16.426666 -43.874084 57.97113 -23.564758 88.599365c11.886902 17.90506 31.389832 27.372772 51.131653 27.372772c13.992493 0 28.104492 -4.763733 39.69275 -14.61972l0 0c-6.7199707 2.3594666 -13.619202 3.4943848 -20.428772 3.4943848c-21.414368 0 -41.902893 -11.214905 -53.04315 -30.643158c-14.798889 -25.521027 -9.198914 -57.97113 13.260803 -77.16043z" fill-rule="evenodd"/><path fill="#212121" fill-opacity="0.0943" d="m363.5868 107.59772c7.1530457 31.643692 -9.288544 63.88472 -39.185028 76.65271c-8.511993 3.613861 -17.427185 5.346115 -26.237823 5.346115c-22.026642 0 -43.366364 -10.841583 -56.13434 -30.15036l0 0c7.0335846 31.524231 34.914093 52.63994 65.49753 52.63994c6.2421265 0 12.603699 -0.881073 18.920502 -2.7328033c37.243683 -10.826645 57.55298 -51.02713 44.292206 -87.46442c-1.836792 -5.0026627 -4.1813354 -9.796257 -7.1530457 -14.291183z" fill-rule="evenodd"/><path fill="#212121" fill-opacity="0.0943" d="m707.33673 459.41168l0 0c-1.7322388 0.9109192 -3.4644775 2.0309448 -5.092224 3.2554626c-23.997864 17.457031 -27.35785 51.84848 -7.153076 73.5914c9.796265 10.542908 23.012268 15.769531 36.213318 15.769531c13.932739 0 27.835693 -5.8239746 37.676758 -17.397278l0 0c-7.571228 4.2111816 -15.844299 6.2421265 -24.02771 6.2421265c-14.425598 0 -28.582397 -6.30188 -38.22931 -18.084229c-15.202087 -18.577057 -14.888489 -45.21811 0.61224365 -63.377014z" fill-rule="evenodd"/><path fill="#212121" fill-opacity="0.0943" d="m601.39984 528.97107c-31.598938 0 -58.075684 25.67035 -58.075684 58.224976c8.721069 -22.937561 30.673035 -37.51245 54.476746 -37.51245c3.524231 0 7.078369 0.31359863 10.647461 0.9706421c27.656494 5.211731 47.65216 29.28424 47.56256 57.46338c0.8064575 -2.2548828 1.6277466 -4.494934 2.135498 -6.8394165c8.467163 -33.98822 -14.694397 -67.6629 -49.503967 -71.85913c-2.434082 -0.29864502 -4.8533325 -0.44799805 -7.2426147 -0.44799805z" fill-rule="evenodd"/><path fill="#212121" fill-opacity="0.0943" d="m740.24976 618.8696c-7.9295654 0 -15.99353 1.911438 -23.519958 5.98822c2.2250977 -0.29864502 4.4351807 -0.44799805 6.630432 -0.44799805c21.160461 0 40.304993 13.499756 47.05487 34.018127c7.347168 22.758362 -2.4490967 47.45807 -23.47522 58.896973c2.0458984 -0.31359863 4.091736 -0.7167969 6.0181274 -1.2245483c28.582397 -7.5562134 44.202637 -38.483093 33.286377 -66.035095c-7.7802734 -19.59253 -26.476746 -31.195679 -45.99463 -31.195679z" fill-rule="evenodd"/></g></svg>